<?xml version="1.0" encoding="utf-8" ?>
<svg baseProfile="tiny" height="100%" version="1.2" width="100%" xmlns="http://www.w3.org/2000/svg" xmlns:ev="http://www.w3.org/2001/xml-events" xmlns:xlink="http://www.w3.org/1999/xlink"><defs /><g id="border"><line stroke="rgb(0%,0%,0%)" x1="0.3798" x2="0.3859" y1="1.2463" y2="1.2447" /><line stroke="rgb(0%,0%,0%)" x1="0.3859" x2="0.3798" y1="1.2447" y2="1.2463" /><line stroke="rgb(0%,0%,0%)" x1="0.3798" x2="0.3798" y1="1.2463" y2="1.2463" /><line stroke="rgb(0%,0%,0%)" x1="0.3859" x2="0.3798" y1="1.2447" y2="1.2463" /><line stroke="rgb(0%,0%,0%)" x1="0.3798" x2="0.3859" y1="1.2463" y2="1.2447" /><line stroke="rgb(0%,0%,0%)" x1="0.3859" x2="0.3859" y1="1.2447" y2="1.2447" /><line stroke="rgb(0%,0%,0%)" x1="0.3738" x2="0.3678" y1="1.1985" y2="1.2001" /><line stroke="rgb(0%,0%,0%)" x1="0.3678" x2="0.3738" y1="1.2001" y2="1.1985" /><line stroke="rgb(0%,0%,0%)" x1="0.3738" x2="0.3738" y1="1.1985" y2="1.1985" /><line stroke="rgb(0%,0%,0%)" x1="0.3678" x2="0.3738" y1="1.2001" y2="1.1985" /><line stroke="rgb(0%,0%,0%)" x1="0.3738" x2="0.3678" y1="1.1985" y2="1.2001" /><line stroke="rgb(0%,0%,0%)" x1="0.3678" x2="0.3678" y1="1.2001" y2="1.2001" /><line stroke="rgb(0%,0%,0%)" x1="0.3599" x2="0.3578" y1="1.2056" y2="1.2076" /><line stroke="rgb(0%,0%,0%)" x1="0.3578" x2="0.3599" y1="1.2076" y2="1.2056" /><line stroke="rgb(0%,0%,0%)" x1="0.3599" x2="0.3599" y1="1.2056" y2="1.2056" /><line stroke="rgb(0%,0%,0%)" x1="0.3578" x2="0.3599" y1="1.2076" y2="1.2056" /><line stroke="rgb(0%,0%,0%)" x1="0.3599" x2="0.3578" y1="1.2056" y2="1.2076" /><line stroke="rgb(0%,0%,0%)" x1="0.3578" x2="0.3578" y1="1.2076" y2="1.2076" /><line stroke="rgb(0%,0%,0%)" x1="0.3547" x2="0.3578" y1="1.213" y2="1.2076" /><line stroke="rgb(0%,0%,0%)" x1="0.3578" x2="0.3578" y1="1.2076" y2="1.2076" /><line stroke="rgb(0%,0%,0%)" x1="0.3578" x2="0.3547" y1="1.2076" y2="1.213" /><line stroke="rgb(0%,0%,0%)" x1="0.3578" x2="0.3547" y1="1.2076" y2="1.213" /><line stroke="rgb(0%,0%,0%)" x1="0.3547" x2="0.3547" y1="1.213" y2="1.213" /><line stroke="rgb(0%,0%,0%)" x1="0.3547" x2="0.3578" y1="1.213" y2="1.2076" /><line stroke="rgb(0%,0%,0%)" x1="0.353" x2="0.3547" y1="1.2191" y2="1.213" /><line stroke="rgb(0%,0%,0%)" x1="0.3547" x2="0.3547" y1="1.213" y2="1.213" /><line stroke="rgb(0%,0%,0%)" x1="0.3547" x2="0.353" y1="1.213" y2="1.2191" /><line stroke="rgb(0%,0%,0%)" x1="0.3547" x2="0.353" y1="1.213" y2="1.2191" /><line stroke="rgb(0%,0%,0%)" x1="0.353" x2="0.353" y1="1.2191" y2="1.2191" /><line stroke="rgb(0%,0%,0%)" x1="0.353" x2="0.3547" y1="1.2191" y2="1.213" /><line stroke="rgb(0%,0%,0%)" x1="0.3529" x2="0.353" y1="1.2254" y2="1.2191" /><line stroke="rgb(0%,0%,0%)" x1="0.353" x2="0.353" y1="1.2191" y2="1.2191" /><line stroke="rgb(0%,0%,0%)" x1="0.353" x2="0.3529" y1="1.2191" y2="1.2254" /><line stroke="rgb(0%,0%,0%)" x1="0.353" x2="0.3529" y1="1.2191" y2="1.2254" /><line stroke="rgb(0%,0%,0%)" x1="0.3529" x2="0.3529" y1="1.2254" y2="1.2254" /><line stroke="rgb(0%,0%,0%)" x1="0.3529" x2="0.353" y1="1.2254" y2="1.2191" /><line stroke="rgb(0%,0%,0%)" x1="0.3576" x2="0.3545" y1="1.2369" y2="1.2314" /><line stroke="rgb(0%,0%,0%)" x1="0.3545" x2="0.3545" y1="1.2314" y2="1.2314" /><line stroke="rgb(0%,0%,0%)" x1="0.3545" x2="0.3576" y1="1.2314" y2="1.2369" /><line stroke="rgb(0%,0%,0%)" x1="0.3545" x2="0.3576" y1="1.2314" y2="1.2369" /><line stroke="rgb(0%,0%,0%)" x1="0.3576" x2="0.3576" y1="1.2369" y2="1.2369" /><line stroke="rgb(0%,0%,0%)" x1="0.3576" x2="0.3545" y1="1.2369" y2="1.2314" /><line stroke="rgb(0%,0%,0%)" x1="0.36" x2="0.3576" y1="1.2394" y2="1.2369" /><line stroke="rgb(0%,0%,0%)" x1="0.3576" x2="0.3576" y1="1.2369" y2="1.2369" /><line stroke="rgb(0%,0%,0%)" x1="0.3576" x2="0.36" y1="1.2369" y2="1.2394" /><line stroke="rgb(0%,0%,0%)" x1="0.3576" x2="0.36" y1="1.2369" y2="1.2394" /><line stroke="rgb(0%,0%,0%)" x1="0.36" x2="0.36" y1="1.2394" y2="1.2394" /><line stroke="rgb(0%,0%,0%)" x1="0.36" x2="0.3576" y1="1.2394" y2="1.2369" /><line stroke="rgb(0%,0%,0%)" x1="0.362" x2="0.36" y1="1.2414" y2="1.2394" /><line stroke="rgb(0%,0%,0%)" x1="0.36" x2="0.36" y1="1.2394" y2="1.2394" /><line stroke="rgb(0%,0%,0%)" x1="0.36" x2="0.362" y1="1.2394" y2="1.2414" /><line stroke="rgb(0%,0%,0%)" x1="0.36" x2="0.362" y1="1.2394" y2="1.2414" /><line stroke="rgb(0%,0%,0%)" x1="0.362" x2="0.362" y1="1.2414" y2="1.2414" /><line stroke="rgb(0%,0%,0%)" x1="0.362" x2="0.36" y1="1.2414" y2="1.2394" /><line stroke="rgb(0%,0%,0%)" x1="0.3545" x2="0.3529" y1="1.2314" y2="1.2254" /><line stroke="rgb(0%,0%,0%)" x1="0.3529" x2="0.3529" y1="1.2254" y2="1.2254" /><line stroke="rgb(0%,0%,0%)" x1="0.3529" x2="0.3545" y1="1.2254" y2="1.2314" /><line stroke="rgb(0%,0%,0%)" x1="0.3529" x2="0.3545" y1="1.2254" y2="1.2314" /><line stroke="rgb(0%,0%,0%)" x1="0.3545" x2="0.3545" y1="1.2314" y2="1.2314" /><line stroke="rgb(0%,0%,0%)" x1="0.3545" x2="0.3529" y1="1.2314" y2="1.2254" /><line stroke="rgb(0%,0%,0%)" x1="0.3678" x2="0.3623" y1="1.2001" y2="1.2032" /><line stroke="rgb(0%,0%,0%)" x1="0.3623" x2="0.3678" y1="1.2032" y2="1.2001" /><line stroke="rgb(0%,0%,0%)" x1="0.3678" x2="0.3678" y1="1.2001" y2="1.2001" /><line stroke="rgb(0%,0%,0%)" x1="0.3623" x2="0.3678" y1="1.2032" y2="1.2001" /><line stroke="rgb(0%,0%,0%)" x1="0.3678" x2="0.3623" y1="1.2001" y2="1.2032" /><line stroke="rgb(0%,0%,0%)" x1="0.3623" x2="0.3623" y1="1.2032" y2="1.2032" /><line stroke="rgb(0%,0%,0%)" x1="0.3801" x2="0.3738" y1="1.1986" y2="1.1985" /><line stroke="rgb(0%,0%,0%)" x1="0.3738" x2="0.3801" y1="1.1985" y2="1.1986" /><line stroke="rgb(0%,0%,0%)" x1="0.3801" x2="0.3801" y1="1.1986" y2="1.1986" /><line stroke="rgb(0%,0%,0%)" x1="0.3738" x2="0.3801" y1="1.1985" y2="1.1986" /><line stroke="rgb(0%,0%,0%)" x1="0.3801" x2="0.3738" y1="1.1986" y2="1.1985" /><line stroke="rgb(0%,0%,0%)" x1="0.3738" x2="0.3738" y1="1.1985" y2="1.1985" /><line stroke="rgb(0%,0%,0%)" x1="0.3916" x2="0.3862" y1="1.2034" y2="1.2002" /><line stroke="rgb(0%,0%,0%)" x1="0.3862" x2="0.3916" y1="1.2002" y2="1.2034" /><line stroke="rgb(0%,0%,0%)" x1="0.3916" x2="0.3916" y1="1.2034" y2="1.2034" /><line stroke="rgb(0%,0%,0%)" x1="0.3862" x2="0.3916" y1="1.2002" y2="1.2034" /><line stroke="rgb(0%,0%,0%)" x1="0.3916" x2="0.3862" y1="1.2034" y2="1.2002" /><line stroke="rgb(0%,0%,0%)" x1="0.3862" x2="0.3862" y1="1.2002" y2="1.2002" /><line stroke="rgb(0%,0%,0%)" x1="0.3936" x2="0.3916" y1="1.2054" y2="1.2034" /><line stroke="rgb(0%,0%,0%)" x1="0.3916" x2="0.3916" y1="1.2034" y2="1.2034" /><line stroke="rgb(0%,0%,0%)" x1="0.3916" x2="0.3936" y1="1.2034" y2="1.2054" /><line stroke="rgb(0%,0%,0%)" x1="0.3916" x2="0.3936" y1="1.2034" y2="1.2054" /><line stroke="rgb(0%,0%,0%)" x1="0.3936" x2="0.3936" y1="1.2054" y2="1.2054" /><line stroke="rgb(0%,0%,0%)" x1="0.3936" x2="0.3916" y1="1.2054" y2="1.2034" /><line stroke="rgb(0%,0%,0%)" x1="0.396" x2="0.3936" y1="1.2079" y2="1.2054" /><line stroke="rgb(0%,0%,0%)" x1="0.3936" x2="0.3936" y1="1.2054" y2="1.2054" /><line stroke="rgb(0%,0%,0%)" x1="0.3936" x2="0.396" y1="1.2054" y2="1.2079" /><line stroke="rgb(0%,0%,0%)" x1="0.3936" x2="0.396" y1="1.2054" y2="1.2079" /><line stroke="rgb(0%,0%,0%)" x1="0.396" x2="0.396" y1="1.2079" y2="1.2079" /><line stroke="rgb(0%,0%,0%)" x1="0.396" x2="0.3936" y1="1.2079" y2="1.2054" /><line stroke="rgb(0%,0%,0%)" x1="0.3991" x2="0.396" y1="1.2133" y2="1.2079" /><line stroke="rgb(0%,0%,0%)" x1="0.396" x2="0.396" y1="1.2079" y2="1.2079" /><line stroke="rgb(0%,0%,0%)" x1="0.396" x2="0.3991" y1="1.2079" y2="1.2133" /><line stroke="rgb(0%,0%,0%)" x1="0.396" x2="0.3991" y1="1.2079" y2="1.2133" /><line stroke="rgb(0%,0%,0%)" x1="0.3991" x2="0.3991" y1="1.2133" y2="1.2133" /><line stroke="rgb(0%,0%,0%)" x1="0.3991" x2="0.396" y1="1.2133" y2="1.2079" /><line stroke="rgb(0%,0%,0%)" x1="0.4007" x2="0.3991" y1="1.2194" y2="1.2133" /><line stroke="rgb(0%,0%,0%)" x1="0.3991" x2="0.3991" y1="1.2133" y2="1.2133" /><line stroke="rgb(0%,0%,0%)" x1="0.3991" x2="0.4007" y1="1.2133" y2="1.2194" /><line stroke="rgb(0%,0%,0%)" x1="0.3991" x2="0.4007" y1="1.2133" y2="1.2194" /><line stroke="rgb(0%,0%,0%)" x1="0.4007" x2="0.4007" y1="1.2194" y2="1.2194" /><line stroke="rgb(0%,0%,0%)" x1="0.4007" x2="0.3991" y1="1.2194" y2="1.2133" /><line stroke="rgb(0%,0%,0%)" x1="0.4007" x2="0.4007" y1="1.2257" y2="1.2194" /><line stroke="rgb(0%,0%,0%)" x1="0.4007" x2="0.4007" y1="1.2194" y2="1.2194" /><line stroke="rgb(0%,0%,0%)" x1="0.4007" x2="0.4007" y1="1.2194" y2="1.2257" /><line stroke="rgb(0%,0%,0%)" x1="0.4007" x2="0.4007" y1="1.2194" y2="1.2257" /><line stroke="rgb(0%,0%,0%)" x1="0.4007" x2="0.4007" y1="1.2257" y2="1.2257" /><line stroke="rgb(0%,0%,0%)" x1="0.4007" x2="0.4007" y1="1.2257" y2="1.2194" /><line stroke="rgb(0%,0%,0%)" x1="0.399" x2="0.4007" y1="1.2318" y2="1.2257" /><line stroke="rgb(0%,0%,0%)" x1="0.4007" x2="0.4007" y1="1.2257" y2="1.2257" /><line stroke="rgb(0%,0%,0%)" x1="0.4007" x2="0.399" y1="1.2257" y2="1.2318" /><line stroke="rgb(0%,0%,0%)" x1="0.4007" x2="0.399" y1="1.2257" y2="1.2318" /><line stroke="rgb(0%,0%,0%)" x1="0.399" x2="0.399" y1="1.2318" y2="1.2318" /><line stroke="rgb(0%,0%,0%)" x1="0.399" x2="0.4007" y1="1.2318" y2="1.2257" /><line stroke="rgb(0%,0%,0%)" x1="0.3958" x2="0.399" y1="1.2372" y2="1.2318" /><line stroke="rgb(0%,0%,0%)" x1="0.399" x2="0.399" y1="1.2318" y2="1.2318" /><line stroke="rgb(0%,0%,0%)" x1="0.399" x2="0.3958" y1="1.2318" y2="1.2372" /><line stroke="rgb(0%,0%,0%)" x1="0.399" x2="0.3958" y1="1.2318" y2="1.2372" /><line stroke="rgb(0%,0%,0%)" x1="0.3958" x2="0.3958" y1="1.2372" y2="1.2372" /><line stroke="rgb(0%,0%,0%)" x1="0.3958" x2="0.399" y1="1.2372" y2="1.2318" /><line stroke="rgb(0%,0%,0%)" x1="0.3938" x2="0.3958" y1="1.2392" y2="1.2372" /><line stroke="rgb(0%,0%,0%)" x1="0.3958" x2="0.3938" y1="1.2372" y2="1.2392" /><line stroke="rgb(0%,0%,0%)" x1="0.3938" x2="0.3938" y1="1.2392" y2="1.2392" /><line stroke="rgb(0%,0%,0%)" x1="0.3958" x2="0.3938" y1="1.2372" y2="1.2392" /><line stroke="rgb(0%,0%,0%)" x1="0.3938" x2="0.3958" y1="1.2392" y2="1.2372" /><line stroke="rgb(0%,0%,0%)" x1="0.3958" x2="0.3958" y1="1.2372" y2="1.2372" /><line stroke="rgb(0%,0%,0%)" x1="0.3913" x2="0.3938" y1="1.2416" y2="1.2392" /><line stroke="rgb(0%,0%,0%)" x1="0.3938" x2="0.3913" y1="1.2392" y2="1.2416" /><line stroke="rgb(0%,0%,0%)" x1="0.3913" x2="0.3913" y1="1.2416" y2="1.2416" /><line stroke="rgb(0%,0%,0%)" x1="0.3938" x2="0.3913" y1="1.2392" y2="1.2416" /><line stroke="rgb(0%,0%,0%)" x1="0.3913" x2="0.3938" y1="1.2416" y2="1.2392" /><line stroke="rgb(0%,0%,0%)" x1="0.3938" x2="0.3938" y1="1.2392" y2="1.2392" /><line stroke="rgb(0%,0%,0%)" x1="0.3859" x2="0.3913" y1="1.2447" y2="1.2416" /><line stroke="rgb(0%,0%,0%)" x1="0.3913" x2="0.3859" y1="1.2416" y2="1.2447" /><line stroke="rgb(0%,0%,0%)" x1="0.3859" x2="0.3859" y1="1.2447" y2="1.2447" /><line stroke="rgb(0%,0%,0%)" x1="0.3913" x2="0.3859" y1="1.2416" y2="1.2447" /><line stroke="rgb(0%,0%,0%)" x1="0.3859" x2="0.3913" y1="1.2447" y2="1.2416" /><line stroke="rgb(0%,0%,0%)" x1="0.3913" x2="0.3913" y1="1.2416" y2="1.2416" /><line stroke="rgb(0%,0%,0%)" x1="0.3735" x2="0.3798" y1="1.2462" y2="1.2463" /><line stroke="rgb(0%,0%,0%)" x1="0.3798" x2="0.3735" y1="1.2463" y2="1.2462" /><line stroke="rgb(0%,0%,0%)" x1="0.3735" x2="0.3735" y1="1.2462" y2="1.2462" /><line stroke="rgb(0%,0%,0%)" x1="0.3798" x2="0.3735" y1="1.2463" y2="1.2462" /><line stroke="rgb(0%,0%,0%)" x1="0.3735" x2="0.3798" y1="1.2462" y2="1.2463" /><line stroke="rgb(0%,0%,0%)" x1="0.3798" x2="0.3798" y1="1.2463" y2="1.2463" /><line stroke="rgb(0%,0%,0%)" x1="0.3675" x2="0.3735" y1="1.2446" y2="1.2462" /><line stroke="rgb(0%,0%,0%)" x1="0.3735" x2="0.3675" y1="1.2462" y2="1.2446" /><line stroke="rgb(0%,0%,0%)" x1="0.3675" x2="0.3675" y1="1.2446" y2="1.2446" /><line stroke="rgb(0%,0%,0%)" x1="0.3735" x2="0.3675" y1="1.2462" y2="1.2446" /><line stroke="rgb(0%,0%,0%)" x1="0.3675" x2="0.3735" y1="1.2446" y2="1.2462" /><line stroke="rgb(0%,0%,0%)" x1="0.3735" x2="0.3735" y1="1.2462" y2="1.2462" /><line stroke="rgb(0%,0%,0%)" x1="0.362" x2="0.3675" y1="1.2414" y2="1.2446" /><line stroke="rgb(0%,0%,0%)" x1="0.3675" x2="0.362" y1="1.2446" y2="1.2414" /><line stroke="rgb(0%,0%,0%)" x1="0.362" x2="0.362" y1="1.2414" y2="1.2414" /><line stroke="rgb(0%,0%,0%)" x1="0.3675" x2="0.362" y1="1.2446" y2="1.2414" /><line stroke="rgb(0%,0%,0%)" x1="0.362" x2="0.3675" y1="1.2414" y2="1.2446" /><line stroke="rgb(0%,0%,0%)" x1="0.3675" x2="0.3675" y1="1.2446" y2="1.2446" /><line stroke="rgb(0%,0%,0%)" x1="0.3862" x2="0.3801" y1="1.2002" y2="1.1986" /><line stroke="rgb(0%,0%,0%)" x1="0.3801" x2="0.3862" y1="1.1986" y2="1.2002" /><line stroke="rgb(0%,0%,0%)" x1="0.3862" x2="0.3862" y1="1.2002" y2="1.2002" /><line stroke="rgb(0%,0%,0%)" x1="0.3801" x2="0.3862" y1="1.1986" y2="1.2002" /><line stroke="rgb(0%,0%,0%)" x1="0.3862" x2="0.3801" y1="1.2002" y2="1.1986" /><line stroke="rgb(0%,0%,0%)" x1="0.3801" x2="0.3801" y1="1.1986" y2="1.1986" /><line stroke="rgb(0%,0%,0%)" x1="0.3623" x2="0.3599" y1="1.2032" y2="1.2056" /><line stroke="rgb(0%,0%,0%)" x1="0.3599" x2="0.3623" y1="1.2056" y2="1.2032" /><line stroke="rgb(0%,0%,0%)" x1="0.3623" x2="0.3623" y1="1.2032" y2="1.2032" /><line stroke="rgb(0%,0%,0%)" x1="0.3599" x2="0.3623" y1="1.2056" y2="1.2032" /><line stroke="rgb(0%,0%,0%)" x1="0.3623" x2="0.3599" y1="1.2032" y2="1.2056" /><line stroke="rgb(0%,0%,0%)" x1="0.3599" x2="0.3599" y1="1.2056" y2="1.2056" /><line stroke="rgb(0%,0%,0%)" x1="4.2594" x2="4.2695" y1="1.1516" y2="1.15" /><line stroke="rgb(0%,0%,0%)" x1="4.2695" x2="4.2594" y1="1.15" y2="1.1516" /><line stroke="rgb(0%,0%,0%)" x1="4.2594" x2="4.2594" y1="1.1516" y2="1.1516" /><line stroke="rgb(0%,0%,0%)" x1="4.2695" x2="4.2594" y1="1.15" y2="1.1516" /><line stroke="rgb(0%,0%,0%)" x1="4.2594" x2="4.2695" y1="1.1516" y2="1.15" /><line stroke="rgb(0%,0%,0%)" x1="4.2695" x2="4.2695" y1="1.15" y2="1.15" /><line stroke="rgb(0%,0%,0%)" x1="4.2292" x2="4.2237" y1="1.0868" y2="1.0945" /><line stroke="rgb(0%,0%,0%)" x1="4.2237" x2="4.2296" y1="1.0945" y2="1.0863" /><line stroke="rgb(0%,0%,0%)" x1="4.2296" x2="4.2292" y1="1.0863" y2="1.0868" /><line stroke="rgb(0%,0%,0%)" x1="4.2237" x2="4.2292" y1="1.0945" y2="1.0868" /><line stroke="rgb(0%,0%,0%)" x1="4.2292" x2="4.2237" y1="1.0868" y2="1.0945" /><line stroke="rgb(0%,0%,0%)" x1="4.2237" x2="4.2237" y1="1.0945" y2="1.0945" /><line stroke="rgb(0%,0%,0%)" x1="4.2316" x2="4.2251" y1="1.1412" y2="1.1334" /><line stroke="rgb(0%,0%,0%)" x1="4.2251" x2="4.2251" y1="1.1334" y2="1.1334" /><line stroke="rgb(0%,0%,0%)" x1="4.2251" x2="4.2316" y1="1.1334" y2="1.1412" /><line stroke="rgb(0%,0%,0%)" x1="4.2251" x2="4.2316" y1="1.1334" y2="1.1412" /><line stroke="rgb(0%,0%,0%)" x1="4.2316" x2="4.2316" y1="1.1412" y2="1.1412" /><line stroke="rgb(0%,0%,0%)" x1="4.2316" x2="4.2251" y1="1.1412" y2="1.1334" /><line stroke="rgb(0%,0%,0%)" x1="4.2316" x2="4.2398" y1="1.1412" y2="1.1471" /><line stroke="rgb(0%,0%,0%)" x1="4.2398" x2="4.2316" y1="1.1471" y2="1.1412" /><line stroke="rgb(0%,0%,0%)" x1="4.2316" x2="4.2316" y1="1.1412" y2="1.1412" /><line stroke="rgb(0%,0%,0%)" x1="4.2398" x2="4.2316" y1="1.1471" y2="1.1412" /><line stroke="rgb(0%,0%,0%)" x1="4.2316" x2="4.2398" y1="1.1412" y2="1.1471" /><line stroke="rgb(0%,0%,0%)" x1="4.2398" x2="4.2398" y1="1.1471" y2="1.1471" /><line stroke="rgb(0%,0%,0%)" x1="4.2316" x2="4.2418" y1="1.1412" y2="1.1302" /><line stroke="rgb(0%,0%,0%)" x1="4.2418" x2="4.2418" y1="1.1302" y2="1.1302" /><line stroke="rgb(0%,0%,0%)" x1="4.2418" x2="4.2316" y1="1.1302" y2="1.1412" /><line stroke="rgb(0%,0%,0%)" x1="4.2418" x2="4.2316" y1="1.1302" y2="1.1412" /><line stroke="rgb(0%,0%,0%)" x1="4.2316" x2="4.2316" y1="1.1412" y2="1.1412" /><line stroke="rgb(0%,0%,0%)" x1="4.2316" x2="4.2418" y1="1.1412" y2="1.1302" /><line stroke="rgb(0%,0%,0%)" x1="4.2316" x2="4.2316" y1="1.1412" y2="1.1412" /><line stroke="rgb(0%,0%,0%)" x1="4.2316" x2="4.2316" y1="1.1412" y2="1.1412" /><line stroke="rgb(0%,0%,0%)" x1="4.2316" x2="4.2316" y1="1.1412" y2="1.1412" /><line stroke="rgb(0%,0%,0%)" x1="4.2493" x2="4.2594" y1="1.1507" y2="1.1516" /><line stroke="rgb(0%,0%,0%)" x1="4.2594" x2="4.2493" y1="1.1516" y2="1.1507" /><line stroke="rgb(0%,0%,0%)" x1="4.2493" x2="4.2493" y1="1.1507" y2="1.1507" /><line stroke="rgb(0%,0%,0%)" x1="4.2594" x2="4.2493" y1="1.1516" y2="1.1507" /><line stroke="rgb(0%,0%,0%)" x1="4.2493" x2="4.2594" y1="1.1507" y2="1.1516" /><line stroke="rgb(0%,0%,0%)" x1="4.2594" x2="4.2594" y1="1.1516" y2="1.1516" /><line stroke="rgb(0%,0%,0%)" x1="4.2695" x2="4.2787" y1="1.15" y2="1.1458" /><line stroke="rgb(0%,0%,0%)" x1="4.2787" x2="4.2695" y1="1.1458" y2="1.15" /><line stroke="rgb(0%,0%,0%)" x1="4.2695" x2="4.2695" y1="1.15" y2="1.15" /><line stroke="rgb(0%,0%,0%)" x1="4.2787" x2="4.2695" y1="1.1458" y2="1.15" /><line stroke="rgb(0%,0%,0%)" x1="4.2695" x2="4.2787" y1="1.15" y2="1.1458" /><line stroke="rgb(0%,0%,0%)" x1="4.2787" x2="4.2787" y1="1.1458" y2="1.1458" /><line stroke="rgb(0%,0%,0%)" x1="4.2787" x2="4.2865" y1="1.1458" y2="1.1393" /><line stroke="rgb(0%,0%,0%)" x1="4.2865" x2="4.2787" y1="1.1393" y2="1.1458" /><line stroke="rgb(0%,0%,0%)" x1="4.2787" x2="4.2787" y1="1.1458" y2="1.1458" /><line stroke="rgb(0%,0%,0%)" x1="4.2865" x2="4.2787" y1="1.1393" y2="1.1458" /><line stroke="rgb(0%,0%,0%)" x1="4.2787" x2="4.2865" y1="1.1458" y2="1.1393" /><line stroke="rgb(0%,0%,0%)" x1="4.2865" x2="4.2865" y1="1.1393" y2="1.1393" /><line stroke="rgb(0%,0%,0%)" x1="4.296" x2="4.2969" y1="1.1215" y2="1.1114" /><line stroke="rgb(0%,0%,0%)" x1="4.2969" x2="4.2969" y1="1.1114" y2="1.1114" /><line stroke="rgb(0%,0%,0%)" x1="4.2969" x2="4.296" y1="1.1114" y2="1.1215" /><line stroke="rgb(0%,0%,0%)" x1="4.2969" x2="4.296" y1="1.1114" y2="1.1215" /><line stroke="rgb(0%,0%,0%)" x1="4.296" x2="4.296" y1="1.1215" y2="1.1215" /><line stroke="rgb(0%,0%,0%)" x1="4.296" x2="4.2969" y1="1.1215" y2="1.1114" /><line stroke="rgb(0%,0%,0%)" x1="4.2398" x2="4.2493" y1="1.1471" y2="1.1507" /><line stroke="rgb(0%,0%,0%)" x1="4.2493" x2="4.2398" y1="1.1507" y2="1.1471" /><line stroke="rgb(0%,0%,0%)" x1="4.2398" x2="4.2398" y1="1.1471" y2="1.1471" /><line stroke="rgb(0%,0%,0%)" x1="4.2493" x2="4.2398" y1="1.1507" y2="1.1471" /><line stroke="rgb(0%,0%,0%)" x1="4.2398" x2="4.2493" y1="1.1471" y2="1.1507" /><line stroke="rgb(0%,0%,0%)" x1="4.2493" x2="4.2493" y1="1.1507" y2="1.1507" /><line stroke="rgb(0%,0%,0%)" x1="4.2953" x2="4.291" y1="1.1014" y2="1.0922" /><line stroke="rgb(0%,0%,0%)" x1="4.291" x2="4.291" y1="1.0922" y2="1.0922" /><line stroke="rgb(0%,0%,0%)" x1="4.291" x2="4.2953" y1="1.0922" y2="1.1014" /><line stroke="rgb(0%,0%,0%)" x1="4.291" x2="4.2953" y1="1.0922" y2="1.1014" /><line stroke="rgb(0%,0%,0%)" x1="4.2953" x2="4.2953" y1="1.1014" y2="1.1014" /><line stroke="rgb(0%,0%,0%)" x1="4.2953" x2="4.291" y1="1.1014" y2="1.0922" /><line stroke="rgb(0%,0%,0%)" x1="4.2192" x2="4.2202" y1="1.1141" y2="1.104" /><line stroke="rgb(0%,0%,0%)" x1="4.2202" x2="4.2202" y1="1.104" y2="1.104" /><line stroke="rgb(0%,0%,0%)" x1="4.2202" x2="4.2192" y1="1.104" y2="1.1141" /><line stroke="rgb(0%,0%,0%)" x1="4.2202" x2="4.2192" y1="1.104" y2="1.1141" /><line stroke="rgb(0%,0%,0%)" x1="4.2192" x2="4.2192" y1="1.1141" y2="1.1141" /><line stroke="rgb(0%,0%,0%)" x1="4.2192" x2="4.2202" y1="1.1141" y2="1.104" /><line stroke="rgb(0%,0%,0%)" x1="4.2374" x2="4.2296" y1="1.0798" y2="1.0863" /><line stroke="rgb(0%,0%,0%)" x1="4.2296" x2="4.2374" y1="1.0863" y2="1.0798" /><line stroke="rgb(0%,0%,0%)" x1="4.2374" x2="4.2374" y1="1.0798" y2="1.0798" /><line stroke="rgb(0%,0%,0%)" x1="4.2296" x2="4.2374" y1="1.0863" y2="1.0798" /><line stroke="rgb(0%,0%,0%)" x1="4.2374" x2="4.2292" y1="1.0798" y2="1.0868" /><line stroke="rgb(0%,0%,0%)" x1="4.2292" x2="4.2296" y1="1.0868" y2="1.0863" /><line stroke="rgb(0%,0%,0%)" x1="4.2467" x2="4.2374" y1="1.0756" y2="1.0798" /><line stroke="rgb(0%,0%,0%)" x1="4.2374" x2="4.2467" y1="1.0798" y2="1.0756" /><line stroke="rgb(0%,0%,0%)" x1="4.2467" x2="4.2467" y1="1.0756" y2="1.0756" /><line stroke="rgb(0%,0%,0%)" x1="4.2374" x2="4.2467" y1="1.0798" y2="1.0756" /><line stroke="rgb(0%,0%,0%)" x1="4.2467" x2="4.2374" y1="1.0756" y2="1.0798" /><line stroke="rgb(0%,0%,0%)" x1="4.2374" x2="4.2374" y1="1.0798" y2="1.0798" /><line stroke="rgb(0%,0%,0%)" x1="4.2567" x2="4.2467" y1="1.0739" y2="1.0756" /><line stroke="rgb(0%,0%,0%)" x1="4.2467" x2="4.2567" y1="1.0756" y2="1.0739" /><line stroke="rgb(0%,0%,0%)" x1="4.2567" x2="4.2567" y1="1.0739" y2="1.0739" /><line stroke="rgb(0%,0%,0%)" x1="4.2467" x2="4.2567" y1="1.0756" y2="1.0739" /><line stroke="rgb(0%,0%,0%)" x1="4.2567" x2="4.2467" y1="1.0739" y2="1.0756" /><line stroke="rgb(0%,0%,0%)" x1="4.2467" x2="4.2467" y1="1.0756" y2="1.0756" /><line stroke="rgb(0%,0%,0%)" x1="4.2668" x2="4.2567" y1="1.0749" y2="1.0739" /><line stroke="rgb(0%,0%,0%)" x1="4.2567" x2="4.2668" y1="1.0739" y2="1.0749" /><line stroke="rgb(0%,0%,0%)" x1="4.2668" x2="4.2668" y1="1.0749" y2="1.0749" /><line stroke="rgb(0%,0%,0%)" x1="4.2567" x2="4.2668" y1="1.0739" y2="1.0749" /><line stroke="rgb(0%,0%,0%)" x1="4.2668" x2="4.2567" y1="1.0749" y2="1.0739" /><line stroke="rgb(0%,0%,0%)" x1="4.2567" x2="4.2567" y1="1.0739" y2="1.0739" /><line stroke="rgb(0%,0%,0%)" x1="4.2763" x2="4.2668" y1="1.0784" y2="1.0749" /><line stroke="rgb(0%,0%,0%)" x1="4.2668" x2="4.2763" y1="1.0749" y2="1.0784" /><line stroke="rgb(0%,0%,0%)" x1="4.2763" x2="4.2763" y1="1.0784" y2="1.0784" /><line stroke="rgb(0%,0%,0%)" x1="4.2668" x2="4.2763" y1="1.0749" y2="1.0784" /><line stroke="rgb(0%,0%,0%)" x1="4.2763" x2="4.2668" y1="1.0784" y2="1.0749" /><line stroke="rgb(0%,0%,0%)" x1="4.2668" x2="4.2668" y1="1.0749" y2="1.0749" /><line stroke="rgb(0%,0%,0%)" x1="4.284" x2="4.2763" y1="1.0839" y2="1.0784" /><line stroke="rgb(0%,0%,0%)" x1="4.2763" x2="4.2846" y1="1.0784" y2="1.0843" /><line stroke="rgb(0%,0%,0%)" x1="4.2846" x2="4.284" y1="1.0843" y2="1.0839" /><line stroke="rgb(0%,0%,0%)" x1="4.2763" x2="4.284" y1="1.0784" y2="1.0839" /><line stroke="rgb(0%,0%,0%)" x1="4.284" x2="4.2763" y1="1.0839" y2="1.0784" /><line stroke="rgb(0%,0%,0%)" x1="4.2763" x2="4.2763" y1="1.0784" y2="1.0784" /><line stroke="rgb(0%,0%,0%)" x1="4.2969" x2="4.2953" y1="1.1114" y2="1.1014" /><line stroke="rgb(0%,0%,0%)" x1="4.2953" x2="4.2953" y1="1.1014" y2="1.1014" /><line stroke="rgb(0%,0%,0%)" x1="4.2953" x2="4.2969" y1="1.1014" y2="1.1114" /><line stroke="rgb(0%,0%,0%)" x1="4.2953" x2="4.2969" y1="1.1014" y2="1.1114" /><line stroke="rgb(0%,0%,0%)" x1="4.2969" x2="4.2969" y1="1.1114" y2="1.1114" /><line stroke="rgb(0%,0%,0%)" x1="4.2969" x2="4.2953" y1="1.1114" y2="1.1014" /><line stroke="rgb(0%,0%,0%)" x1="4.2924" x2="4.296" y1="1.131" y2="1.1215" /><line stroke="rgb(0%,0%,0%)" x1="4.296" x2="4.296" y1="1.1215" y2="1.1215" /><line stroke="rgb(0%,0%,0%)" x1="4.296" x2="4.2924" y1="1.1215" y2="1.131" /><line stroke="rgb(0%,0%,0%)" x1="4.296" x2="4.2924" y1="1.1215" y2="1.131" /><line stroke="rgb(0%,0%,0%)" x1="4.2924" x2="4.2924" y1="1.131" y2="1.131" /><line stroke="rgb(0%,0%,0%)" x1="4.2924" x2="4.296" y1="1.131" y2="1.1215" /><line stroke="rgb(0%,0%,0%)" x1="4.2865" x2="4.2924" y1="1.1393" y2="1.131" /><line stroke="rgb(0%,0%,0%)" x1="4.2924" x2="4.2924" y1="1.131" y2="1.131" /><line stroke="rgb(0%,0%,0%)" x1="4.2924" x2="4.2865" y1="1.131" y2="1.1393" /><line stroke="rgb(0%,0%,0%)" x1="4.2924" x2="4.2865" y1="1.131" y2="1.1393" /><line stroke="rgb(0%,0%,0%)" x1="4.2865" x2="4.2865" y1="1.1393" y2="1.1393" /><line stroke="rgb(0%,0%,0%)" x1="4.2865" x2="4.2924" y1="1.1393" y2="1.131" /><line stroke="rgb(0%,0%,0%)" x1="4.2251" x2="4.2209" y1="1.1334" y2="1.1242" /><line stroke="rgb(0%,0%,0%)" x1="4.2209" x2="4.2209" y1="1.1242" y2="1.1242" /><line stroke="rgb(0%,0%,0%)" x1="4.2209" x2="4.2251" y1="1.1242" y2="1.1334" /><line stroke="rgb(0%,0%,0%)" x1="4.2209" x2="4.2251" y1="1.1242" y2="1.1334" /><line stroke="rgb(0%,0%,0%)" x1="4.2251" x2="4.2251" y1="1.1334" y2="1.1334" /><line stroke="rgb(0%,0%,0%)" x1="4.2251" x2="4.2209" y1="1.1334" y2="1.1242" /><line stroke="rgb(0%,0%,0%)" x1="4.2209" x2="4.2192" y1="1.1242" y2="1.1141" /><line stroke="rgb(0%,0%,0%)" x1="4.2192" x2="4.2192" y1="1.1141" y2="1.1141" /><line stroke="rgb(0%,0%,0%)" x1="4.2192" x2="4.2209" y1="1.1141" y2="1.1242" /><line stroke="rgb(0%,0%,0%)" x1="4.2192" x2="4.2209" y1="1.1141" y2="1.1242" /><line stroke="rgb(0%,0%,0%)" x1="4.2209" x2="4.2209" y1="1.1242" y2="1.1242" /><line stroke="rgb(0%,0%,0%)" x1="4.2209" x2="4.2192" y1="1.1242" y2="1.1141" /><line stroke="rgb(0%,0%,0%)" x1="4.2202" x2="4.2237" y1="1.104" y2="1.0945" /><line stroke="rgb(0%,0%,0%)" x1="4.2237" x2="4.2237" y1="1.0945" y2="1.0945" /><line stroke="rgb(0%,0%,0%)" x1="4.2237" x2="4.2202" y1="1.0945" y2="1.104" /><line stroke="rgb(0%,0%,0%)" x1="4.2237" x2="4.2202" y1="1.0945" y2="1.104" /><line stroke="rgb(0%,0%,0%)" x1="4.2202" x2="4.2202" y1="1.104" y2="1.104" /><line stroke="rgb(0%,0%,0%)" x1="4.2202" x2="4.2237" y1="1.104" y2="1.0945" /><line stroke="rgb(0%,0%,0%)" x1="4.2846" x2="4.291" y1="1.0843" y2="1.0922" /><line stroke="rgb(0%,0%,0%)" x1="4.291" x2="4.284" y1="1.0922" y2="1.0839" /><line stroke="rgb(0%,0%,0%)" x1="4.284" x2="4.2846" y1="1.0839" y2="1.0843" /><line stroke="rgb(0%,0%,0%)" x1="4.291" x2="4.2846" y1="1.0922" y2="1.0843" /><line stroke="rgb(0%,0%,0%)" x1="4.2846" x2="4.291" y1="1.0843" y2="1.0922" /><line stroke="rgb(0%,0%,0%)" x1="4.291" x2="4.291" y1="1.0922" y2="1.0922" /></g></svg>