<?xml version="1.0" encoding="utf-8" ?>
<svg baseProfile="tiny" height="100%" version="1.2" width="100%" xmlns="http://www.w3.org/2000/svg" xmlns:ev="http://www.w3.org/2001/xml-events" xmlns:xlink="http://www.w3.org/1999/xlink"><defs /><g id="border"><line stroke="rgb(0%,0%,0%)" x1="3.6487" x2="3.6552" y1="0.4281" y2="0.4207" /><line stroke="rgb(0%,0%,0%)" x1="3.6552" x2="3.6552" y1="0.4207" y2="0.4207" /><line stroke="rgb(0%,0%,0%)" x1="3.6552" x2="3.6487" y1="0.4207" y2="0.4281" /><line stroke="rgb(0%,0%,0%)" x1="3.6552" x2="3.6487" y1="0.4207" y2="0.4281" /><line stroke="rgb(0%,0%,0%)" x1="3.6487" x2="3.4996" y1="0.4281" y2="0.598" /><line stroke="rgb(0%,0%,0%)" x1="3.4996" x2="3.6552" y1="0.598" y2="0.4207" /><line stroke="rgb(0%,0%,0%)" x1="3.4996" x2="3.6487" y1="0.598" y2="0.4281" /><line stroke="rgb(0%,0%,0%)" x1="3.6487" x2="3.5083" y1="0.4281" y2="0.588" /><line stroke="rgb(0%,0%,0%)" x1="3.5083" x2="3.4996" y1="0.588" y2="0.598" /><line stroke="rgb(0%,0%,0%)" x1="3.4996" x2="3.5083" y1="0.598" y2="0.588" /><line stroke="rgb(0%,0%,0%)" x1="3.5083" x2="3.4996" y1="0.588" y2="0.598" /><line stroke="rgb(0%,0%,0%)" x1="3.4996" x2="3.4996" y1="0.598" y2="0.598" /><line stroke="rgb(0%,0%,0%)" x1="3.6198" x2="3.6267" y1="1.9384" y2="1.9314" /><line stroke="rgb(0%,0%,0%)" x1="3.6267" x2="3.6267" y1="1.9314" y2="1.9314" /><line stroke="rgb(0%,0%,0%)" x1="3.6267" x2="3.6198" y1="1.9314" y2="1.9384" /><line stroke="rgb(0%,0%,0%)" x1="3.6267" x2="3.6198" y1="1.9314" y2="1.9384" /><line stroke="rgb(0%,0%,0%)" x1="3.6198" x2="3.4628" y1="1.9384" y2="2.1011" /><line stroke="rgb(0%,0%,0%)" x1="3.4628" x2="3.6267" y1="2.1011" y2="1.9314" /><line stroke="rgb(0%,0%,0%)" x1="3.4628" x2="3.6198" y1="2.1011" y2="1.9384" /><line stroke="rgb(0%,0%,0%)" x1="3.6198" x2="3.4697" y1="1.9384" y2="2.094" /><line stroke="rgb(0%,0%,0%)" x1="3.4697" x2="3.4628" y1="2.094" y2="2.1011" /><line stroke="rgb(0%,0%,0%)" x1="3.4628" x2="3.4697" y1="2.1011" y2="2.094" /><line stroke="rgb(0%,0%,0%)" x1="3.4697" x2="3.4628" y1="2.094" y2="2.1011" /><line stroke="rgb(0%,0%,0%)" x1="3.4628" x2="3.4628" y1="2.1011" y2="2.1011" /><line stroke="rgb(0%,0%,0%)" x1="4.4659" x2="4.513" y1="1.1517" y2="1.0994" /><line stroke="rgb(0%,0%,0%)" x1="4.513" x2="4.513" y1="1.0994" y2="1.0994" /><line stroke="rgb(0%,0%,0%)" x1="4.513" x2="4.4659" y1="1.0994" y2="1.1517" /><line stroke="rgb(0%,0%,0%)" x1="4.513" x2="4.4659" y1="1.0994" y2="1.1517" /><line stroke="rgb(0%,0%,0%)" x1="4.4659" x2="4.4659" y1="1.1517" y2="1.1517" /><line stroke="rgb(0%,0%,0%)" x1="4.4659" x2="4.513" y1="1.1517" y2="1.0994" /><line stroke="rgb(0%,0%,0%)" x1="4.4585" x2="4.4659" y1="1.1453" y2="1.1517" /><line stroke="rgb(0%,0%,0%)" x1="4.4659" x2="4.4585" y1="1.1517" y2="1.1453" /><line stroke="rgb(0%,0%,0%)" x1="4.4585" x2="4.4585" y1="1.1453" y2="1.1453" /><line stroke="rgb(0%,0%,0%)" x1="4.4659" x2="4.4585" y1="1.1517" y2="1.1453" /><line stroke="rgb(0%,0%,0%)" x1="4.4585" x2="4.4659" y1="1.1453" y2="1.1517" /><line stroke="rgb(0%,0%,0%)" x1="4.4659" x2="4.4659" y1="1.1517" y2="1.1517" /><line stroke="rgb(0%,0%,0%)" x1="4.4599" x2="4.4533" y1="1.0516" y2="1.0589" /><line stroke="rgb(0%,0%,0%)" x1="4.4533" x2="4.4599" y1="1.0589" y2="1.0516" /><line stroke="rgb(0%,0%,0%)" x1="4.4599" x2="4.4599" y1="1.0516" y2="1.0516" /><line stroke="rgb(0%,0%,0%)" x1="4.4533" x2="4.4599" y1="1.0589" y2="1.0516" /><line stroke="rgb(0%,0%,0%)" x1="4.4599" x2="4.4533" y1="1.0516" y2="1.0589" /><line stroke="rgb(0%,0%,0%)" x1="4.4533" x2="4.4533" y1="1.0589" y2="1.0589" /><line stroke="rgb(0%,0%,0%)" x1="4.513" x2="4.4599" y1="1.0994" y2="1.0516" /><line stroke="rgb(0%,0%,0%)" x1="4.4599" x2="4.513" y1="1.0516" y2="1.0994" /><line stroke="rgb(0%,0%,0%)" x1="4.513" x2="4.513" y1="1.0994" y2="1.0994" /><line stroke="rgb(0%,0%,0%)" x1="4.4599" x2="4.513" y1="1.0516" y2="1.0994" /><line stroke="rgb(0%,0%,0%)" x1="4.513" x2="4.4599" y1="1.0994" y2="1.0516" /><line stroke="rgb(0%,0%,0%)" x1="4.4599" x2="4.4599" y1="1.0516" y2="1.0516" /><line stroke="rgb(0%,0%,0%)" x1="4.3213" x2="4.3138" y1="1.3123" y2="1.3059" /><line stroke="rgb(0%,0%,0%)" x1="4.3138" x2="4.3138" y1="1.3059" y2="1.3059" /><line stroke="rgb(0%,0%,0%)" x1="4.3138" x2="4.3213" y1="1.3059" y2="1.3123" /><line stroke="rgb(0%,0%,0%)" x1="4.3138" x2="4.3213" y1="1.3059" y2="1.3123" /><line stroke="rgb(0%,0%,0%)" x1="4.3213" x2="4.3213" y1="1.3123" y2="1.3123" /><line stroke="rgb(0%,0%,0%)" x1="4.3213" x2="4.3138" y1="1.3123" y2="1.3059" /><line stroke="rgb(0%,0%,0%)" x1="4.2714" x2="4.3213" y1="1.3677" y2="1.3123" /><line stroke="rgb(0%,0%,0%)" x1="4.3213" x2="4.3213" y1="1.3123" y2="1.3123" /><line stroke="rgb(0%,0%,0%)" x1="4.3213" x2="4.2714" y1="1.3123" y2="1.3677" /><line stroke="rgb(0%,0%,0%)" x1="4.3213" x2="4.2714" y1="1.3123" y2="1.3677" /><line stroke="rgb(0%,0%,0%)" x1="4.2714" x2="4.2714" y1="1.3677" y2="1.3677" /><line stroke="rgb(0%,0%,0%)" x1="4.2714" x2="4.3213" y1="1.3677" y2="1.3123" /><line stroke="rgb(0%,0%,0%)" x1="4.1942" x2="4.2447" y1="0.914" y2="0.8579" /><line stroke="rgb(0%,0%,0%)" x1="4.2447" x2="4.2447" y1="0.8579" y2="0.8579" /><line stroke="rgb(0%,0%,0%)" x1="4.2447" x2="4.1942" y1="0.8579" y2="0.914" /><line stroke="rgb(0%,0%,0%)" x1="4.2447" x2="4.1942" y1="0.8579" y2="0.914" /><line stroke="rgb(0%,0%,0%)" x1="4.1942" x2="4.1942" y1="0.914" y2="0.914" /><line stroke="rgb(0%,0%,0%)" x1="4.1942" x2="4.2447" y1="0.914" y2="0.8579" /><line stroke="rgb(0%,0%,0%)" x1="4.3009" x2="4.2447" y1="0.9084" y2="0.8579" /><line stroke="rgb(0%,0%,0%)" x1="4.2447" x2="4.3009" y1="0.8579" y2="0.9084" /><line stroke="rgb(0%,0%,0%)" x1="4.3009" x2="4.3009" y1="0.9084" y2="0.9084" /><line stroke="rgb(0%,0%,0%)" x1="4.2447" x2="4.3009" y1="0.8579" y2="0.9084" /><line stroke="rgb(0%,0%,0%)" x1="4.3009" x2="4.2447" y1="0.9084" y2="0.8579" /><line stroke="rgb(0%,0%,0%)" x1="4.2447" x2="4.2447" y1="0.8579" y2="0.8579" /><line stroke="rgb(0%,0%,0%)" x1="4.205" x2="4.2242" y1="1.2946" y2="1.3119" /><line stroke="rgb(0%,0%,0%)" x1="4.2242" x2="4.2242" y1="1.3119" y2="1.3119" /><line stroke="rgb(0%,0%,0%)" x1="4.2242" x2="4.205" y1="1.3119" y2="1.2946" /><line stroke="rgb(0%,0%,0%)" x1="4.2242" x2="4.205" y1="1.3119" y2="1.2946" /><line stroke="rgb(0%,0%,0%)" x1="4.205" x2="4.205" y1="1.2946" y2="1.2946" /><line stroke="rgb(0%,0%,0%)" x1="4.205" x2="4.2242" y1="1.2946" y2="1.3119" /><line stroke="rgb(0%,0%,0%)" x1="4.2242" x2="4.205" y1="1.3119" y2="1.2946" /><line stroke="rgb(0%,0%,0%)" x1="4.205" x2="4.0877" y1="1.2946" y2="1.189" /><line stroke="rgb(0%,0%,0%)" x1="4.0877" x2="4.2242" y1="1.189" y2="1.3119" /><line stroke="rgb(0%,0%,0%)" x1="4.0596" x2="4.1833" y1="1.0782" y2="0.9408" /><line stroke="rgb(0%,0%,0%)" x1="4.1833" x2="4.2015" y1="0.9408" y2="0.9206" /><line stroke="rgb(0%,0%,0%)" x1="4.2015" x2="4.0596" y1="0.9206" y2="1.0782" /><line stroke="rgb(0%,0%,0%)" x1="4.1833" x2="4.0596" y1="0.9408" y2="1.0782" /><line stroke="rgb(0%,0%,0%)" x1="4.0596" x2="4.0784" y1="1.0782" y2="1.0573" /><line stroke="rgb(0%,0%,0%)" x1="4.0784" x2="4.1833" y1="1.0573" y2="0.9408" /><line stroke="rgb(0%,0%,0%)" x1="4.2015" x2="4.1833" y1="0.9206" y2="0.9408" /><line stroke="rgb(0%,0%,0%)" x1="4.1833" x2="4.2015" y1="0.9408" y2="0.9206" /><line stroke="rgb(0%,0%,0%)" x1="4.2015" x2="4.2015" y1="0.9206" y2="0.9206" /><line stroke="rgb(0%,0%,0%)" x1="4.1833" x2="4.2015" y1="0.9408" y2="0.9206" /><line stroke="rgb(0%,0%,0%)" x1="4.2015" x2="4.1833" y1="0.9206" y2="0.9408" /><line stroke="rgb(0%,0%,0%)" x1="4.1833" x2="4.1833" y1="0.9408" y2="0.9408" /><line stroke="rgb(0%,0%,0%)" x1="4.1942" x2="4.2015" y1="0.914" y2="0.9206" /><line stroke="rgb(0%,0%,0%)" x1="4.2015" x2="4.1942" y1="0.9206" y2="0.914" /><line stroke="rgb(0%,0%,0%)" x1="4.1942" x2="4.1942" y1="0.914" y2="0.914" /><line stroke="rgb(0%,0%,0%)" x1="4.2015" x2="4.1942" y1="0.9206" y2="0.914" /><line stroke="rgb(0%,0%,0%)" x1="4.1942" x2="4.2015" y1="0.914" y2="0.9206" /><line stroke="rgb(0%,0%,0%)" x1="4.2015" x2="4.2015" y1="0.9206" y2="0.9206" /><line stroke="rgb(0%,0%,0%)" x1="4.2943" x2="4.3009" y1="0.9157" y2="0.9084" /><line stroke="rgb(0%,0%,0%)" x1="4.3009" x2="4.3009" y1="0.9084" y2="0.9084" /><line stroke="rgb(0%,0%,0%)" x1="4.3009" x2="4.2943" y1="0.9084" y2="0.9157" /><line stroke="rgb(0%,0%,0%)" x1="4.3009" x2="4.2943" y1="0.9084" y2="0.9157" /><line stroke="rgb(0%,0%,0%)" x1="4.2943" x2="4.2943" y1="0.9157" y2="0.9157" /><line stroke="rgb(0%,0%,0%)" x1="4.2943" x2="4.3009" y1="0.9157" y2="0.9084" /><line stroke="rgb(0%,0%,0%)" x1="4.4533" x2="4.2943" y1="1.0589" y2="0.9157" /><line stroke="rgb(0%,0%,0%)" x1="4.2943" x2="4.2943" y1="0.9157" y2="0.9157" /><line stroke="rgb(0%,0%,0%)" x1="4.2943" x2="4.4533" y1="0.9157" y2="1.0589" /><line stroke="rgb(0%,0%,0%)" x1="4.2943" x2="4.4533" y1="0.9157" y2="1.0589" /><line stroke="rgb(0%,0%,0%)" x1="4.4533" x2="4.4533" y1="1.0589" y2="1.0589" /><line stroke="rgb(0%,0%,0%)" x1="4.4533" x2="4.2943" y1="1.0589" y2="0.9157" /><line stroke="rgb(0%,0%,0%)" x1="4.3138" x2="4.4585" y1="1.3059" y2="1.1453" /><line stroke="rgb(0%,0%,0%)" x1="4.4585" x2="4.4585" y1="1.1453" y2="1.1453" /><line stroke="rgb(0%,0%,0%)" x1="4.4585" x2="4.3138" y1="1.1453" y2="1.3059" /><line stroke="rgb(0%,0%,0%)" x1="4.4585" x2="4.3138" y1="1.1453" y2="1.3059" /><line stroke="rgb(0%,0%,0%)" x1="4.3138" x2="4.3138" y1="1.3059" y2="1.3059" /><line stroke="rgb(0%,0%,0%)" x1="4.3138" x2="4.4585" y1="1.3059" y2="1.1453" /><line stroke="rgb(0%,0%,0%)" x1="4.2242" x2="4.2177" y1="1.3119" y2="1.3193" /><line stroke="rgb(0%,0%,0%)" x1="4.2177" x2="4.2242" y1="1.3193" y2="1.3119" /><line stroke="rgb(0%,0%,0%)" x1="4.2242" x2="4.2242" y1="1.3119" y2="1.3119" /><line stroke="rgb(0%,0%,0%)" x1="4.2177" x2="4.2242" y1="1.3193" y2="1.3119" /><line stroke="rgb(0%,0%,0%)" x1="4.2242" x2="4.2177" y1="1.3119" y2="1.3193" /><line stroke="rgb(0%,0%,0%)" x1="4.2177" x2="4.2177" y1="1.3193" y2="1.3193" /><line stroke="rgb(0%,0%,0%)" x1="4.2177" x2="4.2714" y1="1.3193" y2="1.3677" /><line stroke="rgb(0%,0%,0%)" x1="4.2714" x2="4.2177" y1="1.3677" y2="1.3193" /><line stroke="rgb(0%,0%,0%)" x1="4.2177" x2="4.2177" y1="1.3193" y2="1.3193" /><line stroke="rgb(0%,0%,0%)" x1="4.2714" x2="4.2177" y1="1.3677" y2="1.3193" /><line stroke="rgb(0%,0%,0%)" x1="4.2177" x2="4.2714" y1="1.3193" y2="1.3677" /><line stroke="rgb(0%,0%,0%)" x1="4.2714" x2="4.2714" y1="1.3677" y2="1.3677" /><line stroke="rgb(0%,0%,0%)" x1="0.4188" x2="0.4256" y1="1.0265" y2="1.0194" /><line stroke="rgb(0%,0%,0%)" x1="0.4256" x2="0.4256" y1="1.0194" y2="1.0194" /><line stroke="rgb(0%,0%,0%)" x1="0.4256" x2="0.4188" y1="1.0194" y2="1.0265" /><line stroke="rgb(0%,0%,0%)" x1="0.4256" x2="0.4188" y1="1.0194" y2="1.0265" /><line stroke="rgb(0%,0%,0%)" x1="0.4188" x2="0.4188" y1="1.0265" y2="1.0265" /><line stroke="rgb(0%,0%,0%)" x1="0.4188" x2="0.4256" y1="1.0265" y2="1.0194" /><line stroke="rgb(0%,0%,0%)" x1="0.3189" x2="0.326" y1="1.0218" y2="1.0286" /><line stroke="rgb(0%,0%,0%)" x1="0.326" x2="0.326" y1="1.0286" y2="1.0286" /><line stroke="rgb(0%,0%,0%)" x1="0.326" x2="0.3189" y1="1.0286" y2="1.0218" /><line stroke="rgb(0%,0%,0%)" x1="0.326" x2="0.3189" y1="1.0286" y2="1.0218" /><line stroke="rgb(0%,0%,0%)" x1="0.3189" x2="0.3189" y1="1.0218" y2="1.0218" /><line stroke="rgb(0%,0%,0%)" x1="0.3189" x2="0.326" y1="1.0218" y2="1.0286" /><line stroke="rgb(0%,0%,0%)" x1="0.3189" x2="0.371" y1="1.0218" y2="0.9672" /><line stroke="rgb(0%,0%,0%)" x1="0.371" x2="0.371" y1="0.9672" y2="0.9672" /><line stroke="rgb(0%,0%,0%)" x1="0.371" x2="0.3189" y1="0.9672" y2="1.0218" /><line stroke="rgb(0%,0%,0%)" x1="0.371" x2="0.3189" y1="0.9672" y2="1.0218" /><line stroke="rgb(0%,0%,0%)" x1="0.3189" x2="0.3189" y1="1.0218" y2="1.0218" /><line stroke="rgb(0%,0%,0%)" x1="0.3189" x2="0.371" y1="1.0218" y2="0.9672" /><line stroke="rgb(0%,0%,0%)" x1="0.4256" x2="0.371" y1="1.0194" y2="0.9672" /><line stroke="rgb(0%,0%,0%)" x1="0.371" x2="0.4256" y1="0.9672" y2="1.0194" /><line stroke="rgb(0%,0%,0%)" x1="0.4256" x2="0.4256" y1="1.0194" y2="1.0194" /><line stroke="rgb(0%,0%,0%)" x1="0.371" x2="0.4256" y1="0.9672" y2="1.0194" /><line stroke="rgb(0%,0%,0%)" x1="0.4256" x2="0.371" y1="1.0194" y2="0.9672" /><line stroke="rgb(0%,0%,0%)" x1="0.371" x2="0.371" y1="0.9672" y2="0.9672" /><line stroke="rgb(0%,0%,0%)" x1="0.1794" x2="0.1723" y1="1.1819" y2="1.1751" /><line stroke="rgb(0%,0%,0%)" x1="0.1723" x2="0.1794" y1="1.1751" y2="1.1819" /><line stroke="rgb(0%,0%,0%)" x1="0.1794" x2="0.1794" y1="1.1819" y2="1.1819" /><line stroke="rgb(0%,0%,0%)" x1="0.1723" x2="0.1794" y1="1.1751" y2="1.1819" /><line stroke="rgb(0%,0%,0%)" x1="0.1794" x2="0.1723" y1="1.1819" y2="1.1751" /><line stroke="rgb(0%,0%,0%)" x1="0.1723" x2="0.1723" y1="1.1751" y2="1.1751" /><line stroke="rgb(0%,0%,0%)" x1="0.1743" x2="0.1811" y1="1.2785" y2="1.2714" /><line stroke="rgb(0%,0%,0%)" x1="0.1811" x2="0.1811" y1="1.2714" y2="1.2714" /><line stroke="rgb(0%,0%,0%)" x1="0.1811" x2="0.1743" y1="1.2714" y2="1.2785" /><line stroke="rgb(0%,0%,0%)" x1="0.1743" x2="0.1811" y1="1.2785" y2="1.2714" /><line stroke="rgb(0%,0%,0%)" x1="0.1811" x2="0.1743" y1="1.2714" y2="1.2785" /><line stroke="rgb(0%,0%,0%)" x1="0.1743" x2="0.1743" y1="1.2785" y2="1.2785" /><line stroke="rgb(0%,0%,0%)" x1="0.1216" x2="0.1743" y1="1.2282" y2="1.2785" /><line stroke="rgb(0%,0%,0%)" x1="0.1743" x2="0.1216" y1="1.2785" y2="1.2282" /><line stroke="rgb(0%,0%,0%)" x1="0.1216" x2="0.1216" y1="1.2282" y2="1.2282" /><line stroke="rgb(0%,0%,0%)" x1="0.1743" x2="0.1216" y1="1.2785" y2="1.2282" /><line stroke="rgb(0%,0%,0%)" x1="0.1216" x2="0.1743" y1="1.2282" y2="1.2785" /><line stroke="rgb(0%,0%,0%)" x1="0.1743" x2="0.1743" y1="1.2785" y2="1.2785" /><line stroke="rgb(0%,0%,0%)" x1="0.1216" x2="0.1723" y1="1.2282" y2="1.1751" /><line stroke="rgb(0%,0%,0%)" x1="0.1723" x2="0.1723" y1="1.1751" y2="1.1751" /><line stroke="rgb(0%,0%,0%)" x1="0.1723" x2="0.1216" y1="1.1751" y2="1.2282" /><line stroke="rgb(0%,0%,0%)" x1="0.1723" x2="0.1216" y1="1.1751" y2="1.2282" /><line stroke="rgb(0%,0%,0%)" x1="0.1216" x2="0.1216" y1="1.2282" y2="1.2282" /><line stroke="rgb(0%,0%,0%)" x1="0.1216" x2="0.1723" y1="1.2282" y2="1.1751" /><line stroke="rgb(0%,0%,0%)" x1="0.337" x2="0.3304" y1="1.4204" y2="1.4276" /><line stroke="rgb(0%,0%,0%)" x1="0.3304" x2="0.337" y1="1.4276" y2="1.4204" /><line stroke="rgb(0%,0%,0%)" x1="0.337" x2="0.337" y1="1.4204" y2="1.4204" /><line stroke="rgb(0%,0%,0%)" x1="0.337" x2="0.3304" y1="1.4204" y2="1.4276" /><line stroke="rgb(0%,0%,0%)" x1="0.3304" x2="0.3304" y1="1.4276" y2="1.4276" /><line stroke="rgb(0%,0%,0%)" x1="0.3304" x2="0.337" y1="1.4276" y2="1.4204" /><line stroke="rgb(0%,0%,0%)" x1="0.4341" x2="0.4269" y1="1.4237" y2="1.417" /><line stroke="rgb(0%,0%,0%)" x1="0.4269" x2="0.4341" y1="1.417" y2="1.4237" /><line stroke="rgb(0%,0%,0%)" x1="0.4341" x2="0.4341" y1="1.4237" y2="1.4237" /><line stroke="rgb(0%,0%,0%)" x1="0.4269" x2="0.4341" y1="1.417" y2="1.4237" /><line stroke="rgb(0%,0%,0%)" x1="0.4341" x2="0.4269" y1="1.4237" y2="1.417" /><line stroke="rgb(0%,0%,0%)" x1="0.4269" x2="0.4269" y1="1.417" y2="1.417" /><line stroke="rgb(0%,0%,0%)" x1="0.4188" x2="0.4412" y1="1.0265" y2="1.0478" /><line stroke="rgb(0%,0%,0%)" x1="0.4412" x2="0.4188" y1="1.0478" y2="1.0265" /><line stroke="rgb(0%,0%,0%)" x1="0.4188" x2="0.4188" y1="1.0265" y2="1.0265" /><line stroke="rgb(0%,0%,0%)" x1="0.4188" x2="0.4412" y1="1.0265" y2="1.0478" /><line stroke="rgb(0%,0%,0%)" x1="0.4412" x2="0.5736" y1="1.0478" y2="1.1743" /><line stroke="rgb(0%,0%,0%)" x1="0.5736" x2="0.4188" y1="1.1743" y2="1.0265" /><line stroke="rgb(0%,0%,0%)" x1="0.1794" x2="0.326" y1="1.1819" y2="1.0286" /><line stroke="rgb(0%,0%,0%)" x1="0.326" x2="0.326" y1="1.0286" y2="1.0286" /><line stroke="rgb(0%,0%,0%)" x1="0.326" x2="0.1794" y1="1.0286" y2="1.1819" /><line stroke="rgb(0%,0%,0%)" x1="0.326" x2="0.1794" y1="1.0286" y2="1.1819" /><line stroke="rgb(0%,0%,0%)" x1="0.1794" x2="0.1794" y1="1.1819" y2="1.1819" /><line stroke="rgb(0%,0%,0%)" x1="0.1794" x2="0.326" y1="1.1819" y2="1.0286" /><line stroke="rgb(0%,0%,0%)" x1="0.1811" x2="0.337" y1="1.2714" y2="1.4204" /><line stroke="rgb(0%,0%,0%)" x1="0.337" x2="0.337" y1="1.4204" y2="1.4204" /><line stroke="rgb(0%,0%,0%)" x1="0.337" x2="0.1811" y1="1.4204" y2="1.2714" /><line stroke="rgb(0%,0%,0%)" x1="0.337" x2="0.1811" y1="1.4204" y2="1.2714" /><line stroke="rgb(0%,0%,0%)" x1="0.1811" x2="0.1811" y1="1.2714" y2="1.2714" /><line stroke="rgb(0%,0%,0%)" x1="0.1811" x2="0.337" y1="1.2714" y2="1.4204" /><line stroke="rgb(0%,0%,0%)" x1="0.4435" x2="0.5762" y1="1.3996" y2="1.2608" /><line stroke="rgb(0%,0%,0%)" x1="0.5762" x2="0.5761" y1="1.2608" y2="1.2607" /><line stroke="rgb(0%,0%,0%)" x1="0.5761" x2="0.4435" y1="1.2607" y2="1.3996" /><line stroke="rgb(0%,0%,0%)" x1="0.5762" x2="0.4435" y1="1.2608" y2="1.3996" /><line stroke="rgb(0%,0%,0%)" x1="0.4435" x2="0.4269" y1="1.3996" y2="1.417" /><line stroke="rgb(0%,0%,0%)" x1="0.4269" x2="0.5762" y1="1.417" y2="1.2608" /><line stroke="rgb(0%,0%,0%)" x1="0.4269" x2="0.4435" y1="1.417" y2="1.3996" /><line stroke="rgb(0%,0%,0%)" x1="0.4435" x2="0.4435" y1="1.3996" y2="1.3996" /><line stroke="rgb(0%,0%,0%)" x1="0.4435" x2="0.4269" y1="1.3996" y2="1.417" /><line stroke="rgb(0%,0%,0%)" x1="0.4269" x2="0.4435" y1="1.417" y2="1.3996" /><line stroke="rgb(0%,0%,0%)" x1="0.4435" x2="0.4269" y1="1.3996" y2="1.417" /><line stroke="rgb(0%,0%,0%)" x1="0.4269" x2="0.4269" y1="1.417" y2="1.417" /><line stroke="rgb(0%,0%,0%)" x1="0.3826" x2="0.4341" y1="1.4776" y2="1.4237" /><line stroke="rgb(0%,0%,0%)" x1="0.4341" x2="0.4341" y1="1.4237" y2="1.4237" /><line stroke="rgb(0%,0%,0%)" x1="0.4341" x2="0.3826" y1="1.4237" y2="1.4776" /><line stroke="rgb(0%,0%,0%)" x1="0.4341" x2="0.3826" y1="1.4237" y2="1.4776" /><line stroke="rgb(0%,0%,0%)" x1="0.3826" x2="0.3826" y1="1.4776" y2="1.4776" /><line stroke="rgb(0%,0%,0%)" x1="0.3826" x2="0.4341" y1="1.4776" y2="1.4237" /><line stroke="rgb(0%,0%,0%)" x1="0.3304" x2="0.3826" y1="1.4276" y2="1.4776" /><line stroke="rgb(0%,0%,0%)" x1="0.3826" x2="0.3304" y1="1.4776" y2="1.4276" /><line stroke="rgb(0%,0%,0%)" x1="0.3304" x2="0.3304" y1="1.4276" y2="1.4276" /><line stroke="rgb(0%,0%,0%)" x1="0.3826" x2="0.3304" y1="1.4776" y2="1.4276" /><line stroke="rgb(0%,0%,0%)" x1="0.3304" x2="0.3826" y1="1.4276" y2="1.4776" /><line stroke="rgb(0%,0%,0%)" x1="0.3826" x2="0.3826" y1="1.4776" y2="1.4776" /><line stroke="rgb(0%,0%,0%)" x1="0.4435" x2="0.5762" y1="1.3996" y2="1.2608" /><line stroke="rgb(0%,0%,0%)" x1="0.5762" x2="0.5761" y1="1.2608" y2="1.2607" /><line stroke="rgb(0%,0%,0%)" x1="0.5761" x2="0.4435" y1="1.2607" y2="1.3996" /><line stroke="rgb(0%,0%,0%)" x1="0.5762" x2="0.4435" y1="1.2608" y2="1.3996" /><line stroke="rgb(0%,0%,0%)" x1="0.4435" x2="0.4269" y1="1.3996" y2="1.417" /><line stroke="rgb(0%,0%,0%)" x1="0.4269" x2="0.5762" y1="1.417" y2="1.2608" /><line stroke="rgb(0%,0%,0%)" x1="0.4269" x2="0.4435" y1="1.417" y2="1.3996" /><line stroke="rgb(0%,0%,0%)" x1="0.4435" x2="0.4435" y1="1.3996" y2="1.3996" /><line stroke="rgb(0%,0%,0%)" x1="0.4435" x2="0.4269" y1="1.3996" y2="1.417" /><line stroke="rgb(0%,0%,0%)" x1="0.4269" x2="0.4435" y1="1.417" y2="1.3996" /><line stroke="rgb(0%,0%,0%)" x1="0.4435" x2="0.4269" y1="1.3996" y2="1.417" /><line stroke="rgb(0%,0%,0%)" x1="0.4269" x2="0.4269" y1="1.417" y2="1.417" /><line stroke="rgb(0%,0%,0%)" x1="1.1232" x2="4.0877" y1="1.7519" y2="1.189" /><line stroke="rgb(0%,0%,0%)" x1="4.0877" x2="1.2502" y1="1.189" y2="1.8725" /><line stroke="rgb(0%,0%,0%)" x1="1.2502" x2="1.1232" y1="1.8725" y2="1.7519" /><line stroke="rgb(0%,0%,0%)" x1="4.0877" x2="1.1232" y1="1.189" y2="1.7519" /><line stroke="rgb(0%,0%,0%)" x1="1.1232" x2="1.13" y1="1.7519" y2="1.7448" /><line stroke="rgb(0%,0%,0%)" x1="1.13" x2="4.0877" y1="1.7448" y2="1.189" /><line stroke="rgb(0%,0%,0%)" x1="4.0877" x2="1.13" y1="1.189" y2="1.7448" /><line stroke="rgb(0%,0%,0%)" x1="1.13" x2="1.0752" y1="1.7448" y2="1.6928" /><line stroke="rgb(0%,0%,0%)" x1="1.0752" x2="4.0877" y1="1.6928" y2="1.189" /><line stroke="rgb(0%,0%,0%)" x1="4.0877" x2="1.0752" y1="1.189" y2="1.6928" /><line stroke="rgb(0%,0%,0%)" x1="1.0752" x2="0.4435" y1="1.6928" y2="1.3996" /><line stroke="rgb(0%,0%,0%)" x1="0.4435" x2="4.0877" y1="1.3996" y2="1.189" /><line stroke="rgb(0%,0%,0%)" x1="4.0877" x2="0.4435" y1="1.189" y2="1.3996" /><line stroke="rgb(0%,0%,0%)" x1="0.4435" x2="0.5834" y1="1.3996" y2="1.2675" /><line stroke="rgb(0%,0%,0%)" x1="0.5834" x2="4.0877" y1="1.2675" y2="1.189" /><line stroke="rgb(0%,0%,0%)" x1="0.5834" x2="0.4435" y1="1.2675" y2="1.3996" /><line stroke="rgb(0%,0%,0%)" x1="0.4435" x2="0.5761" y1="1.3996" y2="1.2607" /><line stroke="rgb(0%,0%,0%)" x1="0.5761" x2="0.5834" y1="1.2607" y2="1.2675" /><line stroke="rgb(0%,0%,0%)" x1="3.6552" x2="3.6476" y1="0.4207" y2="0.4144" /><line stroke="rgb(0%,0%,0%)" x1="3.6476" x2="3.6552" y1="0.4144" y2="0.4207" /><line stroke="rgb(0%,0%,0%)" x1="3.6552" x2="3.6552" y1="0.4207" y2="0.4207" /><line stroke="rgb(0%,0%,0%)" x1="3.6476" x2="3.6552" y1="0.4144" y2="0.4207" /><line stroke="rgb(0%,0%,0%)" x1="3.6552" x2="3.4831" y1="0.4207" y2="0.2774" /><line stroke="rgb(0%,0%,0%)" x1="3.4831" x2="3.6476" y1="0.2774" y2="0.4144" /><line stroke="rgb(0%,0%,0%)" x1="3.4831" x2="3.6552" y1="0.2774" y2="0.4207" /><line stroke="rgb(0%,0%,0%)" x1="3.6552" x2="3.4756" y1="0.4207" y2="0.2711" /><line stroke="rgb(0%,0%,0%)" x1="3.4756" x2="3.4831" y1="0.2711" y2="0.2774" /><line stroke="rgb(0%,0%,0%)" x1="3.4756" x2="3.6552" y1="0.2711" y2="0.4207" /><line stroke="rgb(0%,0%,0%)" x1="3.6552" x2="3.4756" y1="0.4207" y2="0.2711" /><line stroke="rgb(0%,0%,0%)" x1="3.4756" x2="3.4756" y1="0.2711" y2="0.2711" /><line stroke="rgb(0%,0%,0%)" x1="3.3225" x2="3.33" y1="0.4452" y2="0.4516" /><line stroke="rgb(0%,0%,0%)" x1="3.33" x2="3.3225" y1="0.4516" y2="0.4452" /><line stroke="rgb(0%,0%,0%)" x1="3.3225" x2="3.3225" y1="0.4452" y2="0.4452" /><line stroke="rgb(0%,0%,0%)" x1="3.33" x2="3.3225" y1="0.4516" y2="0.4452" /><line stroke="rgb(0%,0%,0%)" x1="3.3225" x2="3.4894" y1="0.4452" y2="0.5895" /><line stroke="rgb(0%,0%,0%)" x1="3.4894" x2="3.33" y1="0.5895" y2="0.4516" /><line stroke="rgb(0%,0%,0%)" x1="3.4894" x2="3.3225" y1="0.5895" y2="0.4452" /><line stroke="rgb(0%,0%,0%)" x1="3.3225" x2="3.4996" y1="0.4452" y2="0.598" /><line stroke="rgb(0%,0%,0%)" x1="3.4996" x2="3.4894" y1="0.598" y2="0.5895" /><line stroke="rgb(0%,0%,0%)" x1="3.4996" x2="3.3225" y1="0.598" y2="0.4452" /><line stroke="rgb(0%,0%,0%)" x1="3.3225" x2="3.4996" y1="0.4452" y2="0.598" /><line stroke="rgb(0%,0%,0%)" x1="3.4996" x2="3.4996" y1="0.598" y2="0.598" /><line stroke="rgb(0%,0%,0%)" x1="3.3225" x2="3.4756" y1="0.4452" y2="0.2711" /><line stroke="rgb(0%,0%,0%)" x1="3.4756" x2="3.4756" y1="0.2711" y2="0.2711" /><line stroke="rgb(0%,0%,0%)" x1="3.4756" x2="3.3225" y1="0.2711" y2="0.4452" /><line stroke="rgb(0%,0%,0%)" x1="3.4756" x2="3.3225" y1="0.2711" y2="0.4452" /><line stroke="rgb(0%,0%,0%)" x1="3.3225" x2="3.4691" y1="0.4452" y2="0.2785" /><line stroke="rgb(0%,0%,0%)" x1="3.4691" x2="3.4756" y1="0.2785" y2="0.2711" /><line stroke="rgb(0%,0%,0%)" x1="3.4691" x2="3.3225" y1="0.2785" y2="0.4452" /><line stroke="rgb(0%,0%,0%)" x1="3.3225" x2="3.329" y1="0.4452" y2="0.4378" /><line stroke="rgb(0%,0%,0%)" x1="3.329" x2="3.4691" y1="0.4378" y2="0.2785" /><line stroke="rgb(0%,0%,0%)" x1="3.329" x2="3.3225" y1="0.4378" y2="0.4452" /><line stroke="rgb(0%,0%,0%)" x1="3.3225" x2="3.3225" y1="0.4452" y2="0.4452" /><line stroke="rgb(0%,0%,0%)" x1="3.3225" x2="3.329" y1="0.4452" y2="0.4378" /><line stroke="rgb(0%,0%,0%)" x1="1.1035" x2="1.1104" y1="0.6167" y2="0.6097" /><line stroke="rgb(0%,0%,0%)" x1="1.1104" x2="1.1035" y1="0.6097" y2="0.6167" /><line stroke="rgb(0%,0%,0%)" x1="1.1035" x2="1.1035" y1="0.6167" y2="0.6167" /><line stroke="rgb(0%,0%,0%)" x1="1.1104" x2="1.1035" y1="0.6097" y2="0.6167" /><line stroke="rgb(0%,0%,0%)" x1="1.1035" x2="1.2668" y1="0.6167" y2="0.4604" /><line stroke="rgb(0%,0%,0%)" x1="1.2668" x2="1.1104" y1="0.4604" y2="0.6097" /><line stroke="rgb(0%,0%,0%)" x1="1.2668" x2="1.1035" y1="0.4604" y2="0.6167" /><line stroke="rgb(0%,0%,0%)" x1="1.1035" x2="1.274" y1="0.6167" y2="0.4536" /><line stroke="rgb(0%,0%,0%)" x1="1.274" x2="1.2668" y1="0.4536" y2="0.4604" /><line stroke="rgb(0%,0%,0%)" x1="1.274" x2="1.1035" y1="0.4536" y2="0.6167" /><line stroke="rgb(0%,0%,0%)" x1="1.1035" x2="1.274" y1="0.6167" y2="0.4536" /><line stroke="rgb(0%,0%,0%)" x1="1.274" x2="1.274" y1="0.4536" y2="0.4536" /><line stroke="rgb(0%,0%,0%)" x1="4.0784" x2="1.1487" y1="1.0573" y2="0.6476" /><line stroke="rgb(0%,0%,0%)" x1="1.1487" x2="1.2908" y1="0.6476" y2="0.5094" /><line stroke="rgb(0%,0%,0%)" x1="1.2908" x2="4.0784" y1="0.5094" y2="1.0573" /><line stroke="rgb(0%,0%,0%)" x1="1.1487" x2="4.0784" y1="0.6476" y2="1.0573" /><line stroke="rgb(0%,0%,0%)" x1="4.0784" x2="1.1557" y1="1.0573" y2="0.6546" /><line stroke="rgb(0%,0%,0%)" x1="1.1557" x2="1.1487" y1="0.6546" y2="0.6476" /><line stroke="rgb(0%,0%,0%)" x1="1.1557" x2="4.0784" y1="0.6546" y2="1.0573" /><line stroke="rgb(0%,0%,0%)" x1="4.0784" x2="1.1022" y1="1.0573" y2="0.7065" /><line stroke="rgb(0%,0%,0%)" x1="1.1022" x2="1.1557" y1="0.7065" y2="0.6546" /><line stroke="rgb(0%,0%,0%)" x1="1.1022" x2="4.0784" y1="0.7065" y2="1.0573" /><line stroke="rgb(0%,0%,0%)" x1="4.0784" x2="0.4412" y1="1.0573" y2="1.0478" /><line stroke="rgb(0%,0%,0%)" x1="0.4412" x2="1.1022" y1="1.0478" y2="0.7065" /><line stroke="rgb(0%,0%,0%)" x1="0.4412" x2="4.0784" y1="1.0478" y2="1.0573" /><line stroke="rgb(0%,0%,0%)" x1="4.0784" x2="0.5804" y1="1.0573" y2="1.1672" /><line stroke="rgb(0%,0%,0%)" x1="0.5804" x2="0.4412" y1="1.1672" y2="1.0478" /><line stroke="rgb(0%,0%,0%)" x1="0.4412" x2="0.5804" y1="1.0478" y2="1.1672" /><line stroke="rgb(0%,0%,0%)" x1="0.5804" x2="0.5736" y1="1.1672" y2="1.1743" /><line stroke="rgb(0%,0%,0%)" x1="0.5736" x2="0.4412" y1="1.1743" y2="1.0478" /><line stroke="rgb(0%,0%,0%)" x1="1.2908" x2="2.3094" y1="0.5094" y2="0.6988" /><line stroke="rgb(0%,0%,0%)" x1="2.3094" x2="4.0784" y1="0.6988" y2="1.0573" /><line stroke="rgb(0%,0%,0%)" x1="4.0784" x2="1.2908" y1="1.0573" y2="0.5094" /><line stroke="rgb(0%,0%,0%)" x1="4.0784" x2="2.3094" y1="1.0573" y2="0.6988" /><line stroke="rgb(0%,0%,0%)" x1="2.3094" x2="4.1833" y1="0.6988" y2="0.9408" /><line stroke="rgb(0%,0%,0%)" x1="4.1833" x2="4.0784" y1="0.9408" y2="1.0573" /><line stroke="rgb(0%,0%,0%)" x1="1.1081" x2="1.101" y1="0.2889" y2="0.2957" /><line stroke="rgb(0%,0%,0%)" x1="1.101" x2="1.1081" y1="0.2957" y2="0.2889" /><line stroke="rgb(0%,0%,0%)" x1="1.1081" x2="1.1081" y1="0.2889" y2="0.2889" /><line stroke="rgb(0%,0%,0%)" x1="0.9404" x2="1.101" y1="0.449" y2="0.2957" /><line stroke="rgb(0%,0%,0%)" x1="1.101" x2="0.9404" y1="0.2957" y2="0.449" /><line stroke="rgb(0%,0%,0%)" x1="0.9404" x2="0.9404" y1="0.449" y2="0.449" /><line stroke="rgb(0%,0%,0%)" x1="0.9404" x2="1.101" y1="0.449" y2="0.2957" /><line stroke="rgb(0%,0%,0%)" x1="1.101" x2="1.1081" y1="0.2957" y2="0.2889" /><line stroke="rgb(0%,0%,0%)" x1="1.1081" x2="0.9404" y1="0.2889" y2="0.449" /><line stroke="rgb(0%,0%,0%)" x1="1.1035" x2="0.9404" y1="0.6167" y2="0.449" /><line stroke="rgb(0%,0%,0%)" x1="0.9404" x2="0.9404" y1="0.449" y2="0.449" /><line stroke="rgb(0%,0%,0%)" x1="0.9404" x2="1.1035" y1="0.449" y2="0.6167" /><line stroke="rgb(0%,0%,0%)" x1="0.9404" x2="1.1035" y1="0.449" y2="0.6167" /><line stroke="rgb(0%,0%,0%)" x1="1.1035" x2="0.9473" y1="0.6167" y2="0.456" /><line stroke="rgb(0%,0%,0%)" x1="0.9473" x2="0.9404" y1="0.456" y2="0.449" /><line stroke="rgb(0%,0%,0%)" x1="0.9473" x2="1.1035" y1="0.456" y2="0.6167" /><line stroke="rgb(0%,0%,0%)" x1="1.1035" x2="0.9473" y1="0.6167" y2="0.456" /><line stroke="rgb(0%,0%,0%)" x1="0.9473" x2="0.9473" y1="0.456" y2="0.456" /><line stroke="rgb(0%,0%,0%)" x1="0.9473" x2="1.1035" y1="0.456" y2="0.6167" /><line stroke="rgb(0%,0%,0%)" x1="1.1035" x2="1.0966" y1="0.6167" y2="0.6096" /><line stroke="rgb(0%,0%,0%)" x1="1.0966" x2="0.9473" y1="0.6096" y2="0.456" /><line stroke="rgb(0%,0%,0%)" x1="1.0966" x2="1.1035" y1="0.6096" y2="0.6167" /><line stroke="rgb(0%,0%,0%)" x1="1.1035" x2="1.1035" y1="0.6167" y2="0.6167" /><line stroke="rgb(0%,0%,0%)" x1="1.1035" x2="1.0966" y1="0.6167" y2="0.6096" /><line stroke="rgb(0%,0%,0%)" x1="1.274" x2="1.267" y1="0.4536" y2="0.4467" /><line stroke="rgb(0%,0%,0%)" x1="1.267" x2="1.274" y1="0.4467" y2="0.4536" /><line stroke="rgb(0%,0%,0%)" x1="1.274" x2="1.274" y1="0.4536" y2="0.4536" /><line stroke="rgb(0%,0%,0%)" x1="1.267" x2="1.274" y1="0.4467" y2="0.4536" /><line stroke="rgb(0%,0%,0%)" x1="1.274" x2="1.1151" y1="0.4536" y2="0.2959" /><line stroke="rgb(0%,0%,0%)" x1="1.1151" x2="1.267" y1="0.2959" y2="0.4467" /><line stroke="rgb(0%,0%,0%)" x1="1.1151" x2="1.274" y1="0.2959" y2="0.4536" /><line stroke="rgb(0%,0%,0%)" x1="1.274" x2="1.1081" y1="0.4536" y2="0.2889" /><line stroke="rgb(0%,0%,0%)" x1="1.1081" x2="1.1151" y1="0.2889" y2="0.2959" /><line stroke="rgb(0%,0%,0%)" x1="1.1081" x2="1.274" y1="0.2889" y2="0.4536" /><line stroke="rgb(0%,0%,0%)" x1="1.274" x2="1.1081" y1="0.4536" y2="0.2889" /><line stroke="rgb(0%,0%,0%)" x1="1.1081" x2="1.1081" y1="0.2889" y2="0.2889" /><line stroke="rgb(0%,0%,0%)" x1="1.25" x2="1.2427" y1="1.9436" y2="1.937" /><line stroke="rgb(0%,0%,0%)" x1="1.2427" x2="1.25" y1="1.937" y2="1.9436" /><line stroke="rgb(0%,0%,0%)" x1="1.25" x2="1.25" y1="1.9436" y2="1.9436" /><line stroke="rgb(0%,0%,0%)" x1="1.2427" x2="1.25" y1="1.937" y2="1.9436" /><line stroke="rgb(0%,0%,0%)" x1="1.25" x2="1.0849" y1="1.9436" y2="1.7923" /><line stroke="rgb(0%,0%,0%)" x1="1.0849" x2="1.2427" y1="1.7923" y2="1.937" /><line stroke="rgb(0%,0%,0%)" x1="1.0849" x2="1.25" y1="1.7923" y2="1.9436" /><line stroke="rgb(0%,0%,0%)" x1="1.25" x2="1.0776" y1="1.9436" y2="1.7857" /><line stroke="rgb(0%,0%,0%)" x1="1.0776" x2="1.0849" y1="1.7857" y2="1.7923" /><line stroke="rgb(0%,0%,0%)" x1="1.0776" x2="1.25" y1="1.7857" y2="1.9436" /><line stroke="rgb(0%,0%,0%)" x1="1.25" x2="1.0776" y1="1.9436" y2="1.7857" /><line stroke="rgb(0%,0%,0%)" x1="1.0776" x2="1.0776" y1="1.7857" y2="1.7857" /><line stroke="rgb(0%,0%,0%)" x1="0.9165" x2="0.9237" y1="1.9523" y2="1.9591" /><line stroke="rgb(0%,0%,0%)" x1="0.9237" x2="0.9165" y1="1.9591" y2="1.9523" /><line stroke="rgb(0%,0%,0%)" x1="0.9165" x2="0.9165" y1="1.9523" y2="1.9523" /><line stroke="rgb(0%,0%,0%)" x1="0.9237" x2="0.9165" y1="1.9591" y2="1.9523" /><line stroke="rgb(0%,0%,0%)" x1="0.9165" x2="1.0789" y1="1.9523" y2="2.1067" /><line stroke="rgb(0%,0%,0%)" x1="1.0789" x2="0.9237" y1="2.1067" y2="1.9591" /><line stroke="rgb(0%,0%,0%)" x1="1.0789" x2="0.9165" y1="2.1067" y2="1.9523" /><line stroke="rgb(0%,0%,0%)" x1="0.9165" x2="1.0862" y1="1.9523" y2="2.1133" /><line stroke="rgb(0%,0%,0%)" x1="1.0862" x2="1.0789" y1="2.1133" y2="2.1067" /><line stroke="rgb(0%,0%,0%)" x1="1.0862" x2="0.9165" y1="2.1133" y2="1.9523" /><line stroke="rgb(0%,0%,0%)" x1="0.9165" x2="1.0862" y1="1.9523" y2="2.1133" /><line stroke="rgb(0%,0%,0%)" x1="1.0862" x2="1.0862" y1="2.1133" y2="2.1133" /><line stroke="rgb(0%,0%,0%)" x1="0.9165" x2="1.0776" y1="1.9523" y2="1.7857" /><line stroke="rgb(0%,0%,0%)" x1="1.0776" x2="1.0776" y1="1.7857" y2="1.7857" /><line stroke="rgb(0%,0%,0%)" x1="1.0776" x2="0.9165" y1="1.7857" y2="1.9523" /><line stroke="rgb(0%,0%,0%)" x1="1.0776" x2="0.9165" y1="1.7857" y2="1.9523" /><line stroke="rgb(0%,0%,0%)" x1="0.9165" x2="1.0708" y1="1.9523" y2="1.7927" /><line stroke="rgb(0%,0%,0%)" x1="1.0708" x2="1.0776" y1="1.7927" y2="1.7857" /><line stroke="rgb(0%,0%,0%)" x1="1.0708" x2="0.9165" y1="1.7927" y2="1.9523" /><line stroke="rgb(0%,0%,0%)" x1="0.9165" x2="1.0708" y1="1.9523" y2="1.7927" /><line stroke="rgb(0%,0%,0%)" x1="1.0708" x2="1.0708" y1="1.7927" y2="1.7927" /><line stroke="rgb(0%,0%,0%)" x1="1.0708" x2="0.9165" y1="1.7927" y2="1.9523" /><line stroke="rgb(0%,0%,0%)" x1="0.9165" x2="0.9234" y1="1.9523" y2="1.9452" /><line stroke="rgb(0%,0%,0%)" x1="0.9234" x2="1.0708" y1="1.9452" y2="1.7927" /><line stroke="rgb(0%,0%,0%)" x1="0.9234" x2="0.9165" y1="1.9452" y2="1.9523" /><line stroke="rgb(0%,0%,0%)" x1="0.9165" x2="0.9165" y1="1.9523" y2="1.9523" /><line stroke="rgb(0%,0%,0%)" x1="0.9165" x2="0.9234" y1="1.9523" y2="1.9452" /><line stroke="rgb(0%,0%,0%)" x1="1.2431" x2="1.25" y1="1.9507" y2="1.9436" /><line stroke="rgb(0%,0%,0%)" x1="1.25" x2="1.25" y1="1.9436" y2="1.9436" /><line stroke="rgb(0%,0%,0%)" x1="1.25" x2="1.2431" y1="1.9436" y2="1.9507" /><line stroke="rgb(0%,0%,0%)" x1="1.25" x2="1.2431" y1="1.9436" y2="1.9507" /><line stroke="rgb(0%,0%,0%)" x1="1.2431" x2="1.0862" y1="1.9507" y2="2.1133" /><line stroke="rgb(0%,0%,0%)" x1="1.0862" x2="1.25" y1="2.1133" y2="1.9436" /><line stroke="rgb(0%,0%,0%)" x1="1.0862" x2="1.2431" y1="2.1133" y2="1.9507" /><line stroke="rgb(0%,0%,0%)" x1="1.2431" x2="1.2431" y1="1.9507" y2="1.9507" /><line stroke="rgb(0%,0%,0%)" x1="1.2431" x2="1.0862" y1="1.9507" y2="2.1133" /><line stroke="rgb(0%,0%,0%)" x1="1.0862" x2="1.2431" y1="2.1133" y2="1.9507" /><line stroke="rgb(0%,0%,0%)" x1="1.2431" x2="1.0928" y1="1.9507" y2="2.1061" /><line stroke="rgb(0%,0%,0%)" x1="1.0928" x2="1.0862" y1="2.1061" y2="2.1133" /><line stroke="rgb(0%,0%,0%)" x1="1.0862" x2="1.0928" y1="2.1133" y2="2.1061" /><line stroke="rgb(0%,0%,0%)" x1="1.0928" x2="1.0862" y1="2.1061" y2="2.1133" /><line stroke="rgb(0%,0%,0%)" x1="1.0862" x2="1.0862" y1="2.1133" y2="2.1133" /><line stroke="rgb(0%,0%,0%)" x1="3.6267" x2="3.6194" y1="1.9314" y2="1.9247" /><line stroke="rgb(0%,0%,0%)" x1="3.6194" x2="3.6267" y1="1.9247" y2="1.9314" /><line stroke="rgb(0%,0%,0%)" x1="3.6267" x2="3.6267" y1="1.9314" y2="1.9314" /><line stroke="rgb(0%,0%,0%)" x1="3.6194" x2="3.6267" y1="1.9247" y2="1.9314" /><line stroke="rgb(0%,0%,0%)" x1="3.6267" x2="3.4616" y1="1.9314" y2="1.7801" /><line stroke="rgb(0%,0%,0%)" x1="3.4616" x2="3.6194" y1="1.7801" y2="1.9247" /><line stroke="rgb(0%,0%,0%)" x1="3.4616" x2="3.6267" y1="1.7801" y2="1.9314" /><line stroke="rgb(0%,0%,0%)" x1="3.6267" x2="3.4543" y1="1.9314" y2="1.7734" /><line stroke="rgb(0%,0%,0%)" x1="3.4543" x2="3.4616" y1="1.7734" y2="1.7801" /><line stroke="rgb(0%,0%,0%)" x1="3.4543" x2="3.6267" y1="1.7734" y2="1.9314" /><line stroke="rgb(0%,0%,0%)" x1="3.6267" x2="3.4543" y1="1.9314" y2="1.7734" /><line stroke="rgb(0%,0%,0%)" x1="3.4543" x2="3.4543" y1="1.7734" y2="1.7734" /><line stroke="rgb(0%,0%,0%)" x1="1.2852" x2="1.2502" y1="1.8922" y2="1.8725" /><line stroke="rgb(0%,0%,0%)" x1="1.2502" x2="4.0877" y1="1.8725" y2="1.189" /><line stroke="rgb(0%,0%,0%)" x1="4.0877" x2="1.2852" y1="1.189" y2="1.8922" /><line stroke="rgb(0%,0%,0%)" x1="1.2852" x2="4.0877" y1="1.8922" y2="1.189" /><line stroke="rgb(0%,0%,0%)" x1="4.0877" x2="2.2198" y1="1.189" y2="1.6793" /><line stroke="rgb(0%,0%,0%)" x1="2.2198" x2="1.2852" y1="1.6793" y2="1.8922" /><line stroke="rgb(0%,0%,0%)" x1="2.2198" x2="4.0877" y1="1.6793" y2="1.189" /><line stroke="rgb(0%,0%,0%)" x1="4.0877" x2="2.2679" y1="1.189" y2="1.7274" /><line stroke="rgb(0%,0%,0%)" x1="2.2679" x2="2.2198" y1="1.7274" y2="1.6793" /><line stroke="rgb(0%,0%,0%)" x1="2.2679" x2="4.0877" y1="1.7274" y2="1.189" /><line stroke="rgb(0%,0%,0%)" x1="4.0877" x2="2.4188" y1="1.189" y2="1.8783" /><line stroke="rgb(0%,0%,0%)" x1="2.4188" x2="2.2679" y1="1.8783" y2="1.7274" /><line stroke="rgb(0%,0%,0%)" x1="2.4188" x2="4.0877" y1="1.8783" y2="1.189" /><line stroke="rgb(0%,0%,0%)" x1="4.0877" x2="2.4674" y1="1.189" y2="1.9268" /><line stroke="rgb(0%,0%,0%)" x1="2.4674" x2="2.4188" y1="1.9268" y2="1.8783" /><line stroke="rgb(0%,0%,0%)" x1="2.4674" x2="4.0877" y1="1.9268" y2="1.189" /><line stroke="rgb(0%,0%,0%)" x1="4.0877" x2="3.0185" y1="1.189" y2="1.9442" /><line stroke="rgb(0%,0%,0%)" x1="3.0185" x2="2.4674" y1="1.9442" y2="1.9268" /><line stroke="rgb(0%,0%,0%)" x1="3.0185" x2="4.0877" y1="1.9442" y2="1.189" /><line stroke="rgb(0%,0%,0%)" x1="4.0877" x2="3.4519" y1="1.189" y2="1.6805" /><line stroke="rgb(0%,0%,0%)" x1="3.4519" x2="3.0185" y1="1.6805" y2="1.9442" /><line stroke="rgb(0%,0%,0%)" x1="3.4519" x2="4.0877" y1="1.6805" y2="1.189" /><line stroke="rgb(0%,0%,0%)" x1="4.0877" x2="3.5067" y1="1.189" y2="1.7325" /><line stroke="rgb(0%,0%,0%)" x1="3.5067" x2="3.4519" y1="1.7325" y2="1.6805" /><line stroke="rgb(0%,0%,0%)" x1="3.5067" x2="4.0877" y1="1.7325" y2="1.189" /><line stroke="rgb(0%,0%,0%)" x1="4.0877" x2="3.6294" y1="1.189" y2="1.8626" /><line stroke="rgb(0%,0%,0%)" x1="3.6294" x2="3.5067" y1="1.8626" y2="1.7325" /><line stroke="rgb(0%,0%,0%)" x1="3.6294" x2="4.0877" y1="1.8626" y2="1.189" /><line stroke="rgb(0%,0%,0%)" x1="4.0877" x2="3.6509" y1="1.189" y2="1.8415" /><line stroke="rgb(0%,0%,0%)" x1="3.6509" x2="3.6294" y1="1.8415" y2="1.8626" /><line stroke="rgb(0%,0%,0%)" x1="3.6509" x2="4.0877" y1="1.8415" y2="1.189" /><line stroke="rgb(0%,0%,0%)" x1="4.0877" x2="4.205" y1="1.189" y2="1.2946" /><line stroke="rgb(0%,0%,0%)" x1="4.205" x2="3.6509" y1="1.2946" y2="1.8415" /><line stroke="rgb(0%,0%,0%)" x1="3.2932" x2="3.3003" y1="1.94" y2="1.9469" /><line stroke="rgb(0%,0%,0%)" x1="3.3003" x2="3.2932" y1="1.9469" y2="1.94" /><line stroke="rgb(0%,0%,0%)" x1="3.2932" x2="3.2932" y1="1.94" y2="1.94" /><line stroke="rgb(0%,0%,0%)" x1="3.3003" x2="3.2932" y1="1.9469" y2="1.94" /><line stroke="rgb(0%,0%,0%)" x1="3.2932" x2="3.4556" y1="1.94" y2="2.0944" /><line stroke="rgb(0%,0%,0%)" x1="3.4556" x2="3.3003" y1="2.0944" y2="1.9469" /><line stroke="rgb(0%,0%,0%)" x1="3.4556" x2="3.2932" y1="2.0944" y2="1.94" /><line stroke="rgb(0%,0%,0%)" x1="3.2932" x2="3.4628" y1="1.94" y2="2.1011" /><line stroke="rgb(0%,0%,0%)" x1="3.4628" x2="3.4556" y1="2.1011" y2="2.0944" /><line stroke="rgb(0%,0%,0%)" x1="3.4628" x2="3.2932" y1="2.1011" y2="1.94" /><line stroke="rgb(0%,0%,0%)" x1="3.2932" x2="3.4628" y1="1.94" y2="2.1011" /><line stroke="rgb(0%,0%,0%)" x1="3.4628" x2="3.4628" y1="2.1011" y2="2.1011" /><line stroke="rgb(0%,0%,0%)" x1="3.2932" x2="3.4543" y1="1.94" y2="1.7734" /><line stroke="rgb(0%,0%,0%)" x1="3.4543" x2="3.4543" y1="1.7734" y2="1.7734" /><line stroke="rgb(0%,0%,0%)" x1="3.4543" x2="3.2932" y1="1.7734" y2="1.94" /><line stroke="rgb(0%,0%,0%)" x1="3.4543" x2="3.2932" y1="1.7734" y2="1.94" /><line stroke="rgb(0%,0%,0%)" x1="3.2932" x2="3.4476" y1="1.94" y2="1.7805" /><line stroke="rgb(0%,0%,0%)" x1="3.4476" x2="3.4543" y1="1.7805" y2="1.7734" /><line stroke="rgb(0%,0%,0%)" x1="3.4476" x2="3.2932" y1="1.7805" y2="1.94" /><line stroke="rgb(0%,0%,0%)" x1="3.2932" x2="3.3001" y1="1.94" y2="1.9329" /><line stroke="rgb(0%,0%,0%)" x1="3.3001" x2="3.4476" y1="1.9329" y2="1.7805" /><line stroke="rgb(0%,0%,0%)" x1="3.3001" x2="3.2932" y1="1.9329" y2="1.94" /><line stroke="rgb(0%,0%,0%)" x1="3.2932" x2="3.2932" y1="1.94" y2="1.94" /><line stroke="rgb(0%,0%,0%)" x1="3.2932" x2="3.3001" y1="1.94" y2="1.9329" /></g></svg>