<?xml version="1.0" encoding="utf-8" ?>
<svg baseProfile="tiny" height="100%" version="1.2" width="100%" xmlns="http://www.w3.org/2000/svg" xmlns:ev="http://www.w3.org/2001/xml-events" xmlns:xlink="http://www.w3.org/1999/xlink"><defs /><g id="border"><line stroke="rgb(0%,0%,0%)" stroke-width="0.25mm" x1="98.47125244140625mm" x2="98.47125244140625mm" y1="131.9980926513672mm" y2="131.9980926513672mm" /><line stroke="rgb(0%,0%,0%)" stroke-width="0.25mm" x1="98.47125244140625mm" x2="98.47125244140625mm" y1="131.9980926513672mm" y2="150.18820190429688mm" /><line stroke="rgb(0%,0%,0%)" stroke-width="0.25mm" x1="80.34622192382812mm" x2="80.34622192382812mm" y1="103.74006652832031mm" y2="103.74006652832031mm" /><line stroke="rgb(0%,0%,0%)" stroke-width="0.25mm" x1="92.70404815673828mm" x2="80.34622192382812mm" y1="90.15327453613281mm" y2="103.74006652832031mm" /><line stroke="rgb(0%,0%,0%)" stroke-width="0.25mm" x1="92.70404815673828mm" x2="92.70404815673828mm" y1="90.15327453613281mm" y2="90.15327453613281mm" /><line stroke="rgb(0%,0%,0%)" stroke-width="0.25mm" x1="80.34622192382812mm" x2="80.34622192382812mm" y1="103.74006652832031mm" y2="103.74006652832031mm" /><line stroke="rgb(0%,0%,0%)" stroke-width="0.25mm" x1="80.34622192382812mm" x2="80.34622192382812mm" y1="103.74006652832031mm" y2="103.74006652832031mm" /><line stroke="rgb(0%,0%,0%)" stroke-width="0.25mm" x1="80.34622192382812mm" x2="80.34622192382812mm" y1="103.74006652832031mm" y2="103.74006652832031mm" /><line stroke="rgb(0%,0%,0%)" stroke-width="0.25mm" x1="80.34622192382812mm" x2="80.34622192382812mm" y1="103.74006652832031mm" y2="103.74006652832031mm" /><line stroke="rgb(0%,0%,0%)" stroke-width="0.25mm" x1="80.34622192382812mm" x2="80.34622192382812mm" y1="103.74006652832031mm" y2="103.74006652832031mm" /><line stroke="rgb(0%,0%,0%)" stroke-width="0.25mm" x1="80.34622192382812mm" x2="80.34622192382812mm" y1="103.74006652832031mm" y2="103.74006652832031mm" /><line stroke="rgb(0%,0%,0%)" stroke-width="0.25mm" x1="80.34622192382812mm" x2="80.34622192382812mm" y1="103.74006652832031mm" y2="103.74006652832031mm" /><line stroke="rgb(0%,0%,0%)" stroke-width="0.25mm" x1="80.34622192382812mm" x2="80.34622192382812mm" y1="103.74006652832031mm" y2="103.74006652832031mm" /><line stroke="rgb(0%,0%,0%)" stroke-width="0.25mm" x1="80.34622192382812mm" x2="80.34622192382812mm" y1="103.74006652832031mm" y2="103.74006652832031mm" /><line stroke="rgb(0%,0%,0%)" stroke-width="0.25mm" x1="80.34622192382812mm" x2="80.34622192382812mm" y1="103.74006652832031mm" y2="103.74006652832031mm" /><line stroke="rgb(0%,0%,0%)" stroke-width="0.25mm" x1="80.34622192382812mm" x2="80.34622192382812mm" y1="103.74006652832031mm" y2="103.74006652832031mm" /><line stroke="rgb(0%,0%,0%)" stroke-width="0.25mm" x1="80.34622192382812mm" x2="80.34622192382812mm" y1="103.74006652832031mm" y2="103.74006652832031mm" /><line stroke="rgb(0%,0%,0%)" stroke-width="0.25mm" x1="158.5354461669922mm" x2="162.65109252929688mm" y1="83.10111236572266mm" y2="86.65363311767578mm" /><line stroke="rgb(0%,0%,0%)" stroke-width="0.25mm" x1="158.5354461669922mm" x2="158.5354461669922mm" y1="83.10111236572266mm" y2="83.10111236572266mm" /><line stroke="rgb(0%,0%,0%)" stroke-width="0.25mm" x1="162.0545654296875mm" x2="162.0545654296875mm" y1="127.25112915039062mm" y2="127.25112915039062mm" /><line stroke="rgb(0%,0%,0%)" stroke-width="0.25mm" x1="162.0545654296875mm" x2="158.27476501464844mm" y1="127.25112915039062mm" y2="131.23255920410156mm" /><line stroke="rgb(0%,0%,0%)" stroke-width="0.25mm" x1="80.40496826171875mm" x2="80.40496826171875mm" y1="112.6760482788086mm" y2="112.6760482788086mm" /><line stroke="rgb(0%,0%,0%)" stroke-width="0.25mm" x1="80.40496826171875mm" x2="92.04573059082031mm" y1="112.6760482788086mm" y2="125.12594604492188mm" /><line stroke="rgb(0%,0%,0%)" stroke-width="0.25mm" x1="92.04573059082031mm" x2="92.04573059082031mm" y1="125.12594604492188mm" y2="125.12594604492188mm" /><line stroke="rgb(0%,0%,0%)" stroke-width="0.25mm" x1="92.04573059082031mm" x2="92.04573059082031mm" y1="125.12594604492188mm" y2="125.12594604492188mm" /><line stroke="rgb(0%,0%,0%)" stroke-width="0.25mm" x1="92.04573059082031mm" x2="92.04573059082031mm" y1="125.12594604492188mm" y2="125.12594604492188mm" /><line stroke="rgb(0%,0%,0%)" stroke-width="0.25mm" x1="92.04573059082031mm" x2="92.04573059082031mm" y1="125.12594604492188mm" y2="125.12594604492188mm" /><line stroke="rgb(0%,0%,0%)" stroke-width="0.25mm" x1="92.04573059082031mm" x2="92.04573059082031mm" y1="125.12594604492188mm" y2="125.12594604492188mm" /><line stroke="rgb(0%,0%,0%)" stroke-width="0.25mm" x1="92.04573059082031mm" x2="92.04573059082031mm" y1="125.12594604492188mm" y2="125.12594604492188mm" /><line stroke="rgb(0%,0%,0%)" stroke-width="0.25mm" x1="92.04573059082031mm" x2="92.04573059082031mm" y1="125.12594604492188mm" y2="125.12594604492188mm" /><line stroke="rgb(0%,0%,0%)" stroke-width="0.25mm" x1="92.04573059082031mm" x2="92.04573059082031mm" y1="125.12594604492188mm" y2="125.12594604492188mm" /><line stroke="rgb(0%,0%,0%)" stroke-width="0.25mm" x1="92.04573059082031mm" x2="92.04573059082031mm" y1="125.12594604492188mm" y2="125.12594604492188mm" /><line stroke="rgb(0%,0%,0%)" stroke-width="0.25mm" x1="92.04573059082031mm" x2="92.04573059082031mm" y1="125.12594604492188mm" y2="125.12594604492188mm" /><line stroke="rgb(0%,0%,0%)" stroke-width="0.25mm" x1="92.04573059082031mm" x2="92.04573059082031mm" y1="125.12594604492188mm" y2="125.12594604492188mm" /><line stroke="rgb(0%,0%,0%)" stroke-width="0.25mm" x1="92.04573059082031mm" x2="92.04573059082031mm" y1="125.12594604492188mm" y2="125.12594604492188mm" /><line stroke="rgb(0%,0%,0%)" stroke-width="0.25mm" x1="80.40496826171875mm" x2="80.40496826171875mm" y1="112.6760482788086mm" y2="112.6760482788086mm" /><line stroke="rgb(0%,0%,0%)" stroke-width="0.25mm" x1="175.3958740234375mm" x2="162.2623748779297mm" y1="101.0213623046875mm" y2="89.49796295166016mm" /><line stroke="rgb(0%,0%,0%)" stroke-width="0.25mm" x1="175.3958740234375mm" x2="175.3958740234375mm" y1="101.0213623046875mm" y2="101.0213623046875mm" /><line stroke="rgb(0%,0%,0%)" stroke-width="0.25mm" x1="162.2623748779297mm" x2="162.2623748779297mm" y1="89.49796295166016mm" y2="89.49796295166016mm" /><line stroke="rgb(0%,0%,0%)" stroke-width="0.25mm" x1="162.2623748779297mm" x2="162.2623748779297mm" y1="89.49796295166016mm" y2="89.49796295166016mm" /><line stroke="rgb(0%,0%,0%)" stroke-width="0.25mm" x1="162.2623748779297mm" x2="162.2623748779297mm" y1="89.49796295166016mm" y2="89.49796295166016mm" /><line stroke="rgb(0%,0%,0%)" stroke-width="0.25mm" x1="161.8721923828125mm" x2="161.32818603515625mm" y1="123.89944458007812mm" y2="124.43628692626953mm" /><line stroke="rgb(0%,0%,0%)" stroke-width="0.25mm" x1="161.8721923828125mm" x2="161.8721923828125mm" y1="123.89944458007812mm" y2="123.89944458007812mm" /><line stroke="rgb(0%,0%,0%)" stroke-width="0.25mm" x1="161.8721923828125mm" x2="161.8721923828125mm" y1="123.89944458007812mm" y2="123.89944458007812mm" /><line stroke="rgb(0%,0%,0%)" stroke-width="0.25mm" x1="161.8721923828125mm" x2="161.8721923828125mm" y1="123.89944458007812mm" y2="123.89944458007812mm" /><line stroke="rgb(0%,0%,0%)" stroke-width="0.25mm" x1="175.94772338867188mm" x2="175.94772338867188mm" y1="110.00912475585938mm" y2="110.00912475585938mm" /><line stroke="rgb(0%,0%,0%)" stroke-width="0.25mm" x1="175.94772338867188mm" x2="161.8721923828125mm" y1="110.00912475585938mm" y2="123.89944458007812mm" /><line stroke="rgb(0%,0%,0%)" stroke-width="0.25mm" x1="161.8721923828125mm" x2="161.8721923828125mm" y1="123.89944458007812mm" y2="123.89944458007812mm" /><line stroke="rgb(0%,0%,0%)" stroke-width="0.25mm" x1="161.8721923828125mm" x2="161.8721923828125mm" y1="123.89944458007812mm" y2="123.89944458007812mm" /><line stroke="rgb(0%,0%,0%)" stroke-width="0.25mm" x1="161.8721923828125mm" x2="161.8721923828125mm" y1="123.89944458007812mm" y2="123.89944458007812mm" /><line stroke="rgb(0%,0%,0%)" stroke-width="0.25mm" x1="98.47125244140625mm" x2="97.9771728515625mm" y1="131.9980926513672mm" y2="131.4696807861328mm" /><line stroke="rgb(0%,0%,0%)" stroke-width="0.25mm" x1="97.9771728515625mm" x2="97.9771728515625mm" y1="131.4696807861328mm" y2="131.4696807861328mm" /><line stroke="rgb(0%,0%,0%)" stroke-width="0.25mm" x1="97.9771728515625mm" x2="97.9771728515625mm" y1="131.4696807861328mm" y2="131.4696807861328mm" /><line stroke="rgb(0%,0%,0%)" stroke-width="0.25mm" x1="182.5745086093918mm" x2="183.77032470703125mm" y1="106.37857062060087mm" y2="105.05072021484375mm" /><line stroke="rgb(0%,0%,0%)" stroke-width="0.25mm" x1="182.5745086669922mm" x2="182.5745086669922mm" y1="106.37857055664062mm" y2="106.37857055664062mm" /><line stroke="rgb(0%,0%,0%)" stroke-width="0.25mm" x1="182.5745086669922mm" x2="182.38580322265625mm" y1="106.37857055664062mm" y2="106.21452331542969mm" /><line stroke="rgb(0%,0%,0%)" stroke-width="0.25mm" x1="182.57450867762316mm" x2="182.5745086669922mm" y1="106.37857056588243mm" y2="106.37857055664062mm" /><line stroke="rgb(0%,0%,0%)" stroke-width="0.25mm" x1="182.42213439941406mm" x2="182.42213439941406mm" y1="103.83660888671875mm" y2="103.83660888671875mm" /><line stroke="rgb(0%,0%,0%)" stroke-width="0.25mm" x1="182.42213440883896mm" x2="182.2548370361328mm" y1="103.83660887625327mm" y2="104.02237701416016mm" /><line stroke="rgb(0%,0%,0%)" stroke-width="0.25mm" x1="182.42213439941406mm" x2="183.77032470703125mm" y1="103.83660888671875mm" y2="105.05072021484375mm" /><line stroke="rgb(0%,0%,0%)" stroke-width="0.25mm" x1="182.42213433447407mm" x2="182.42213439941406mm" y1="103.83660882823712mm" y2="103.83660888671875mm" /><line stroke="rgb(0%,0%,0%)" stroke-width="0.25mm" x1="178.90072632898946mm" x2="178.7120361328125mm" y1="110.45802308053086mm" y2="110.29397583007812mm" /><line stroke="rgb(0%,0%,0%)" stroke-width="0.25mm" x1="178.90072631835938mm" x2="178.90072631835938mm" y1="110.45802307128906mm" y2="110.45802307128906mm" /><line stroke="rgb(0%,0%,0%)" stroke-width="0.25mm" x1="177.63423150637794mm" x2="178.90072631835938mm" y1="111.86436469176448mm" y2="110.45802307128906mm" /><line stroke="rgb(0%,0%,0%)" stroke-width="0.25mm" x1="177.6342315673828mm" x2="177.6342315673828mm" y1="111.86436462402344mm" y2="111.86436462402344mm" /><line stroke="rgb(0%,0%,0%)" stroke-width="0.25mm" x1="176.95660400390625mm" x2="176.95660400390625mm" y1="98.91472625732422mm" y2="98.91472625732422mm" /><line stroke="rgb(0%,0%,0%)" stroke-width="0.25mm" x1="176.95660406578205mm" x2="175.67291259765625mm" y1="98.91472618861603mm" y2="100.34016418457031mm" /><line stroke="rgb(0%,0%,0%)" stroke-width="0.25mm" x1="176.95660400390625mm" x2="178.3820343017578mm" y1="98.91472625732422mm" y2="100.19841766357422mm" /><line stroke="rgb(0%,0%,0%)" stroke-width="0.25mm" x1="176.95660393519842mm" x2="176.95660400390625mm" y1="98.91472619544842mm" y2="98.91472625732422mm" /><line stroke="rgb(0%,0%,0%)" stroke-width="0.25mm" x1="175.94772341606463mm" x2="176.4339599609375mm" y1="110.00912478052841mm" y2="110.44701385498047mm" /><line stroke="rgb(0%,0%,0%)" stroke-width="0.25mm" x1="175.94772338867188mm" x2="175.94772338867188mm" y1="110.00912475585938mm" y2="110.00912475585938mm" /><line stroke="rgb(0%,0%,0%)" stroke-width="0.25mm" x1="175.3958740234375mm" x2="175.85867309570312mm" y1="101.0213623046875mm" y2="100.50746154785156mm" /><line stroke="rgb(0%,0%,0%)" stroke-width="0.25mm" x1="175.39587399736513mm" x2="175.3958740234375mm" y1="101.02136233363875mm" y2="101.0213623046875mm" /><line stroke="rgb(0%,0%,0%)" stroke-width="0.25mm" x1="175.85867309570312mm" x2="175.67291259765625mm" y1="100.50746154785156mm" y2="100.34016418457031mm" /><line stroke="rgb(0%,0%,0%)" stroke-width="0.25mm" x1="175.85867310465704mm" x2="175.85867309570312mm" y1="100.50746155591554mm" y2="100.50746154785156mm" /><line stroke="rgb(0%,0%,0%)" stroke-width="0.25mm" x1="178.21481322436156mm" x2="178.3820343017578mm" y1="100.38410950602093mm" y2="100.19841766357422mm" /><line stroke="rgb(0%,0%,0%)" stroke-width="0.25mm" x1="178.21481323242188mm" x2="178.21481323242188mm" y1="100.38410949707031mm" y2="100.38410949707031mm" /><line stroke="rgb(0%,0%,0%)" stroke-width="0.25mm" x1="182.25483726373267mm" x2="178.21481323242188mm" y1="104.02237721912655mm" y2="100.38410949707031mm" /><line stroke="rgb(0%,0%,0%)" stroke-width="0.25mm" x1="182.2548370361328mm" x2="182.2548370361328mm" y1="104.02237701416016mm" y2="104.02237701416016mm" /><line stroke="rgb(0%,0%,0%)" stroke-width="0.25mm" x1="178.71203592584618mm" x2="182.38580322265625mm" y1="110.29397605989924mm" y2="106.21452331542969mm" /><line stroke="rgb(0%,0%,0%)" stroke-width="0.25mm" x1="178.7120361328125mm" x2="178.7120361328125mm" y1="110.29397583007812mm" y2="110.29397583007812mm" /><line stroke="rgb(0%,0%,0%)" stroke-width="0.25mm" x1="176.26992797851562mm" x2="176.4339599609375mm" y1="110.6357192993164mm" y2="110.44701385498047mm" /><line stroke="rgb(0%,0%,0%)" stroke-width="0.25mm" x1="176.26992798775657mm" x2="176.26992797851562mm" y1="110.63571928868545mm" y2="110.6357192993164mm" /><line stroke="rgb(0%,0%,0%)" stroke-width="0.25mm" x1="177.6342315673828mm" x2="176.26992797851562mm" y1="111.86436462402344mm" y2="110.6357192993164mm" /><line stroke="rgb(0%,0%,0%)" stroke-width="0.25mm" x1="177.63423163309895mm" x2="177.6342315673828mm" y1="111.86436468320515mm" y2="111.86436462402344mm" /><line stroke="rgb(0%,0%,0%)" stroke-width="0.25mm" x1="79.77875517955835mm" x2="79.95140075683594mm" y1="103.19778443264958mm" y2="103.01712036132812mm" /><line stroke="rgb(0%,0%,0%)" stroke-width="0.25mm" x1="79.77875518798828mm" x2="79.77875518798828mm" y1="103.19778442382812mm" y2="103.19778442382812mm" /><line stroke="rgb(0%,0%,0%)" stroke-width="0.25mm" x1="77.23926543155687mm" x2="77.42000579833984mm" y1="103.07866667713354mm" y2="103.25138854980469mm" /><line stroke="rgb(0%,0%,0%)" stroke-width="0.25mm" x1="77.23926544189453mm" x2="77.23926544189453mm" y1="103.07866668701172mm" y2="103.07866668701172mm" /><line stroke="rgb(0%,0%,0%)" stroke-width="0.25mm" x1="78.56455993652344mm" x2="78.56455993652344mm" y1="101.69182586669922mm" y2="101.69182586669922mm" /><line stroke="rgb(0%,0%,0%)" stroke-width="0.25mm" x1="78.56456000123492mm" x2="77.23926544189453mm" y1="101.69182579898255mm" y2="103.07866668701172mm" /><line stroke="rgb(0%,0%,0%)" stroke-width="0.25mm" x1="78.56455993652344mm" x2="79.95140075683594mm" y1="101.69182586669922mm" y2="103.01712036132812mm" /><line stroke="rgb(0%,0%,0%)" stroke-width="0.25mm" x1="78.56455986880677mm" x2="78.56455993652344mm" y1="101.69182580198773mm" y2="101.69182586669922mm" /><line stroke="rgb(0%,0%,0%)" stroke-width="0.25mm" x1="73.51765441894531mm" x2="73.69840240478516mm" y1="106.97310638427734mm" y2="107.14582061767578mm" /><line stroke="rgb(0%,0%,0%)" stroke-width="0.25mm" x1="73.51765440860761mm" x2="73.51765441894531mm" y1="106.97310637439912mm" y2="106.97310638427734mm" /><line stroke="rgb(0%,0%,0%)" stroke-width="0.25mm" x1="73.74115753173828mm" x2="73.74115754025316mm" y1="109.41949462890625mm" y2="109.41949462015855mm" /><line stroke="rgb(0%,0%,0%)" stroke-width="0.25mm" x1="73.74115753173828mm" x2="73.5667724609375mm" y1="109.41949462890625mm" y2="109.59864807128906mm" /><line stroke="rgb(0%,0%,0%)" stroke-width="0.25mm" x1="73.5667724609375mm" x2="72.22967529296875mm" y1="109.59864807128906mm" y2="108.32089233398438mm" /><line stroke="rgb(0%,0%,0%)" stroke-width="0.25mm" x1="73.56677252622528mm" x2="73.5667724609375mm" y1="109.59864813367932mm" y2="109.59864807128906mm" /><line stroke="rgb(0%,0%,0%)" stroke-width="0.25mm" x1="73.51765441894531mm" x2="73.51765441894531mm" y1="106.97310638427734mm" y2="106.97310638427734mm" /><line stroke="rgb(0%,0%,0%)" stroke-width="0.25mm" x1="73.51765448183475mm" x2="72.22967529296875mm" y1="106.97310631846764mm" y2="108.32089233398438mm" /><line stroke="rgb(0%,0%,0%)" stroke-width="0.25mm" x1="77.70100402832031mm" x2="77.70100402832031mm" y1="113.20360565185547mm" y2="113.20360565185547mm" /><line stroke="rgb(0%,0%,0%)" stroke-width="0.25mm" x1="77.7010040365936mm" x2="77.53144836425781mm" y1="113.20360564288865mm" y2="113.38737487792969mm" /><line stroke="rgb(0%,0%,0%)" stroke-width="0.25mm" x1="79.98259735107422mm" x2="80.16636657714844mm" y1="113.11803436279297mm" y2="113.28759002685547mm" /><line stroke="rgb(0%,0%,0%)" stroke-width="0.25mm" x1="79.9825973421074mm" x2="79.98259735107422mm" y1="113.11803435451968mm" y2="113.11803436279297mm" /><line stroke="rgb(0%,0%,0%)" stroke-width="0.25mm" x1="79.77875518798828mm" x2="80.34622192382812mm" y1="103.19778442382812mm" y2="103.74006652832031mm" /><line stroke="rgb(0%,0%,0%)" stroke-width="0.25mm" x1="79.77875518798828mm" x2="79.77875518798828mm" y1="103.19778442382812mm" y2="103.19778442382812mm" /><line stroke="rgb(0%,0%,0%)" stroke-width="0.25mm" x1="77.42000579833984mm" x2="77.4200057983394mm" y1="103.25138854980469mm" y2="103.25138854980513mm" /><line stroke="rgb(0%,0%,0%)" stroke-width="0.25mm" x1="77.42000601119322mm" x2="73.69840240478516mm" y1="103.25138832706655mm" y2="107.14582061767578mm" /><line stroke="rgb(0%,0%,0%)" stroke-width="0.25mm" x1="73.74115730525878mm" x2="77.70100402832031mm" y1="109.41949441247776mm" y2="113.20360565185547mm" /><line stroke="rgb(0%,0%,0%)" stroke-width="0.25mm" x1="73.74115753173828mm" x2="73.74115753173828mm" y1="109.41949462890625mm" y2="109.41949462890625mm" /><line stroke="rgb(0%,0%,0%)" stroke-width="0.25mm" x1="80.40496826171875mm" x2="80.40496828587584mm" y1="112.6760482788086mm" y2="112.67604825352964mm" /><line stroke="rgb(0%,0%,0%)" stroke-width="0.25mm" x1="80.40496826171875mm" x2="79.98259735107422mm" y1="112.6760482788086mm" y2="113.11803436279297mm" /><line stroke="rgb(0%,0%,0%)" stroke-width="0.25mm" x1="78.85882561979368mm" x2="80.16636657714844mm" y1="114.65584570885242mm" y2="113.28759002685547mm" /><line stroke="rgb(0%,0%,0%)" stroke-width="0.25mm" x1="78.85882568359375mm" x2="78.85882568359375mm" y1="114.65584564208984mm" y2="114.65584564208984mm" /><line stroke="rgb(0%,0%,0%)" stroke-width="0.25mm" x1="78.85882568359375mm" x2="77.53144836425781mm" y1="114.65584564208984mm" y2="113.38737487792969mm" /><line stroke="rgb(0%,0%,0%)" stroke-width="0.25mm" x1="78.85882574836172mm" x2="78.85882568359375mm" y1="114.65584570398353mm" y2="114.65584564208984mm" /><line stroke="rgb(0%,0%,0%)" stroke-width="0.25mm" x1="80.40496826171875mm" x2="80.40496828587584mm" y1="112.6760482788086mm" y2="112.67604825352964mm" /><line stroke="rgb(0%,0%,0%)" stroke-width="0.25mm" x1="80.40496826171875mm" x2="79.98259735107422mm" y1="112.6760482788086mm" y2="113.11803436279297mm" /><line stroke="rgb(0%,0%,0%)" stroke-width="0.25mm" x1="155.67384338378906mm" x2="155.67384338378906mm" y1="131.02220153808594mm" y2="131.02220153808594mm" /><line stroke="rgb(0%,0%,0%)" stroke-width="0.25mm" x1="155.67384338378906mm" x2="155.67384338378906mm" y1="131.02220153808594mm" y2="146.22972106933594mm" /><line stroke="rgb(0%,0%,0%)" stroke-width="0.25mm" x1="120.10071563720703mm" x2="129.3437957763672mm" y1="174.34156799316406mm" y2="174.34156799316406mm" /><line stroke="rgb(0%,0%,0%)" stroke-width="0.25mm" x1="120.10071563720703mm" x2="120.10071563720703mm" y1="174.34156799316406mm" y2="174.34156799316406mm" /><line stroke="rgb(0%,0%,0%)" stroke-width="0.25mm" x1="155.67384338378906mm" x2="155.67384338378906mm" y1="146.22972106933594mm" y2="146.22972106933594mm" /><line stroke="rgb(0%,0%,0%)" stroke-width="0.25mm" x1="155.67384338378906mm" x2="129.3437957763672mm" y1="146.22972106933594mm" y2="174.34156799316406mm" /><line stroke="rgb(0%,0%,0%)" stroke-width="0.25mm" x1="120.10071563720703mm" x2="98.47125244140625mm" y1="174.34156799316406mm" y2="150.18820190429688mm" /><line stroke="rgb(0%,0%,0%)" stroke-width="0.25mm" x1="120.10071563720703mm" x2="120.10071563720703mm" y1="174.34156799316406mm" y2="174.34156799316406mm" /><line stroke="rgb(0%,0%,0%)" stroke-width="0.25mm" x1="96.78811645507812mm" x2="95.45658111572266mm" y1="133.08526611328125mm" y2="131.82115173339844mm" /><line stroke="rgb(0%,0%,0%)" stroke-width="0.25mm" x1="96.78811645507812mm" x2="96.78811645507812mm" y1="133.08526611328125mm" y2="133.08526611328125mm" /><line stroke="rgb(0%,0%,0%)" stroke-width="0.25mm" x1="95.62553405761719mm" x2="95.62553405761719mm" y1="131.6368408203125mm" y2="131.6368408203125mm" /><line stroke="rgb(0%,0%,0%)" stroke-width="0.25mm" x1="95.62553405761719mm" x2="95.45658111572266mm" y1="131.6368408203125mm" y2="131.82115173339844mm" /><line stroke="rgb(0%,0%,0%)" stroke-width="0.25mm" x1="97.90682983398438mm" x2="98.09115600585938mm" y1="131.54376220703125mm" y2="131.7127227783203mm" /><line stroke="rgb(0%,0%,0%)" stroke-width="0.25mm" x1="97.90682983398438mm" x2="97.90682983398438mm" y1="131.54376220703125mm" y2="131.54376220703125mm" /><line stroke="rgb(0%,0%,0%)" stroke-width="0.25mm" x1="91.47948455810547mm" x2="90.13819885253906mm" y1="128.0454864501953mm" y2="126.77212524414062mm" /><line stroke="rgb(0%,0%,0%)" stroke-width="0.25mm" x1="91.47948455810547mm" x2="91.47948455810547mm" y1="128.0454864501953mm" y2="128.0454864501953mm" /><line stroke="rgb(0%,0%,0%)" stroke-width="0.25mm" x1="91.42174530029297mm" x2="91.42174530029297mm" y1="125.42010498046875mm" y2="125.42010498046875mm" /><line stroke="rgb(0%,0%,0%)" stroke-width="0.25mm" x1="91.42174530029297mm" x2="90.13819885253906mm" y1="125.42010498046875mm" y2="126.77212524414062mm" /><line stroke="rgb(0%,0%,0%)" stroke-width="0.25mm" x1="157.1560516357422mm" x2="158.45907592773438mm" y1="132.77406311035156mm" y2="131.40151977539062mm" /><line stroke="rgb(0%,0%,0%)" stroke-width="0.25mm" x1="157.1560516357422mm" x2="157.1560516357422mm" y1="132.77406311035156mm" y2="132.77406311035156mm" /><line stroke="rgb(0%,0%,0%)" stroke-width="0.25mm" x1="157.1560516357422mm" x2="155.8245086669922mm" y1="132.77406311035156mm" y2="131.50994873046875mm" /><line stroke="rgb(0%,0%,0%)" stroke-width="0.25mm" x1="157.1560516357422mm" x2="157.1560516357422mm" y1="132.77406311035156mm" y2="132.77406311035156mm" /><line stroke="rgb(0%,0%,0%)" stroke-width="0.25mm" x1="162.15341186523438mm" x2="162.15341186523438mm" y1="124.87499237060547mm" y2="124.87499237060547mm" /><line stroke="rgb(0%,0%,0%)" stroke-width="0.25mm" x1="162.15341186523438mm" x2="161.9812774658203mm" y1="124.87499237060547mm" y2="125.0562973022461mm" /><line stroke="rgb(0%,0%,0%)" stroke-width="0.25mm" x1="162.15341186523438mm" x2="163.4691925048828mm" y1="124.87499237060547mm" y2="126.12413787841797mm" /><line stroke="rgb(0%,0%,0%)" stroke-width="0.25mm" x1="162.15341186523438mm" x2="162.15341186523438mm" y1="124.87499237060547mm" y2="124.87499237060547mm" /><line stroke="rgb(0%,0%,0%)" stroke-width="0.25mm" x1="162.23887634277344mm" x2="163.4691925048828mm" y1="127.42008209228516mm" y2="126.12413787841797mm" /><line stroke="rgb(0%,0%,0%)" stroke-width="0.25mm" x1="162.23887634277344mm" x2="162.23887634277344mm" y1="127.42008209228516mm" y2="127.42008209228516mm" /><line stroke="rgb(0%,0%,0%)" stroke-width="0.25mm" x1="162.2623748779297mm" x2="162.828125mm" y1="89.49796295166016mm" y2="88.84254455566406mm" /><line stroke="rgb(0%,0%,0%)" stroke-width="0.25mm" x1="162.828125mm" x2="162.828125mm" y1="88.84254455566406mm" y2="88.84254455566406mm" /><line stroke="rgb(0%,0%,0%)" stroke-width="0.25mm" x1="163.02023315429688mm" x2="164.18785095214844mm" y1="89.00257873535156mm" y2="87.6498794555664mm" /><line stroke="rgb(0%,0%,0%)" stroke-width="0.25mm" x1="163.02023315429688mm" x2="163.02023315429688mm" y1="89.00257873535156mm" y2="89.00257873535156mm" /><line stroke="rgb(0%,0%,0%)" stroke-width="0.25mm" x1="162.81443786621094mm" x2="162.81443786621094mm" y1="86.46438598632812mm" y2="86.46438598632812mm" /><line stroke="rgb(0%,0%,0%)" stroke-width="0.25mm" x1="162.81443786621094mm" x2="162.65109252929688mm" y1="86.46438598632812mm" y2="86.65363311767578mm" /><line stroke="rgb(0%,0%,0%)" stroke-width="0.25mm" x1="162.81443786621094mm" x2="164.18785095214844mm" y1="86.46438598632812mm" y2="87.6498794555664mm" /><line stroke="rgb(0%,0%,0%)" stroke-width="0.25mm" x1="162.81443786621094mm" x2="162.81443786621094mm" y1="86.46438598632812mm" y2="86.46438598632812mm" /><line stroke="rgb(0%,0%,0%)" stroke-width="0.25mm" x1="157.24668884277344mm" x2="158.6988067626953mm" y1="81.65843200683594mm" y2="82.911865234375mm" /><line stroke="rgb(0%,0%,0%)" stroke-width="0.25mm" x1="157.24668884277344mm" x2="157.24668884277344mm" y1="81.65843200683594mm" y2="81.65843200683594mm" /><line stroke="rgb(0%,0%,0%)" stroke-width="0.25mm" x1="157.24668884277344mm" x2="157.24668884277344mm" y1="81.65843200683594mm" y2="81.65843200683594mm" /><line stroke="rgb(0%,0%,0%)" stroke-width="0.25mm" x1="157.24668884277344mm" x2="155.99325561523438mm" y1="81.65843200683594mm" y2="83.11054992675781mm" /><line stroke="rgb(0%,0%,0%)" stroke-width="0.25mm" x1="152.473388671875mm" x2="152.66262817382812mm" y1="87.18836212158203mm" y2="87.35171508789062mm" /><line stroke="rgb(0%,0%,0%)" stroke-width="0.25mm" x1="152.473388671875mm" x2="152.473388671875mm" y1="87.18836212158203mm" y2="87.18836212158203mm" /><line stroke="rgb(0%,0%,0%)" stroke-width="0.25mm" x1="152.473388671875mm" x2="152.473388671875mm" y1="87.18836212158203mm" y2="87.18836212158203mm" /><line stroke="rgb(0%,0%,0%)" stroke-width="0.25mm" x1="152.473388671875mm" x2="152.473388671875mm" y1="87.18836212158203mm" y2="87.18836212158203mm" /><line stroke="rgb(0%,0%,0%)" stroke-width="0.25mm" x1="152.473388671875mm" x2="151.30662536621094mm" y1="87.18836212158203mm" y2="88.54006958007812mm" /><line stroke="rgb(0%,0%,0%)" stroke-width="0.25mm" x1="128.91754150390625mm" x2="129.06288146972656mm" y1="83.70637512207031mm" y2="83.56293487548828mm" /><line stroke="rgb(0%,0%,0%)" stroke-width="0.25mm" x1="128.91754150390625mm" x2="128.91754150390625mm" y1="83.70637512207031mm" y2="83.70637512207031mm" /><line stroke="rgb(0%,0%,0%)" stroke-width="0.25mm" x1="126.75701141357422mm" x2="126.58023071289062mm" y1="83.76448059082031mm" y2="83.58769226074219mm" /><line stroke="rgb(0%,0%,0%)" stroke-width="0.25mm" x1="126.75701141357422mm" x2="126.75701141357422mm" y1="83.76448059082031mm" y2="83.76448059082031mm" /><line stroke="rgb(0%,0%,0%)" stroke-width="0.25mm" x1="98.47669219970703mm" x2="98.47669219970703mm" y1="83.65425109863281mm" y2="83.65425109863281mm" /><line stroke="rgb(0%,0%,0%)" stroke-width="0.25mm" x1="98.47669219970703mm" x2="102.26704406738281mm" y1="83.65425109863281mm" y2="87.55195617675781mm" /><line stroke="rgb(0%,0%,0%)" stroke-width="0.25mm" x1="98.65592193603516mm" x2="97.31857299804688mm" y1="83.4799575805664mm" y2="82.104736328125mm" /><line stroke="rgb(0%,0%,0%)" stroke-width="0.25mm" x1="98.65592193603516mm" x2="98.65592193603516mm" y1="83.4799575805664mm" y2="83.4799575805664mm" /><line stroke="rgb(0%,0%,0%)" stroke-width="0.25mm" x1="95.94334411621094mm" x2="97.31857299804688mm" y1="83.44207763671875mm" y2="82.104736328125mm" /><line stroke="rgb(0%,0%,0%)" stroke-width="0.25mm" x1="95.94334411621094mm" x2="95.94334411621094mm" y1="83.44207763671875mm" y2="83.44207763671875mm" /><line stroke="rgb(0%,0%,0%)" stroke-width="0.25mm" x1="90.74496459960938mm" x2="92.08145904541016mm" y1="88.49729919433594mm" y2="87.19760131835938mm" /><line stroke="rgb(0%,0%,0%)" stroke-width="0.25mm" x1="90.74496459960938mm" x2="90.74496459960938mm" y1="88.49729919433594mm" y2="88.49729919433594mm" /><line stroke="rgb(0%,0%,0%)" stroke-width="0.25mm" x1="92.25575256347656mm" x2="92.08145904541016mm" y1="87.3768310546875mm" y2="87.19760131835938mm" /><line stroke="rgb(0%,0%,0%)" stroke-width="0.25mm" x1="92.25575256347656mm" x2="92.25575256347656mm" y1="87.3768310546875mm" y2="87.3768310546875mm" /><line stroke="rgb(0%,0%,0%)" stroke-width="0.25mm" x1="92.03433227539062mm" x2="92.21516418457031mm" y1="89.82318115234375mm" y2="89.6505355834961mm" /><line stroke="rgb(0%,0%,0%)" stroke-width="0.25mm" x1="92.03433227539062mm" x2="92.03433227539062mm" y1="89.82318115234375mm" y2="89.82318115234375mm" /><line stroke="rgb(0%,0%,0%)" stroke-width="0.25mm" x1="90.74496459960938mm" x2="90.74496459960938mm" y1="88.49729919433594mm" y2="88.49729919433594mm" /><line stroke="rgb(0%,0%,0%)" stroke-width="0.25mm" x1="90.74496459960938mm" x2="92.03433227539062mm" y1="88.49729919433594mm" y2="89.82318115234375mm" /><line stroke="rgb(0%,0%,0%)" stroke-width="0.25mm" x1="158.5354461669922mm" x2="158.6988067626953mm" y1="83.10111236572266mm" y2="82.911865234375mm" /><line stroke="rgb(0%,0%,0%)" stroke-width="0.25mm" x1="158.5354461669922mm" x2="158.5354461669922mm" y1="83.10111236572266mm" y2="83.10111236572266mm" /><line stroke="rgb(0%,0%,0%)" stroke-width="0.25mm" x1="163.02023315429688mm" x2="162.828125mm" y1="89.00257873535156mm" y2="88.84254455566406mm" /><line stroke="rgb(0%,0%,0%)" stroke-width="0.25mm" x1="163.02023315429688mm" x2="163.02023315429688mm" y1="89.00257873535156mm" y2="89.00257873535156mm" /><line stroke="rgb(0%,0%,0%)" stroke-width="0.25mm" x1="151.30662536621094mm" x2="134.04002380371094mm" y1="88.54006958007812mm" y2="88.54006958007812mm" /><line stroke="rgb(0%,0%,0%)" stroke-width="0.25mm" x1="151.30662536621094mm" x2="151.30662536621094mm" y1="88.54006958007812mm" y2="88.54006958007812mm" /><line stroke="rgb(0%,0%,0%)" stroke-width="0.25mm" x1="134.04002380371094mm" x2="134.04002380371094mm" y1="88.54006958007812mm" y2="88.54006958007812mm" /><line stroke="rgb(0%,0%,0%)" stroke-width="0.25mm" x1="134.04002380371094mm" x2="134.04002380371094mm" y1="88.54006958007812mm" y2="88.54006958007812mm" /><line stroke="rgb(0%,0%,0%)" stroke-width="0.25mm" x1="152.66262817382812mm" x2="156.18251037597656mm" y1="87.35171508789062mm" y2="83.2739028930664mm" /><line stroke="rgb(0%,0%,0%)" stroke-width="0.25mm" x1="152.66262817382812mm" x2="152.66262817382812mm" y1="87.35171508789062mm" y2="87.35171508789062mm" /><line stroke="rgb(0%,0%,0%)" stroke-width="0.25mm" x1="155.99325561523438mm" x2="156.18251037597656mm" y1="83.11054992675781mm" y2="83.2739028930664mm" /><line stroke="rgb(0%,0%,0%)" stroke-width="0.25mm" x1="155.99325561523438mm" x2="155.99325561523438mm" y1="83.11054992675781mm" y2="83.11054992675781mm" /><line stroke="rgb(0%,0%,0%)" stroke-width="0.25mm" x1="134.04002380371094mm" x2="132.8957061767578mm" y1="88.54006958007812mm" y2="87.395751953125mm" /><line stroke="rgb(0%,0%,0%)" stroke-width="0.25mm" x1="134.04002380371094mm" x2="134.04002380371094mm" y1="88.54006958007812mm" y2="88.54006958007812mm" /><line stroke="rgb(0%,0%,0%)" stroke-width="0.25mm" x1="132.8957061767578mm" x2="132.72254943847656mm" y1="87.395751953125mm" y2="87.5621337890625mm" /><line stroke="rgb(0%,0%,0%)" stroke-width="0.25mm" x1="132.8957061767578mm" x2="132.8957061767578mm" y1="87.395751953125mm" y2="87.395751953125mm" /><line stroke="rgb(0%,0%,0%)" stroke-width="0.25mm" x1="132.72254943847656mm" x2="128.91754150390625mm" y1="87.5621337890625mm" y2="83.70637512207031mm" /><line stroke="rgb(0%,0%,0%)" stroke-width="0.25mm" x1="132.72254943847656mm" x2="132.72254943847656mm" y1="87.5621337890625mm" y2="87.5621337890625mm" /><line stroke="rgb(0%,0%,0%)" stroke-width="0.25mm" x1="126.75701141357422mm" x2="122.84075927734375mm" y1="83.76448059082031mm" y2="87.62921142578125mm" /><line stroke="rgb(0%,0%,0%)" stroke-width="0.25mm" x1="126.75701141357422mm" x2="126.75701141357422mm" y1="83.76448059082031mm" y2="83.76448059082031mm" /><line stroke="rgb(0%,0%,0%)" stroke-width="0.25mm" x1="98.65592193603516mm" x2="98.47669219970703mm" y1="83.4799575805664mm" y2="83.65425109863281mm" /><line stroke="rgb(0%,0%,0%)" stroke-width="0.25mm" x1="98.65592193603516mm" x2="98.65592193603516mm" y1="83.4799575805664mm" y2="83.4799575805664mm" /><line stroke="rgb(0%,0%,0%)" stroke-width="0.25mm" x1="121.55472564697266mm" x2="121.55472564697266mm" y1="88.54707336425781mm" y2="88.54707336425781mm" /><line stroke="rgb(0%,0%,0%)" stroke-width="0.25mm" x1="121.55472564697266mm" x2="121.55472564697266mm" y1="88.54707336425781mm" y2="88.54707336425781mm" /><line stroke="rgb(0%,0%,0%)" stroke-width="0.25mm" x1="121.55472564697266mm" x2="121.55472564697266mm" y1="88.54707336425781mm" y2="88.54707336425781mm" /><line stroke="rgb(0%,0%,0%)" stroke-width="0.25mm" x1="121.55472564697266mm" x2="121.55472564697266mm" y1="88.54707336425781mm" y2="88.54707336425781mm" /><line stroke="rgb(0%,0%,0%)" stroke-width="0.25mm" x1="121.55472564697266mm" x2="103.57666015625mm" y1="88.54707336425781mm" y2="88.54006958007812mm" /><line stroke="rgb(0%,0%,0%)" stroke-width="0.25mm" x1="103.57666015625mm" x2="103.57666015625mm" y1="88.54006958007812mm" y2="88.54006958007812mm" /><line stroke="rgb(0%,0%,0%)" stroke-width="0.25mm" x1="102.44627380371094mm" x2="102.26704406738281mm" y1="87.3776626586914mm" y2="87.55195617675781mm" /><line stroke="rgb(0%,0%,0%)" stroke-width="0.25mm" x1="102.44627380371094mm" x2="102.44627380371094mm" y1="87.3776626586914mm" y2="87.3776626586914mm" /><line stroke="rgb(0%,0%,0%)" stroke-width="0.25mm" x1="92.21516418457031mm" x2="92.21516418457031mm" y1="89.6505355834961mm" y2="89.6505355834961mm" /><line stroke="rgb(0%,0%,0%)" stroke-width="0.25mm" x1="92.21516418457031mm" x2="92.70404815673828mm" y1="89.6505355834961mm" y2="90.15327453613281mm" /><line stroke="rgb(0%,0%,0%)" stroke-width="0.25mm" x1="96.11763763427734mm" x2="92.25575256347656mm" y1="83.62130737304688mm" y2="87.3768310546875mm" /><line stroke="rgb(0%,0%,0%)" stroke-width="0.25mm" x1="96.11763763427734mm" x2="96.11763763427734mm" y1="83.62130737304688mm" y2="83.62130737304688mm" /><line stroke="rgb(0%,0%,0%)" stroke-width="0.25mm" x1="95.94334411621094mm" x2="95.94334411621094mm" y1="83.44207763671875mm" y2="83.44207763671875mm" /><line stroke="rgb(0%,0%,0%)" stroke-width="0.25mm" x1="95.94334411621094mm" x2="96.11763763427734mm" y1="83.44207763671875mm" y2="83.62130737304688mm" /><line stroke="rgb(0%,0%,0%)" stroke-width="0.25mm" x1="122.84075927734375mm" x2="122.66514587402344mm" y1="87.62921142578125mm" y2="87.45126342773438mm" /><line stroke="rgb(0%,0%,0%)" stroke-width="0.25mm" x1="122.84075927734375mm" x2="122.84075927734375mm" y1="87.62921142578125mm" y2="87.62921142578125mm" /><line stroke="rgb(0%,0%,0%)" stroke-width="0.25mm" x1="121.55472564697266mm" x2="122.66514587402344mm" y1="88.54707336425781mm" y2="87.45126342773438mm" /><line stroke="rgb(0%,0%,0%)" stroke-width="0.25mm" x1="121.55472564697266mm" x2="121.55472564697266mm" y1="88.54707336425781mm" y2="88.54707336425781mm" /><line stroke="rgb(0%,0%,0%)" stroke-width="0.25mm" x1="126.58023071289062mm" x2="127.84224700927734mm" y1="83.58769226074219mm" y2="82.34229278564453mm" /><line stroke="rgb(0%,0%,0%)" stroke-width="0.25mm" x1="126.58023071289062mm" x2="126.58023071289062mm" y1="83.58769226074219mm" y2="83.58769226074219mm" /><line stroke="rgb(0%,0%,0%)" stroke-width="0.25mm" x1="127.84224700927734mm" x2="129.06288146972656mm" y1="82.34229278564453mm" y2="83.56293487548828mm" /><line stroke="rgb(0%,0%,0%)" stroke-width="0.25mm" x1="127.84224700927734mm" x2="127.84224700927734mm" y1="82.34229278564453mm" y2="82.34229278564453mm" /><line stroke="rgb(0%,0%,0%)" stroke-width="0.25mm" x1="103.57666015625mm" x2="102.44627380371094mm" y1="88.54006958007812mm" y2="87.3776626586914mm" /><line stroke="rgb(0%,0%,0%)" stroke-width="0.25mm" x1="103.57666015625mm" x2="103.57666015625mm" y1="88.54006958007812mm" y2="88.54006958007812mm" /><line stroke="rgb(0%,0%,0%)" stroke-width="0.25mm" x1="92.04573059082031mm" x2="92.04573059082031mm" y1="125.12594604492188mm" y2="125.12594604492188mm" /><line stroke="rgb(0%,0%,0%)" stroke-width="0.25mm" x1="92.04573059082031mm" x2="91.60305786132812mm" y1="125.12594604492188mm" y2="125.59223175048828mm" /><line stroke="rgb(0%,0%,0%)" stroke-width="0.25mm" x1="97.9771728515625mm" x2="97.9771728515625mm" y1="131.4696807861328mm" y2="131.4696807861328mm" /><line stroke="rgb(0%,0%,0%)" stroke-width="0.25mm" x1="97.9771728515625mm" x2="97.90682983398438mm" y1="131.4696807861328mm" y2="131.54376220703125mm" /><line stroke="rgb(0%,0%,0%)" stroke-width="0.25mm" x1="95.62553405761719mm" x2="91.65327453613281mm" y1="131.6368408203125mm" y2="127.8657455444336mm" /><line stroke="rgb(0%,0%,0%)" stroke-width="0.25mm" x1="95.62553405761719mm" x2="95.62553405761719mm" y1="131.6368408203125mm" y2="131.6368408203125mm" /><line stroke="rgb(0%,0%,0%)" stroke-width="0.25mm" x1="91.65327453613281mm" x2="91.65327453613281mm" y1="127.8657455444336mm" y2="127.8657455444336mm" /><line stroke="rgb(0%,0%,0%)" stroke-width="0.25mm" x1="91.65327453613281mm" x2="91.47948455810547mm" y1="127.8657455444336mm" y2="128.0454864501953mm" /><line stroke="rgb(0%,0%,0%)" stroke-width="0.25mm" x1="91.60305786132812mm" x2="91.42174530029297mm" y1="125.59223175048828mm" y2="125.42010498046875mm" /><line stroke="rgb(0%,0%,0%)" stroke-width="0.25mm" x1="91.60305786132812mm" x2="91.60305786132812mm" y1="125.59223175048828mm" y2="125.59223175048828mm" /><line stroke="rgb(0%,0%,0%)" stroke-width="0.25mm" x1="96.78811645507812mm" x2="98.09115600585938mm" y1="133.08526611328125mm" y2="131.7127227783203mm" /><line stroke="rgb(0%,0%,0%)" stroke-width="0.25mm" x1="96.78811645507812mm" x2="96.78811645507812mm" y1="133.08526611328125mm" y2="133.08526611328125mm" /><line stroke="rgb(0%,0%,0%)" stroke-width="0.25mm" x1="161.32818603515625mm" x2="161.9812774658203mm" y1="124.43628692626953mm" y2="125.0562973022461mm" /><line stroke="rgb(0%,0%,0%)" stroke-width="0.25mm" x1="161.32818603515625mm" x2="161.32818603515625mm" y1="124.43628692626953mm" y2="124.43628692626953mm" /><line stroke="rgb(0%,0%,0%)" stroke-width="0.25mm" x1="162.0545654296875mm" x2="162.23887634277344mm" y1="127.25112915039062mm" y2="127.42008209228516mm" /><line stroke="rgb(0%,0%,0%)" stroke-width="0.25mm" x1="162.0545654296875mm" x2="162.0545654296875mm" y1="127.25112915039062mm" y2="127.25112915039062mm" /><line stroke="rgb(0%,0%,0%)" stroke-width="0.25mm" x1="158.27476501464844mm" x2="158.45907592773438mm" y1="131.23255920410156mm" y2="131.40151977539062mm" /><line stroke="rgb(0%,0%,0%)" stroke-width="0.25mm" x1="158.27476501464844mm" x2="158.27476501464844mm" y1="131.23255920410156mm" y2="131.23255920410156mm" /><line stroke="rgb(0%,0%,0%)" stroke-width="0.25mm" x1="155.9934539794922mm" x2="155.9934539794922mm" y1="131.32562255859375mm" y2="131.32562255859375mm" /><line stroke="rgb(0%,0%,0%)" stroke-width="0.25mm" x1="155.9934539794922mm" x2="155.8245086669922mm" y1="131.32562255859375mm" y2="131.50994873046875mm" /><line stroke="rgb(0%,0%,0%)" stroke-width="0.25mm" x1="155.67384338378906mm" x2="155.9934539794922mm" y1="131.02220153808594mm" y2="131.32562255859375mm" /><line stroke="rgb(0%,0%,0%)" stroke-width="0.25mm" x1="155.67384338378906mm" x2="155.67384338378906mm" y1="131.02220153808594mm" y2="131.02220153808594mm" /></g></svg>