<?xml version="1.0" encoding="utf-8" ?>
<svg baseProfile="tiny" height="100%" version="1.2" width="100%" xmlns="http://www.w3.org/2000/svg" xmlns:ev="http://www.w3.org/2001/xml-events" xmlns:xlink="http://www.w3.org/1999/xlink"><defs /><g id="border"><line stroke="rgb(0%,0%,0%)" x1="4.2684" x2="4.2581" y1="1.1226" y2="1.113" /><line stroke="rgb(0%,0%,0%)" x1="4.2581" x2="4.258" y1="1.113" y2="1.1128" /><line stroke="rgb(0%,0%,0%)" x1="4.258" x2="4.2684" y1="1.1128" y2="1.1226" /><line stroke="rgb(0%,0%,0%)" x1="4.2581" x2="4.2684" y1="1.113" y2="1.1226" /><line stroke="rgb(0%,0%,0%)" x1="4.2684" x2="4.2583" y1="1.1226" y2="1.113" /><line stroke="rgb(0%,0%,0%)" x1="4.2583" x2="4.2581" y1="1.113" y2="1.113" /><line stroke="rgb(0%,0%,0%)" x1="4.2583" x2="4.2684" y1="1.113" y2="1.1226" /><line stroke="rgb(0%,0%,0%)" x1="4.2684" x2="4.2585" y1="1.1226" y2="1.1152" /><line stroke="rgb(0%,0%,0%)" x1="4.2585" x2="4.2583" y1="1.1152" y2="1.113" /><line stroke="rgb(0%,0%,0%)" x1="4.2583" x2="4.2585" y1="1.113" y2="1.1152" /><line stroke="rgb(0%,0%,0%)" x1="4.2585" x2="4.257" y1="1.1152" y2="1.1143" /><line stroke="rgb(0%,0%,0%)" x1="4.257" x2="4.2583" y1="1.1143" y2="1.113" /><line stroke="rgb(0%,0%,0%)" x1="4.2684" x2="4.2717" y1="1.1226" y2="1.1203" /><line stroke="rgb(0%,0%,0%)" x1="4.2717" x2="4.258" y1="1.1203" y2="1.1128" /><line stroke="rgb(0%,0%,0%)" x1="4.258" x2="4.2684" y1="1.1128" y2="1.1226" /><line stroke="rgb(0%,0%,0%)" x1="4.2717" x2="4.258" y1="1.1203" y2="1.1128" /><line stroke="rgb(0%,0%,0%)" x1="4.258" x2="4.2731" y1="1.1128" y2="1.1166" /><line stroke="rgb(0%,0%,0%)" x1="4.2731" x2="4.2717" y1="1.1166" y2="1.1203" /><line stroke="rgb(0%,0%,0%)" x1="4.2585" x2="4.257" y1="1.1152" y2="1.1143" /><line stroke="rgb(0%,0%,0%)" x1="4.257" x2="4.258" y1="1.1143" y2="1.1128" /><line stroke="rgb(0%,0%,0%)" x1="4.258" x2="4.2585" y1="1.1128" y2="1.1152" /><line stroke="rgb(0%,0%,0%)" x1="4.258" x2="4.257" y1="1.1128" y2="1.1143" /><line stroke="rgb(0%,0%,0%)" x1="4.257" x2="4.2569" y1="1.1143" y2="1.1141" /><line stroke="rgb(0%,0%,0%)" x1="4.2569" x2="4.258" y1="1.1141" y2="1.1128" /><line stroke="rgb(0%,0%,0%)" x1="4.258" x2="4.2569" y1="1.1128" y2="1.1141" /><line stroke="rgb(0%,0%,0%)" x1="4.2569" x2="4.2569" y1="1.1141" y2="1.1139" /><line stroke="rgb(0%,0%,0%)" x1="4.2569" x2="4.258" y1="1.1139" y2="1.1128" /><line stroke="rgb(0%,0%,0%)" x1="4.2684" x2="4.2608" y1="1.1226" y2="1.1171" /><line stroke="rgb(0%,0%,0%)" x1="4.2608" x2="4.258" y1="1.1171" y2="1.1128" /><line stroke="rgb(0%,0%,0%)" x1="4.258" x2="4.2684" y1="1.1128" y2="1.1226" /><line stroke="rgb(0%,0%,0%)" x1="4.258" x2="4.2608" y1="1.1128" y2="1.1171" /><line stroke="rgb(0%,0%,0%)" x1="4.2608" x2="4.2592" y1="1.1171" y2="1.1158" /><line stroke="rgb(0%,0%,0%)" x1="4.2592" x2="4.258" y1="1.1158" y2="1.1128" /><line stroke="rgb(0%,0%,0%)" x1="4.258" x2="4.2592" y1="1.1128" y2="1.1158" /><line stroke="rgb(0%,0%,0%)" x1="4.2592" x2="4.2585" y1="1.1158" y2="1.1152" /><line stroke="rgb(0%,0%,0%)" x1="4.2585" x2="4.258" y1="1.1152" y2="1.1128" /><line stroke="rgb(0%,0%,0%)" x1="4.258" x2="4.2729" y1="1.1128" y2="1.1087" /><line stroke="rgb(0%,0%,0%)" x1="4.2729" x2="4.2736" y1="1.1087" y2="1.1126" /><line stroke="rgb(0%,0%,0%)" x1="4.2736" x2="4.258" y1="1.1126" y2="1.1128" /><line stroke="rgb(0%,0%,0%)" x1="4.258" x2="4.243" y1="1.1128" y2="1.1134" /><line stroke="rgb(0%,0%,0%)" x1="4.243" x2="4.2434" y1="1.1134" y2="1.1094" /><line stroke="rgb(0%,0%,0%)" x1="4.2434" x2="4.258" y1="1.1094" y2="1.1128" /><line stroke="rgb(0%,0%,0%)" x1="4.243" x2="4.258" y1="1.1134" y2="1.1128" /><line stroke="rgb(0%,0%,0%)" x1="4.258" x2="4.2569" y1="1.1128" y2="1.1139" /><line stroke="rgb(0%,0%,0%)" x1="4.2569" x2="4.243" y1="1.1139" y2="1.1134" /><line stroke="rgb(0%,0%,0%)" x1="4.258" x2="4.2434" y1="1.1128" y2="1.1094" /><line stroke="rgb(0%,0%,0%)" x1="4.2434" x2="4.2449" y1="1.1094" y2="1.1057" /><line stroke="rgb(0%,0%,0%)" x1="4.2449" x2="4.258" y1="1.1057" y2="1.1128" /><line stroke="rgb(0%,0%,0%)" x1="4.258" x2="4.2449" y1="1.1128" y2="1.1057" /><line stroke="rgb(0%,0%,0%)" x1="4.2449" x2="4.2472" y1="1.1057" y2="1.1025" /><line stroke="rgb(0%,0%,0%)" x1="4.2472" x2="4.258" y1="1.1025" y2="1.1128" /><line stroke="rgb(0%,0%,0%)" x1="4.258" x2="4.2472" y1="1.1128" y2="1.1025" /><line stroke="rgb(0%,0%,0%)" x1="4.2472" x2="4.2503" y1="1.1025" y2="1.0999" /><line stroke="rgb(0%,0%,0%)" x1="4.2503" x2="4.258" y1="1.0999" y2="1.1128" /><line stroke="rgb(0%,0%,0%)" x1="4.258" x2="4.2503" y1="1.1128" y2="1.0999" /><line stroke="rgb(0%,0%,0%)" x1="4.2503" x2="4.254" y1="1.0999" y2="1.0983" /><line stroke="rgb(0%,0%,0%)" x1="4.254" x2="4.258" y1="1.0983" y2="1.1128" /><line stroke="rgb(0%,0%,0%)" x1="4.258" x2="4.254" y1="1.1128" y2="1.0983" /><line stroke="rgb(0%,0%,0%)" x1="4.254" x2="4.2579" y1="1.0983" y2="1.0977" /><line stroke="rgb(0%,0%,0%)" x1="4.2579" x2="4.258" y1="1.0977" y2="1.1128" /><line stroke="rgb(0%,0%,0%)" x1="4.258" x2="4.2579" y1="1.1128" y2="1.0977" /><line stroke="rgb(0%,0%,0%)" x1="4.2579" x2="4.2619" y1="1.0977" y2="1.0981" /><line stroke="rgb(0%,0%,0%)" x1="4.2619" x2="4.258" y1="1.0981" y2="1.1128" /><line stroke="rgb(0%,0%,0%)" x1="4.258" x2="4.2619" y1="1.1128" y2="1.0981" /><line stroke="rgb(0%,0%,0%)" x1="4.2619" x2="4.2656" y1="1.0981" y2="1.0996" /><line stroke="rgb(0%,0%,0%)" x1="4.2656" x2="4.258" y1="1.0996" y2="1.1128" /><line stroke="rgb(0%,0%,0%)" x1="4.258" x2="4.2656" y1="1.1128" y2="1.0996" /><line stroke="rgb(0%,0%,0%)" x1="4.2656" x2="4.2688" y1="1.0996" y2="1.1019" /><line stroke="rgb(0%,0%,0%)" x1="4.2688" x2="4.258" y1="1.1019" y2="1.1128" /><line stroke="rgb(0%,0%,0%)" x1="4.258" x2="4.2688" y1="1.1128" y2="1.1019" /><line stroke="rgb(0%,0%,0%)" x1="4.2688" x2="4.2713" y1="1.1019" y2="1.105" /><line stroke="rgb(0%,0%,0%)" x1="4.2713" x2="4.258" y1="1.105" y2="1.1128" /><line stroke="rgb(0%,0%,0%)" x1="4.258" x2="4.2713" y1="1.1128" y2="1.105" /><line stroke="rgb(0%,0%,0%)" x1="4.2713" x2="4.2729" y1="1.105" y2="1.1087" /><line stroke="rgb(0%,0%,0%)" x1="4.2729" x2="4.258" y1="1.1087" y2="1.1128" /><line stroke="rgb(0%,0%,0%)" x1="4.2731" x2="4.258" y1="1.1166" y2="1.1128" /><line stroke="rgb(0%,0%,0%)" x1="4.258" x2="4.2736" y1="1.1128" y2="1.1126" /><line stroke="rgb(0%,0%,0%)" x1="4.2736" x2="4.2731" y1="1.1126" y2="1.1166" /><line stroke="rgb(0%,0%,0%)" x1="4.2583" x2="4.257" y1="1.113" y2="1.1143" /><line stroke="rgb(0%,0%,0%)" x1="4.257" x2="4.2569" y1="1.1143" y2="1.1139" /><line stroke="rgb(0%,0%,0%)" x1="4.2569" x2="4.2583" y1="1.1139" y2="1.113" /><line stroke="rgb(0%,0%,0%)" x1="4.2581" x2="4.258" y1="1.113" y2="1.1128" /><line stroke="rgb(0%,0%,0%)" x1="4.258" x2="4.258" y1="1.1128" y2="1.1128" /><line stroke="rgb(0%,0%,0%)" x1="4.258" x2="4.2581" y1="1.1128" y2="1.113" /><line stroke="rgb(0%,0%,0%)" x1="4.258" x2="4.2581" y1="1.1128" y2="1.113" /><line stroke="rgb(0%,0%,0%)" x1="4.2581" x2="4.257" y1="1.113" y2="1.1143" /><line stroke="rgb(0%,0%,0%)" x1="4.257" x2="4.258" y1="1.1143" y2="1.1128" /><line stroke="rgb(0%,0%,0%)" x1="4.257" x2="4.2581" y1="1.1143" y2="1.113" /><line stroke="rgb(0%,0%,0%)" x1="4.2581" x2="4.2583" y1="1.113" y2="1.113" /><line stroke="rgb(0%,0%,0%)" x1="4.2583" x2="4.257" y1="1.113" y2="1.1143" /><line stroke="rgb(0%,0%,0%)" x1="4.257" x2="4.2583" y1="1.1143" y2="1.113" /><line stroke="rgb(0%,0%,0%)" x1="4.2583" x2="4.2569" y1="1.113" y2="1.1139" /><line stroke="rgb(0%,0%,0%)" x1="4.2569" x2="4.257" y1="1.1139" y2="1.1143" /></g></svg>