<?xml version="1.0" encoding="utf-8" ?>
<svg baseProfile="tiny" height="100%" version="1.2" width="100%" xmlns="http://www.w3.org/2000/svg" xmlns:ev="http://www.w3.org/2001/xml-events" xmlns:xlink="http://www.w3.org/1999/xlink"><defs /><g id="border"><line stroke="rgb(0%,0%,0%)" x1="0.3702" x2="0.3566" y1="1.169" y2="1.1726" /><line stroke="rgb(0%,0%,0%)" x1="0.3566" x2="0.3702" y1="1.1726" y2="1.169" /><line stroke="rgb(0%,0%,0%)" x1="0.3702" x2="0.3702" y1="1.169" y2="1.169" /><line stroke="rgb(0%,0%,0%)" x1="0.3566" x2="0.3702" y1="1.1726" y2="1.169" /><line stroke="rgb(0%,0%,0%)" x1="0.3702" x2="0.3566" y1="1.169" y2="1.1726" /><line stroke="rgb(0%,0%,0%)" x1="0.3566" x2="0.3566" y1="1.1726" y2="1.1726" /><line stroke="rgb(0%,0%,0%)" x1="0.4092" x2="0.4192" y1="1.2653" y2="1.2554" /><line stroke="rgb(0%,0%,0%)" x1="0.4192" x2="0.4092" y1="1.2554" y2="1.2653" /><line stroke="rgb(0%,0%,0%)" x1="0.4092" x2="0.4092" y1="1.2653" y2="1.2653" /><line stroke="rgb(0%,0%,0%)" x1="0.4192" x2="0.4092" y1="1.2554" y2="1.2653" /><line stroke="rgb(0%,0%,0%)" x1="0.4092" x2="0.4192" y1="1.2653" y2="1.2554" /><line stroke="rgb(0%,0%,0%)" x1="0.4192" x2="0.4192" y1="1.2554" y2="1.2554" /><line stroke="rgb(0%,0%,0%)" x1="0.3444" x2="0.3344" y1="1.1795" y2="1.1894" /><line stroke="rgb(0%,0%,0%)" x1="0.3344" x2="0.3444" y1="1.1894" y2="1.1795" /><line stroke="rgb(0%,0%,0%)" x1="0.3444" x2="0.3444" y1="1.1795" y2="1.1795" /><line stroke="rgb(0%,0%,0%)" x1="0.3344" x2="0.3444" y1="1.1894" y2="1.1795" /><line stroke="rgb(0%,0%,0%)" x1="0.3444" x2="0.3344" y1="1.1795" y2="1.1894" /><line stroke="rgb(0%,0%,0%)" x1="0.3344" x2="0.3344" y1="1.1894" y2="1.1894" /><line stroke="rgb(0%,0%,0%)" x1="0.3566" x2="0.3444" y1="1.1726" y2="1.1795" /><line stroke="rgb(0%,0%,0%)" x1="0.3444" x2="0.3566" y1="1.1795" y2="1.1726" /><line stroke="rgb(0%,0%,0%)" x1="0.3566" x2="0.3566" y1="1.1726" y2="1.1726" /><line stroke="rgb(0%,0%,0%)" x1="0.3444" x2="0.3566" y1="1.1795" y2="1.1726" /><line stroke="rgb(0%,0%,0%)" x1="0.3566" x2="0.3444" y1="1.1726" y2="1.1795" /><line stroke="rgb(0%,0%,0%)" x1="0.3444" x2="0.3444" y1="1.1795" y2="1.1795" /><line stroke="rgb(0%,0%,0%)" x1="0.3842" x2="0.3702" y1="1.1691" y2="1.169" /><line stroke="rgb(0%,0%,0%)" x1="0.3702" x2="0.3702" y1="1.169" y2="1.169" /><line stroke="rgb(0%,0%,0%)" x1="0.3702" x2="0.3842" y1="1.169" y2="1.1691" /><line stroke="rgb(0%,0%,0%)" x1="0.3702" x2="0.3842" y1="1.169" y2="1.1691" /><line stroke="rgb(0%,0%,0%)" x1="0.3842" x2="0.3842" y1="1.1691" y2="1.1691" /><line stroke="rgb(0%,0%,0%)" x1="0.3842" x2="0.3702" y1="1.1691" y2="1.169" /><line stroke="rgb(0%,0%,0%)" x1="0.3977" x2="0.3842" y1="1.1729" y2="1.1691" /><line stroke="rgb(0%,0%,0%)" x1="0.3842" x2="0.3977" y1="1.1691" y2="1.1729" /><line stroke="rgb(0%,0%,0%)" x1="0.3977" x2="0.3977" y1="1.1729" y2="1.1729" /><line stroke="rgb(0%,0%,0%)" x1="0.3842" x2="0.3977" y1="1.1691" y2="1.1729" /><line stroke="rgb(0%,0%,0%)" x1="0.3977" x2="0.3842" y1="1.1729" y2="1.1691" /><line stroke="rgb(0%,0%,0%)" x1="0.3842" x2="0.3842" y1="1.1691" y2="1.1691" /><line stroke="rgb(0%,0%,0%)" x1="0.4098" x2="0.3977" y1="1.18" y2="1.1729" /><line stroke="rgb(0%,0%,0%)" x1="0.3977" x2="0.4098" y1="1.1729" y2="1.18" /><line stroke="rgb(0%,0%,0%)" x1="0.4098" x2="0.4098" y1="1.18" y2="1.18" /><line stroke="rgb(0%,0%,0%)" x1="0.3977" x2="0.4098" y1="1.1729" y2="1.18" /><line stroke="rgb(0%,0%,0%)" x1="0.4098" x2="0.3977" y1="1.18" y2="1.1729" /><line stroke="rgb(0%,0%,0%)" x1="0.3977" x2="0.3977" y1="1.1729" y2="1.1729" /><line stroke="rgb(0%,0%,0%)" x1="0.4197" x2="0.4098" y1="1.19" y2="1.18" /><line stroke="rgb(0%,0%,0%)" x1="0.4098" x2="0.4098" y1="1.18" y2="1.18" /><line stroke="rgb(0%,0%,0%)" x1="0.4098" x2="0.4197" y1="1.18" y2="1.19" /><line stroke="rgb(0%,0%,0%)" x1="0.4098" x2="0.4197" y1="1.18" y2="1.19" /><line stroke="rgb(0%,0%,0%)" x1="0.4197" x2="0.4137" y1="1.19" y2="1.1838" /><line stroke="rgb(0%,0%,0%)" x1="0.4137" x2="0.4098" y1="1.1838" y2="1.18" /><line stroke="rgb(0%,0%,0%)" x1="0.4137" x2="0.4197" y1="1.1838" y2="1.19" /><line stroke="rgb(0%,0%,0%)" x1="0.4197" x2="0.4197" y1="1.19" y2="1.19" /><line stroke="rgb(0%,0%,0%)" x1="0.4197" x2="0.4137" y1="1.19" y2="1.1838" /><line stroke="rgb(0%,0%,0%)" x1="0.4266" x2="0.4197" y1="1.2022" y2="1.19" /><line stroke="rgb(0%,0%,0%)" x1="0.4197" x2="0.4197" y1="1.19" y2="1.19" /><line stroke="rgb(0%,0%,0%)" x1="0.4197" x2="0.4266" y1="1.19" y2="1.2022" /><line stroke="rgb(0%,0%,0%)" x1="0.4197" x2="0.4266" y1="1.19" y2="1.2022" /><line stroke="rgb(0%,0%,0%)" x1="0.4266" x2="0.4266" y1="1.2022" y2="1.2022" /><line stroke="rgb(0%,0%,0%)" x1="0.4266" x2="0.4197" y1="1.2022" y2="1.19" /><line stroke="rgb(0%,0%,0%)" x1="0.4302" x2="0.4266" y1="1.2157" y2="1.2022" /><line stroke="rgb(0%,0%,0%)" x1="0.4266" x2="0.4266" y1="1.2022" y2="1.2022" /><line stroke="rgb(0%,0%,0%)" x1="0.4266" x2="0.4302" y1="1.2022" y2="1.2157" /><line stroke="rgb(0%,0%,0%)" x1="0.4266" x2="0.4302" y1="1.2022" y2="1.2157" /><line stroke="rgb(0%,0%,0%)" x1="0.4302" x2="0.4302" y1="1.2157" y2="1.2157" /><line stroke="rgb(0%,0%,0%)" x1="0.4302" x2="0.4266" y1="1.2157" y2="1.2022" /><line stroke="rgb(0%,0%,0%)" x1="0.4301" x2="0.4302" y1="1.2298" y2="1.2157" /><line stroke="rgb(0%,0%,0%)" x1="0.4302" x2="0.4302" y1="1.2157" y2="1.2157" /><line stroke="rgb(0%,0%,0%)" x1="0.4302" x2="0.4301" y1="1.2157" y2="1.2298" /><line stroke="rgb(0%,0%,0%)" x1="0.4302" x2="0.4301" y1="1.2157" y2="1.2298" /><line stroke="rgb(0%,0%,0%)" x1="0.4301" x2="0.4301" y1="1.2298" y2="1.2298" /><line stroke="rgb(0%,0%,0%)" x1="0.4301" x2="0.4302" y1="1.2298" y2="1.2157" /><line stroke="rgb(0%,0%,0%)" x1="0.4263" x2="0.4301" y1="1.2433" y2="1.2298" /><line stroke="rgb(0%,0%,0%)" x1="0.4301" x2="0.4301" y1="1.2298" y2="1.2298" /><line stroke="rgb(0%,0%,0%)" x1="0.4301" x2="0.4263" y1="1.2298" y2="1.2433" /><line stroke="rgb(0%,0%,0%)" x1="0.4301" x2="0.4263" y1="1.2298" y2="1.2433" /><line stroke="rgb(0%,0%,0%)" x1="0.4263" x2="0.4263" y1="1.2433" y2="1.2433" /><line stroke="rgb(0%,0%,0%)" x1="0.4263" x2="0.4301" y1="1.2433" y2="1.2298" /><line stroke="rgb(0%,0%,0%)" x1="0.4192" x2="0.4263" y1="1.2554" y2="1.2433" /><line stroke="rgb(0%,0%,0%)" x1="0.4263" x2="0.4263" y1="1.2433" y2="1.2433" /><line stroke="rgb(0%,0%,0%)" x1="0.4263" x2="0.4192" y1="1.2433" y2="1.2554" /><line stroke="rgb(0%,0%,0%)" x1="0.4263" x2="0.4192" y1="1.2433" y2="1.2554" /><line stroke="rgb(0%,0%,0%)" x1="0.4192" x2="0.4192" y1="1.2554" y2="1.2554" /><line stroke="rgb(0%,0%,0%)" x1="0.4192" x2="0.4263" y1="1.2554" y2="1.2433" /><line stroke="rgb(0%,0%,0%)" x1="0.397" x2="0.4092" y1="1.2722" y2="1.2653" /><line stroke="rgb(0%,0%,0%)" x1="0.4092" x2="0.397" y1="1.2653" y2="1.2722" /><line stroke="rgb(0%,0%,0%)" x1="0.397" x2="0.397" y1="1.2722" y2="1.2722" /><line stroke="rgb(0%,0%,0%)" x1="0.4092" x2="0.397" y1="1.2653" y2="1.2722" /><line stroke="rgb(0%,0%,0%)" x1="0.397" x2="0.4092" y1="1.2722" y2="1.2653" /><line stroke="rgb(0%,0%,0%)" x1="0.4092" x2="0.4092" y1="1.2653" y2="1.2653" /><line stroke="rgb(0%,0%,0%)" x1="0.3835" x2="0.397" y1="1.2757" y2="1.2722" /><line stroke="rgb(0%,0%,0%)" x1="0.397" x2="0.3835" y1="1.2722" y2="1.2757" /><line stroke="rgb(0%,0%,0%)" x1="0.3835" x2="0.3835" y1="1.2757" y2="1.2757" /><line stroke="rgb(0%,0%,0%)" x1="0.397" x2="0.3835" y1="1.2722" y2="1.2757" /><line stroke="rgb(0%,0%,0%)" x1="0.3835" x2="0.397" y1="1.2757" y2="1.2722" /><line stroke="rgb(0%,0%,0%)" x1="0.397" x2="0.397" y1="1.2722" y2="1.2722" /><line stroke="rgb(0%,0%,0%)" x1="0.3694" x2="0.3835" y1="1.2756" y2="1.2757" /><line stroke="rgb(0%,0%,0%)" x1="0.3835" x2="0.3694" y1="1.2757" y2="1.2756" /><line stroke="rgb(0%,0%,0%)" x1="0.3694" x2="0.3694" y1="1.2756" y2="1.2756" /><line stroke="rgb(0%,0%,0%)" x1="0.3835" x2="0.3694" y1="1.2757" y2="1.2756" /><line stroke="rgb(0%,0%,0%)" x1="0.3694" x2="0.3835" y1="1.2756" y2="1.2757" /><line stroke="rgb(0%,0%,0%)" x1="0.3835" x2="0.3835" y1="1.2757" y2="1.2757" /><line stroke="rgb(0%,0%,0%)" x1="0.3559" x2="0.3694" y1="1.2719" y2="1.2756" /><line stroke="rgb(0%,0%,0%)" x1="0.3694" x2="0.3559" y1="1.2756" y2="1.2719" /><line stroke="rgb(0%,0%,0%)" x1="0.3559" x2="0.3559" y1="1.2719" y2="1.2719" /><line stroke="rgb(0%,0%,0%)" x1="0.3694" x2="0.3559" y1="1.2756" y2="1.2719" /><line stroke="rgb(0%,0%,0%)" x1="0.3559" x2="0.3694" y1="1.2719" y2="1.2756" /><line stroke="rgb(0%,0%,0%)" x1="0.3694" x2="0.3694" y1="1.2756" y2="1.2756" /><line stroke="rgb(0%,0%,0%)" x1="0.3438" x2="0.3559" y1="1.2648" y2="1.2719" /><line stroke="rgb(0%,0%,0%)" x1="0.3559" x2="0.3438" y1="1.2719" y2="1.2648" /><line stroke="rgb(0%,0%,0%)" x1="0.3438" x2="0.3438" y1="1.2648" y2="1.2648" /><line stroke="rgb(0%,0%,0%)" x1="0.3559" x2="0.3438" y1="1.2719" y2="1.2648" /><line stroke="rgb(0%,0%,0%)" x1="0.3438" x2="0.3559" y1="1.2648" y2="1.2719" /><line stroke="rgb(0%,0%,0%)" x1="0.3559" x2="0.3559" y1="1.2719" y2="1.2719" /><line stroke="rgb(0%,0%,0%)" x1="0.34" x2="0.3339" y1="1.2609" y2="1.2548" /><line stroke="rgb(0%,0%,0%)" x1="0.3339" x2="0.3339" y1="1.2548" y2="1.2548" /><line stroke="rgb(0%,0%,0%)" x1="0.3339" x2="0.34" y1="1.2548" y2="1.2609" /><line stroke="rgb(0%,0%,0%)" x1="0.3339" x2="0.34" y1="1.2548" y2="1.2609" /><line stroke="rgb(0%,0%,0%)" x1="0.34" x2="0.3438" y1="1.2609" y2="1.2648" /><line stroke="rgb(0%,0%,0%)" x1="0.3438" x2="0.3339" y1="1.2648" y2="1.2548" /><line stroke="rgb(0%,0%,0%)" x1="0.3438" x2="0.34" y1="1.2648" y2="1.2609" /><line stroke="rgb(0%,0%,0%)" x1="0.34" x2="0.3438" y1="1.2609" y2="1.2648" /><line stroke="rgb(0%,0%,0%)" x1="0.3438" x2="0.3438" y1="1.2648" y2="1.2648" /><line stroke="rgb(0%,0%,0%)" x1="0.3339" x2="0.327" y1="1.2548" y2="1.2426" /><line stroke="rgb(0%,0%,0%)" x1="0.327" x2="0.327" y1="1.2426" y2="1.2426" /><line stroke="rgb(0%,0%,0%)" x1="0.327" x2="0.3339" y1="1.2426" y2="1.2548" /><line stroke="rgb(0%,0%,0%)" x1="0.327" x2="0.3339" y1="1.2426" y2="1.2548" /><line stroke="rgb(0%,0%,0%)" x1="0.3339" x2="0.3339" y1="1.2548" y2="1.2548" /><line stroke="rgb(0%,0%,0%)" x1="0.3339" x2="0.327" y1="1.2548" y2="1.2426" /><line stroke="rgb(0%,0%,0%)" x1="0.327" x2="0.3235" y1="1.2426" y2="1.229" /><line stroke="rgb(0%,0%,0%)" x1="0.3235" x2="0.3235" y1="1.229" y2="1.229" /><line stroke="rgb(0%,0%,0%)" x1="0.3235" x2="0.327" y1="1.229" y2="1.2426" /><line stroke="rgb(0%,0%,0%)" x1="0.3235" x2="0.327" y1="1.229" y2="1.2426" /><line stroke="rgb(0%,0%,0%)" x1="0.327" x2="0.327" y1="1.2426" y2="1.2426" /><line stroke="rgb(0%,0%,0%)" x1="0.327" x2="0.3235" y1="1.2426" y2="1.229" /><line stroke="rgb(0%,0%,0%)" x1="0.3235" x2="0.3236" y1="1.229" y2="1.215" /><line stroke="rgb(0%,0%,0%)" x1="0.3236" x2="0.3236" y1="1.215" y2="1.215" /><line stroke="rgb(0%,0%,0%)" x1="0.3236" x2="0.3235" y1="1.215" y2="1.229" /><line stroke="rgb(0%,0%,0%)" x1="0.3236" x2="0.3235" y1="1.215" y2="1.229" /><line stroke="rgb(0%,0%,0%)" x1="0.3235" x2="0.3235" y1="1.229" y2="1.229" /><line stroke="rgb(0%,0%,0%)" x1="0.3235" x2="0.3236" y1="1.229" y2="1.215" /><line stroke="rgb(0%,0%,0%)" x1="0.3236" x2="0.3273" y1="1.215" y2="1.2015" /><line stroke="rgb(0%,0%,0%)" x1="0.3273" x2="0.3273" y1="1.2015" y2="1.2015" /><line stroke="rgb(0%,0%,0%)" x1="0.3273" x2="0.3236" y1="1.2015" y2="1.215" /><line stroke="rgb(0%,0%,0%)" x1="0.3273" x2="0.3236" y1="1.2015" y2="1.215" /><line stroke="rgb(0%,0%,0%)" x1="0.3236" x2="0.3236" y1="1.215" y2="1.215" /><line stroke="rgb(0%,0%,0%)" x1="0.3236" x2="0.3273" y1="1.215" y2="1.2015" /><line stroke="rgb(0%,0%,0%)" x1="0.3273" x2="0.3344" y1="1.2015" y2="1.1894" /><line stroke="rgb(0%,0%,0%)" x1="0.3344" x2="0.3344" y1="1.1894" y2="1.1894" /><line stroke="rgb(0%,0%,0%)" x1="0.3344" x2="0.3273" y1="1.1894" y2="1.2015" /><line stroke="rgb(0%,0%,0%)" x1="0.3344" x2="0.3273" y1="1.1894" y2="1.2015" /><line stroke="rgb(0%,0%,0%)" x1="0.3273" x2="0.3273" y1="1.2015" y2="1.2015" /><line stroke="rgb(0%,0%,0%)" x1="0.3273" x2="0.3344" y1="1.2015" y2="1.1894" /><line stroke="rgb(0%,0%,0%)" x1="4.2184" x2="4.2244" y1="1.0771" y2="1.0709" /><line stroke="rgb(0%,0%,0%)" x1="4.2244" x2="4.2244" y1="1.0709" y2="1.0709" /><line stroke="rgb(0%,0%,0%)" x1="4.2244" x2="4.2184" y1="1.0709" y2="1.0771" /><line stroke="rgb(0%,0%,0%)" x1="4.2244" x2="4.2184" y1="1.0709" y2="1.0771" /><line stroke="rgb(0%,0%,0%)" x1="4.2184" x2="4.2147" y1="1.0771" y2="1.081" /><line stroke="rgb(0%,0%,0%)" x1="4.2147" x2="4.2244" y1="1.081" y2="1.0709" /><line stroke="rgb(0%,0%,0%)" x1="4.2147" x2="4.2184" y1="1.081" y2="1.0771" /><line stroke="rgb(0%,0%,0%)" x1="4.2184" x2="4.2147" y1="1.0771" y2="1.081" /><line stroke="rgb(0%,0%,0%)" x1="4.2147" x2="4.2147" y1="1.081" y2="1.081" /><line stroke="rgb(0%,0%,0%)" x1="4.2364" x2="4.2244" y1="1.0636" y2="1.0709" /><line stroke="rgb(0%,0%,0%)" x1="4.2244" x2="4.2364" y1="1.0709" y2="1.0636" /><line stroke="rgb(0%,0%,0%)" x1="4.2364" x2="4.2364" y1="1.0636" y2="1.0636" /><line stroke="rgb(0%,0%,0%)" x1="4.2244" x2="4.2364" y1="1.0709" y2="1.0636" /><line stroke="rgb(0%,0%,0%)" x1="4.2364" x2="4.2244" y1="1.0636" y2="1.0709" /><line stroke="rgb(0%,0%,0%)" x1="4.2244" x2="4.2244" y1="1.0709" y2="1.0709" /><line stroke="rgb(0%,0%,0%)" x1="4.2639" x2="4.2498" y1="1.0593" y2="1.0596" /><line stroke="rgb(0%,0%,0%)" x1="4.2498" x2="4.2498" y1="1.0596" y2="1.0596" /><line stroke="rgb(0%,0%,0%)" x1="4.2498" x2="4.2639" y1="1.0596" y2="1.0593" /><line stroke="rgb(0%,0%,0%)" x1="4.2498" x2="4.2639" y1="1.0596" y2="1.0593" /><line stroke="rgb(0%,0%,0%)" x1="4.2639" x2="4.2639" y1="1.0593" y2="1.0593" /><line stroke="rgb(0%,0%,0%)" x1="4.2639" x2="4.2498" y1="1.0593" y2="1.0596" /><line stroke="rgb(0%,0%,0%)" x1="4.2775" x2="4.2639" y1="1.0627" y2="1.0593" /><line stroke="rgb(0%,0%,0%)" x1="4.2639" x2="4.2775" y1="1.0593" y2="1.0627" /><line stroke="rgb(0%,0%,0%)" x1="4.2775" x2="4.2775" y1="1.0627" y2="1.0627" /><line stroke="rgb(0%,0%,0%)" x1="4.2639" x2="4.2775" y1="1.0593" y2="1.0627" /><line stroke="rgb(0%,0%,0%)" x1="4.2775" x2="4.2639" y1="1.0627" y2="1.0593" /><line stroke="rgb(0%,0%,0%)" x1="4.2639" x2="4.2639" y1="1.0593" y2="1.0593" /><line stroke="rgb(0%,0%,0%)" x1="4.2898" x2="4.2775" y1="1.0694" y2="1.0627" /><line stroke="rgb(0%,0%,0%)" x1="4.2775" x2="4.2898" y1="1.0627" y2="1.0694" /><line stroke="rgb(0%,0%,0%)" x1="4.2898" x2="4.2898" y1="1.0694" y2="1.0694" /><line stroke="rgb(0%,0%,0%)" x1="4.2775" x2="4.2898" y1="1.0627" y2="1.0694" /><line stroke="rgb(0%,0%,0%)" x1="4.2898" x2="4.2775" y1="1.0694" y2="1.0627" /><line stroke="rgb(0%,0%,0%)" x1="4.2775" x2="4.2775" y1="1.0627" y2="1.0627" /><line stroke="rgb(0%,0%,0%)" x1="4.3" x2="4.2898" y1="1.0791" y2="1.0694" /><line stroke="rgb(0%,0%,0%)" x1="4.2898" x2="4.3" y1="1.0694" y2="1.0791" /><line stroke="rgb(0%,0%,0%)" x1="4.3" x2="4.3" y1="1.0791" y2="1.0791" /><line stroke="rgb(0%,0%,0%)" x1="4.2898" x2="4.3" y1="1.0694" y2="1.0791" /><line stroke="rgb(0%,0%,0%)" x1="4.3" x2="4.2898" y1="1.0791" y2="1.0694" /><line stroke="rgb(0%,0%,0%)" x1="4.2898" x2="4.2898" y1="1.0694" y2="1.0694" /><line stroke="rgb(0%,0%,0%)" x1="4.3073" x2="4.3" y1="1.0911" y2="1.0791" /><line stroke="rgb(0%,0%,0%)" x1="4.3" x2="4.3" y1="1.0791" y2="1.0791" /><line stroke="rgb(0%,0%,0%)" x1="4.3" x2="4.3073" y1="1.0791" y2="1.0911" /><line stroke="rgb(0%,0%,0%)" x1="4.3" x2="4.3073" y1="1.0791" y2="1.0911" /><line stroke="rgb(0%,0%,0%)" x1="4.3073" x2="4.3073" y1="1.0911" y2="1.0911" /><line stroke="rgb(0%,0%,0%)" x1="4.3073" x2="4.3" y1="1.0911" y2="1.0791" /><line stroke="rgb(0%,0%,0%)" x1="4.3112" x2="4.3073" y1="1.1046" y2="1.0911" /><line stroke="rgb(0%,0%,0%)" x1="4.3073" x2="4.3073" y1="1.0911" y2="1.0911" /><line stroke="rgb(0%,0%,0%)" x1="4.3073" x2="4.3112" y1="1.0911" y2="1.1046" /><line stroke="rgb(0%,0%,0%)" x1="4.3073" x2="4.3112" y1="1.0911" y2="1.1046" /><line stroke="rgb(0%,0%,0%)" x1="4.3112" x2="4.3112" y1="1.1046" y2="1.1046" /><line stroke="rgb(0%,0%,0%)" x1="4.3112" x2="4.3073" y1="1.1046" y2="1.0911" /><line stroke="rgb(0%,0%,0%)" x1="4.3115" x2="4.3112" y1="1.1186" y2="1.1046" /><line stroke="rgb(0%,0%,0%)" x1="4.3112" x2="4.3112" y1="1.1046" y2="1.1046" /><line stroke="rgb(0%,0%,0%)" x1="4.3112" x2="4.3115" y1="1.1046" y2="1.1186" /><line stroke="rgb(0%,0%,0%)" x1="4.3112" x2="4.3115" y1="1.1046" y2="1.1186" /><line stroke="rgb(0%,0%,0%)" x1="4.3115" x2="4.3115" y1="1.1186" y2="1.1186" /><line stroke="rgb(0%,0%,0%)" x1="4.3115" x2="4.3112" y1="1.1186" y2="1.1046" /><line stroke="rgb(0%,0%,0%)" x1="4.3082" x2="4.3115" y1="1.1322" y2="1.1186" /><line stroke="rgb(0%,0%,0%)" x1="4.3115" x2="4.3115" y1="1.1186" y2="1.1186" /><line stroke="rgb(0%,0%,0%)" x1="4.3115" x2="4.3082" y1="1.1186" y2="1.1322" /><line stroke="rgb(0%,0%,0%)" x1="4.3115" x2="4.3082" y1="1.1186" y2="1.1322" /><line stroke="rgb(0%,0%,0%)" x1="4.3082" x2="4.3082" y1="1.1322" y2="1.1322" /><line stroke="rgb(0%,0%,0%)" x1="4.3082" x2="4.3115" y1="1.1322" y2="1.1186" /><line stroke="rgb(0%,0%,0%)" x1="4.3015" x2="4.3082" y1="1.1445" y2="1.1322" /><line stroke="rgb(0%,0%,0%)" x1="4.3082" x2="4.3082" y1="1.1322" y2="1.1322" /><line stroke="rgb(0%,0%,0%)" x1="4.3082" x2="4.3015" y1="1.1322" y2="1.1445" /><line stroke="rgb(0%,0%,0%)" x1="4.3082" x2="4.3015" y1="1.1322" y2="1.1445" /><line stroke="rgb(0%,0%,0%)" x1="4.3015" x2="4.3015" y1="1.1445" y2="1.1445" /><line stroke="rgb(0%,0%,0%)" x1="4.3015" x2="4.3082" y1="1.1445" y2="1.1322" /><line stroke="rgb(0%,0%,0%)" x1="4.2798" x2="4.2918" y1="1.162" y2="1.1547" /><line stroke="rgb(0%,0%,0%)" x1="4.2918" x2="4.2798" y1="1.1547" y2="1.162" /><line stroke="rgb(0%,0%,0%)" x1="4.2798" x2="4.2798" y1="1.162" y2="1.162" /><line stroke="rgb(0%,0%,0%)" x1="4.2918" x2="4.2798" y1="1.1547" y2="1.162" /><line stroke="rgb(0%,0%,0%)" x1="4.2798" x2="4.2918" y1="1.162" y2="1.1547" /><line stroke="rgb(0%,0%,0%)" x1="4.2918" x2="4.2918" y1="1.1547" y2="1.1547" /><line stroke="rgb(0%,0%,0%)" x1="4.2663" x2="4.2798" y1="1.1659" y2="1.162" /><line stroke="rgb(0%,0%,0%)" x1="4.2798" x2="4.2663" y1="1.162" y2="1.1659" /><line stroke="rgb(0%,0%,0%)" x1="4.2663" x2="4.2663" y1="1.1659" y2="1.1659" /><line stroke="rgb(0%,0%,0%)" x1="4.2798" x2="4.2663" y1="1.162" y2="1.1659" /><line stroke="rgb(0%,0%,0%)" x1="4.2663" x2="4.2798" y1="1.1659" y2="1.162" /><line stroke="rgb(0%,0%,0%)" x1="4.2798" x2="4.2798" y1="1.162" y2="1.162" /><line stroke="rgb(0%,0%,0%)" x1="4.2523" x2="4.2663" y1="1.1662" y2="1.1659" /><line stroke="rgb(0%,0%,0%)" x1="4.2663" x2="4.2523" y1="1.1659" y2="1.1662" /><line stroke="rgb(0%,0%,0%)" x1="4.2523" x2="4.2523" y1="1.1662" y2="1.1662" /><line stroke="rgb(0%,0%,0%)" x1="4.2663" x2="4.2523" y1="1.1659" y2="1.1662" /><line stroke="rgb(0%,0%,0%)" x1="4.2523" x2="4.2663" y1="1.1662" y2="1.1659" /><line stroke="rgb(0%,0%,0%)" x1="4.2663" x2="4.2663" y1="1.1659" y2="1.1659" /><line stroke="rgb(0%,0%,0%)" x1="4.2386" x2="4.2523" y1="1.1629" y2="1.1662" /><line stroke="rgb(0%,0%,0%)" x1="4.2523" x2="4.2386" y1="1.1662" y2="1.1629" /><line stroke="rgb(0%,0%,0%)" x1="4.2386" x2="4.2386" y1="1.1629" y2="1.1629" /><line stroke="rgb(0%,0%,0%)" x1="4.2523" x2="4.2386" y1="1.1662" y2="1.1629" /><line stroke="rgb(0%,0%,0%)" x1="4.2386" x2="4.2523" y1="1.1629" y2="1.1662" /><line stroke="rgb(0%,0%,0%)" x1="4.2523" x2="4.2523" y1="1.1662" y2="1.1662" /><line stroke="rgb(0%,0%,0%)" x1="4.2263" x2="4.2386" y1="1.1562" y2="1.1629" /><line stroke="rgb(0%,0%,0%)" x1="4.2386" x2="4.2263" y1="1.1629" y2="1.1562" /><line stroke="rgb(0%,0%,0%)" x1="4.2263" x2="4.2263" y1="1.1562" y2="1.1562" /><line stroke="rgb(0%,0%,0%)" x1="4.2386" x2="4.2263" y1="1.1629" y2="1.1562" /><line stroke="rgb(0%,0%,0%)" x1="4.2263" x2="4.2386" y1="1.1562" y2="1.1629" /><line stroke="rgb(0%,0%,0%)" x1="4.2386" x2="4.2386" y1="1.1629" y2="1.1629" /><line stroke="rgb(0%,0%,0%)" x1="4.2162" x2="4.2263" y1="1.1465" y2="1.1562" /><line stroke="rgb(0%,0%,0%)" x1="4.2263" x2="4.2162" y1="1.1562" y2="1.1465" /><line stroke="rgb(0%,0%,0%)" x1="4.2162" x2="4.2162" y1="1.1465" y2="1.1465" /><line stroke="rgb(0%,0%,0%)" x1="4.2263" x2="4.2162" y1="1.1562" y2="1.1465" /><line stroke="rgb(0%,0%,0%)" x1="4.2162" x2="4.2263" y1="1.1465" y2="1.1562" /><line stroke="rgb(0%,0%,0%)" x1="4.2263" x2="4.2263" y1="1.1562" y2="1.1562" /><line stroke="rgb(0%,0%,0%)" x1="4.2162" x2="4.2089" y1="1.1465" y2="1.1345" /><line stroke="rgb(0%,0%,0%)" x1="4.2089" x2="4.2089" y1="1.1345" y2="1.1345" /><line stroke="rgb(0%,0%,0%)" x1="4.2089" x2="4.2162" y1="1.1345" y2="1.1465" /><line stroke="rgb(0%,0%,0%)" x1="4.2089" x2="4.2162" y1="1.1345" y2="1.1465" /><line stroke="rgb(0%,0%,0%)" x1="4.2162" x2="4.2162" y1="1.1465" y2="1.1465" /><line stroke="rgb(0%,0%,0%)" x1="4.2162" x2="4.2089" y1="1.1465" y2="1.1345" /><line stroke="rgb(0%,0%,0%)" x1="4.2089" x2="4.2049" y1="1.1345" y2="1.121" /><line stroke="rgb(0%,0%,0%)" x1="4.2049" x2="4.2049" y1="1.121" y2="1.121" /><line stroke="rgb(0%,0%,0%)" x1="4.2049" x2="4.2089" y1="1.121" y2="1.1345" /><line stroke="rgb(0%,0%,0%)" x1="4.2049" x2="4.2089" y1="1.121" y2="1.1345" /><line stroke="rgb(0%,0%,0%)" x1="4.2089" x2="4.2089" y1="1.1345" y2="1.1345" /><line stroke="rgb(0%,0%,0%)" x1="4.2089" x2="4.2049" y1="1.1345" y2="1.121" /><line stroke="rgb(0%,0%,0%)" x1="4.2049" x2="4.2046" y1="1.121" y2="1.107" /><line stroke="rgb(0%,0%,0%)" x1="4.2046" x2="4.2046" y1="1.107" y2="1.107" /><line stroke="rgb(0%,0%,0%)" x1="4.2046" x2="4.2049" y1="1.107" y2="1.121" /><line stroke="rgb(0%,0%,0%)" x1="4.2046" x2="4.2049" y1="1.107" y2="1.121" /><line stroke="rgb(0%,0%,0%)" x1="4.2049" x2="4.2049" y1="1.121" y2="1.121" /><line stroke="rgb(0%,0%,0%)" x1="4.2049" x2="4.2046" y1="1.121" y2="1.107" /><line stroke="rgb(0%,0%,0%)" x1="4.2046" x2="4.2079" y1="1.107" y2="1.0933" /><line stroke="rgb(0%,0%,0%)" x1="4.2079" x2="4.2079" y1="1.0933" y2="1.0933" /><line stroke="rgb(0%,0%,0%)" x1="4.2079" x2="4.2046" y1="1.0933" y2="1.107" /><line stroke="rgb(0%,0%,0%)" x1="4.2079" x2="4.2046" y1="1.0933" y2="1.107" /><line stroke="rgb(0%,0%,0%)" x1="4.2046" x2="4.2046" y1="1.107" y2="1.107" /><line stroke="rgb(0%,0%,0%)" x1="4.2046" x2="4.2079" y1="1.107" y2="1.0933" /><line stroke="rgb(0%,0%,0%)" x1="4.2079" x2="4.2147" y1="1.0933" y2="1.081" /><line stroke="rgb(0%,0%,0%)" x1="4.2147" x2="4.2147" y1="1.081" y2="1.081" /><line stroke="rgb(0%,0%,0%)" x1="4.2147" x2="4.2079" y1="1.081" y2="1.0933" /><line stroke="rgb(0%,0%,0%)" x1="4.2147" x2="4.2079" y1="1.081" y2="1.0933" /><line stroke="rgb(0%,0%,0%)" x1="4.2079" x2="4.2079" y1="1.0933" y2="1.0933" /><line stroke="rgb(0%,0%,0%)" x1="4.2079" x2="4.2147" y1="1.0933" y2="1.081" /><line stroke="rgb(0%,0%,0%)" x1="4.2918" x2="4.3015" y1="1.1547" y2="1.1445" /><line stroke="rgb(0%,0%,0%)" x1="4.3015" x2="4.3015" y1="1.1445" y2="1.1445" /><line stroke="rgb(0%,0%,0%)" x1="4.3015" x2="4.2918" y1="1.1445" y2="1.1547" /><line stroke="rgb(0%,0%,0%)" x1="4.3015" x2="4.2918" y1="1.1445" y2="1.1547" /><line stroke="rgb(0%,0%,0%)" x1="4.2918" x2="4.2977" y1="1.1547" y2="1.1485" /><line stroke="rgb(0%,0%,0%)" x1="4.2977" x2="4.3015" y1="1.1485" y2="1.1445" /><line stroke="rgb(0%,0%,0%)" x1="4.2977" x2="4.2918" y1="1.1485" y2="1.1547" /><line stroke="rgb(0%,0%,0%)" x1="4.2918" x2="4.2918" y1="1.1547" y2="1.1547" /><line stroke="rgb(0%,0%,0%)" x1="4.2918" x2="4.2977" y1="1.1547" y2="1.1485" /><line stroke="rgb(0%,0%,0%)" x1="4.2498" x2="4.2364" y1="1.0596" y2="1.0636" /><line stroke="rgb(0%,0%,0%)" x1="4.2364" x2="4.2498" y1="1.0636" y2="1.0596" /><line stroke="rgb(0%,0%,0%)" x1="4.2498" x2="4.2498" y1="1.0596" y2="1.0596" /><line stroke="rgb(0%,0%,0%)" x1="4.2364" x2="4.2498" y1="1.0636" y2="1.0596" /><line stroke="rgb(0%,0%,0%)" x1="4.2498" x2="4.2364" y1="1.0596" y2="1.0636" /><line stroke="rgb(0%,0%,0%)" x1="4.2364" x2="4.2364" y1="1.0636" y2="1.0636" /></g></svg>