<?xml version="1.0" encoding="utf-8" ?>
<svg baseProfile="tiny" height="100%" version="1.2" width="100%" xmlns="http://www.w3.org/2000/svg" xmlns:ev="http://www.w3.org/2001/xml-events" xmlns:xlink="http://www.w3.org/1999/xlink"><defs /><g id="border"><line stroke="rgb(0%,0%,0%)" x1="0.3757" x2="0.3693" y1="1.2239" y2="1.2358" /><line stroke="rgb(0%,0%,0%)" x1="0.3693" x2="0.3662" y1="1.2358" y2="1.2334" /><line stroke="rgb(0%,0%,0%)" x1="0.3662" x2="0.3757" y1="1.2334" y2="1.2239" /><line stroke="rgb(0%,0%,0%)" x1="0.3662" x2="0.3638" y1="1.2334" y2="1.2302" /><line stroke="rgb(0%,0%,0%)" x1="0.3638" x2="0.3757" y1="1.2302" y2="1.2239" /><line stroke="rgb(0%,0%,0%)" x1="0.3757" x2="0.3662" y1="1.2239" y2="1.2334" /><line stroke="rgb(0%,0%,0%)" x1="0.3638" x2="0.3623" y1="1.2302" y2="1.2265" /><line stroke="rgb(0%,0%,0%)" x1="0.3623" x2="0.3757" y1="1.2265" y2="1.2239" /><line stroke="rgb(0%,0%,0%)" x1="0.3757" x2="0.3638" y1="1.2239" y2="1.2302" /><line stroke="rgb(0%,0%,0%)" x1="0.3623" x2="0.3618" y1="1.2265" y2="1.2225" /><line stroke="rgb(0%,0%,0%)" x1="0.3618" x2="0.3757" y1="1.2225" y2="1.2239" /><line stroke="rgb(0%,0%,0%)" x1="0.3757" x2="0.3623" y1="1.2239" y2="1.2265" /><line stroke="rgb(0%,0%,0%)" x1="0.3757" x2="0.377" y1="1.2239" y2="1.2379" /><line stroke="rgb(0%,0%,0%)" x1="0.377" x2="0.373" y1="1.2379" y2="1.2373" /><line stroke="rgb(0%,0%,0%)" x1="0.373" x2="0.3757" y1="1.2373" y2="1.2239" /><line stroke="rgb(0%,0%,0%)" x1="0.377" x2="0.3757" y1="1.2379" y2="1.2239" /><line stroke="rgb(0%,0%,0%)" x1="0.3757" x2="0.3779" y1="1.2239" y2="1.2255" /><line stroke="rgb(0%,0%,0%)" x1="0.3779" x2="0.377" y1="1.2255" y2="1.2379" /><line stroke="rgb(0%,0%,0%)" x1="0.3757" x2="0.373" y1="1.2239" y2="1.2373" /><line stroke="rgb(0%,0%,0%)" x1="0.373" x2="0.3693" y1="1.2373" y2="1.2358" /><line stroke="rgb(0%,0%,0%)" x1="0.3693" x2="0.3757" y1="1.2358" y2="1.2239" /><line stroke="rgb(0%,0%,0%)" x1="0.3794" x2="0.3879" y1="1.2268" y2="1.2333" /><line stroke="rgb(0%,0%,0%)" x1="0.3879" x2="0.3846" y1="1.2333" y2="1.2359" /><line stroke="rgb(0%,0%,0%)" x1="0.3846" x2="0.3794" y1="1.2359" y2="1.2268" /><line stroke="rgb(0%,0%,0%)" x1="0.3879" x2="0.3794" y1="1.2333" y2="1.2268" /><line stroke="rgb(0%,0%,0%)" x1="0.3794" x2="0.3869" y1="1.2268" y2="1.2326" /><line stroke="rgb(0%,0%,0%)" x1="0.3869" x2="0.3879" y1="1.2326" y2="1.2333" /><line stroke="rgb(0%,0%,0%)" x1="0.3869" x2="0.3794" y1="1.2326" y2="1.2268" /><line stroke="rgb(0%,0%,0%)" x1="0.3794" x2="0.3768" y1="1.2268" y2="1.2225" /><line stroke="rgb(0%,0%,0%)" x1="0.3768" x2="0.3869" y1="1.2225" y2="1.2326" /><line stroke="rgb(0%,0%,0%)" x1="0.3779" x2="0.3846" y1="1.2255" y2="1.2359" /><line stroke="rgb(0%,0%,0%)" x1="0.3846" x2="0.3809" y1="1.2359" y2="1.2374" /><line stroke="rgb(0%,0%,0%)" x1="0.3809" x2="0.3779" y1="1.2374" y2="1.2255" /><line stroke="rgb(0%,0%,0%)" x1="0.3846" x2="0.3779" y1="1.2359" y2="1.2255" /><line stroke="rgb(0%,0%,0%)" x1="0.3779" x2="0.3794" y1="1.2255" y2="1.2268" /><line stroke="rgb(0%,0%,0%)" x1="0.3794" x2="0.3846" y1="1.2268" y2="1.2359" /><line stroke="rgb(0%,0%,0%)" x1="0.3779" x2="0.3809" y1="1.2255" y2="1.2374" /><line stroke="rgb(0%,0%,0%)" x1="0.3809" x2="0.377" y1="1.2374" y2="1.2379" /><line stroke="rgb(0%,0%,0%)" x1="0.377" x2="0.3779" y1="1.2379" y2="1.2255" /><line stroke="rgb(0%,0%,0%)" x1="0.3869" x2="0.3768" y1="1.2326" y2="1.2226" /><line stroke="rgb(0%,0%,0%)" x1="0.3768" x2="0.3768" y1="1.2226" y2="1.2225" /><line stroke="rgb(0%,0%,0%)" x1="0.3768" x2="0.3869" y1="1.2225" y2="1.2326" /><line stroke="rgb(0%,0%,0%)" x1="0.3768" x2="0.3869" y1="1.2226" y2="1.2326" /><line stroke="rgb(0%,0%,0%)" x1="0.3869" x2="0.377" y1="1.2326" y2="1.2226" /><line stroke="rgb(0%,0%,0%)" x1="0.377" x2="0.3768" y1="1.2226" y2="1.2226" /><line stroke="rgb(0%,0%,0%)" x1="0.377" x2="0.3869" y1="1.2226" y2="1.2326" /><line stroke="rgb(0%,0%,0%)" x1="0.3869" x2="0.3772" y1="1.2326" y2="1.2248" /><line stroke="rgb(0%,0%,0%)" x1="0.3772" x2="0.377" y1="1.2248" y2="1.2226" /><line stroke="rgb(0%,0%,0%)" x1="0.3772" x2="0.3869" y1="1.2248" y2="1.2326" /><line stroke="rgb(0%,0%,0%)" x1="0.3869" x2="0.3779" y1="1.2326" y2="1.2255" /><line stroke="rgb(0%,0%,0%)" x1="0.3779" x2="0.3772" y1="1.2255" y2="1.2248" /><line stroke="rgb(0%,0%,0%)" x1="0.3779" x2="0.3869" y1="1.2255" y2="1.2326" /><line stroke="rgb(0%,0%,0%)" x1="0.3869" x2="0.3794" y1="1.2326" y2="1.2268" /><line stroke="rgb(0%,0%,0%)" x1="0.3794" x2="0.3779" y1="1.2268" y2="1.2255" /><line stroke="rgb(0%,0%,0%)" x1="0.3869" x2="0.3902" y1="1.2326" y2="1.2303" /><line stroke="rgb(0%,0%,0%)" x1="0.3902" x2="0.3768" y1="1.2303" y2="1.2225" /><line stroke="rgb(0%,0%,0%)" x1="0.3768" x2="0.3869" y1="1.2225" y2="1.2326" /><line stroke="rgb(0%,0%,0%)" x1="0.3923" x2="0.3768" y1="1.2227" y2="1.2225" /><line stroke="rgb(0%,0%,0%)" x1="0.3768" x2="0.3918" y1="1.2225" y2="1.2187" /><line stroke="rgb(0%,0%,0%)" x1="0.3918" x2="0.3923" y1="1.2187" y2="1.2227" /><line stroke="rgb(0%,0%,0%)" x1="0.3768" x2="0.3618" y1="1.2225" y2="1.2225" /><line stroke="rgb(0%,0%,0%)" x1="0.3618" x2="0.3623" y1="1.2225" y2="1.2186" /><line stroke="rgb(0%,0%,0%)" x1="0.3623" x2="0.3768" y1="1.2186" y2="1.2225" /><line stroke="rgb(0%,0%,0%)" x1="0.3618" x2="0.3768" y1="1.2225" y2="1.2225" /><line stroke="rgb(0%,0%,0%)" x1="0.3768" x2="0.3756" y1="1.2225" y2="1.2235" /><line stroke="rgb(0%,0%,0%)" x1="0.3756" x2="0.3618" y1="1.2235" y2="1.2225" /><line stroke="rgb(0%,0%,0%)" x1="0.3618" x2="0.3756" y1="1.2225" y2="1.2235" /><line stroke="rgb(0%,0%,0%)" x1="0.3756" x2="0.3756" y1="1.2235" y2="1.2237" /><line stroke="rgb(0%,0%,0%)" x1="0.3756" x2="0.3618" y1="1.2237" y2="1.2225" /><line stroke="rgb(0%,0%,0%)" x1="0.3618" x2="0.3756" y1="1.2225" y2="1.2237" /><line stroke="rgb(0%,0%,0%)" x1="0.3756" x2="0.3757" y1="1.2237" y2="1.2239" /><line stroke="rgb(0%,0%,0%)" x1="0.3757" x2="0.3618" y1="1.2239" y2="1.2225" /><line stroke="rgb(0%,0%,0%)" x1="0.3768" x2="0.3623" y1="1.2225" y2="1.2186" /><line stroke="rgb(0%,0%,0%)" x1="0.3623" x2="0.3638" y1="1.2186" y2="1.2149" /><line stroke="rgb(0%,0%,0%)" x1="0.3638" x2="0.3768" y1="1.2149" y2="1.2225" /><line stroke="rgb(0%,0%,0%)" x1="0.3768" x2="0.3638" y1="1.2225" y2="1.2149" /><line stroke="rgb(0%,0%,0%)" x1="0.3638" x2="0.3663" y1="1.2149" y2="1.2118" /><line stroke="rgb(0%,0%,0%)" x1="0.3663" x2="0.3768" y1="1.2118" y2="1.2225" /><line stroke="rgb(0%,0%,0%)" x1="0.3768" x2="0.3663" y1="1.2225" y2="1.2118" /><line stroke="rgb(0%,0%,0%)" x1="0.3663" x2="0.3695" y1="1.2118" y2="1.2093" /><line stroke="rgb(0%,0%,0%)" x1="0.3695" x2="0.3768" y1="1.2093" y2="1.2225" /><line stroke="rgb(0%,0%,0%)" x1="0.3768" x2="0.3695" y1="1.2225" y2="1.2093" /><line stroke="rgb(0%,0%,0%)" x1="0.3695" x2="0.3731" y1="1.2093" y2="1.2078" /><line stroke="rgb(0%,0%,0%)" x1="0.3731" x2="0.3768" y1="1.2078" y2="1.2225" /><line stroke="rgb(0%,0%,0%)" x1="0.3768" x2="0.3731" y1="1.2225" y2="1.2078" /><line stroke="rgb(0%,0%,0%)" x1="0.3731" x2="0.3771" y1="1.2078" y2="1.2073" /><line stroke="rgb(0%,0%,0%)" x1="0.3771" x2="0.3768" y1="1.2073" y2="1.2225" /><line stroke="rgb(0%,0%,0%)" x1="0.3768" x2="0.3771" y1="1.2225" y2="1.2073" /><line stroke="rgb(0%,0%,0%)" x1="0.3771" x2="0.3811" y1="1.2073" y2="1.2079" /><line stroke="rgb(0%,0%,0%)" x1="0.3811" x2="0.3768" y1="1.2079" y2="1.2225" /><line stroke="rgb(0%,0%,0%)" x1="0.3768" x2="0.3811" y1="1.2225" y2="1.2079" /><line stroke="rgb(0%,0%,0%)" x1="0.3811" x2="0.3847" y1="1.2079" y2="1.2094" /><line stroke="rgb(0%,0%,0%)" x1="0.3847" x2="0.3768" y1="1.2094" y2="1.2225" /><line stroke="rgb(0%,0%,0%)" x1="0.3768" x2="0.3847" y1="1.2225" y2="1.2094" /><line stroke="rgb(0%,0%,0%)" x1="0.3847" x2="0.3879" y1="1.2094" y2="1.2119" /><line stroke="rgb(0%,0%,0%)" x1="0.3879" x2="0.3768" y1="1.2119" y2="1.2225" /><line stroke="rgb(0%,0%,0%)" x1="0.3768" x2="0.3879" y1="1.2225" y2="1.2119" /><line stroke="rgb(0%,0%,0%)" x1="0.3879" x2="0.3903" y1="1.2119" y2="1.215" /><line stroke="rgb(0%,0%,0%)" x1="0.3903" x2="0.3768" y1="1.215" y2="1.2225" /><line stroke="rgb(0%,0%,0%)" x1="0.3768" x2="0.3903" y1="1.2225" y2="1.215" /><line stroke="rgb(0%,0%,0%)" x1="0.3903" x2="0.3918" y1="1.215" y2="1.2187" /><line stroke="rgb(0%,0%,0%)" x1="0.3918" x2="0.3768" y1="1.2187" y2="1.2225" /><line stroke="rgb(0%,0%,0%)" x1="0.3918" x2="0.3768" y1="1.2266" y2="1.2225" /><line stroke="rgb(0%,0%,0%)" x1="0.3768" x2="0.3923" y1="1.2225" y2="1.2227" /><line stroke="rgb(0%,0%,0%)" x1="0.3923" x2="0.3918" y1="1.2227" y2="1.2266" /><line stroke="rgb(0%,0%,0%)" x1="0.3768" x2="0.3768" y1="1.2226" y2="1.2225" /><line stroke="rgb(0%,0%,0%)" x1="0.3768" x2="0.3768" y1="1.2225" y2="1.2225" /><line stroke="rgb(0%,0%,0%)" x1="0.3768" x2="0.3768" y1="1.2225" y2="1.2226" /><line stroke="rgb(0%,0%,0%)" x1="0.3768" x2="0.3768" y1="1.2225" y2="1.2226" /><line stroke="rgb(0%,0%,0%)" x1="0.3768" x2="0.3757" y1="1.2226" y2="1.2239" /><line stroke="rgb(0%,0%,0%)" x1="0.3757" x2="0.3768" y1="1.2239" y2="1.2225" /><line stroke="rgb(0%,0%,0%)" x1="0.3757" x2="0.3768" y1="1.2239" y2="1.2226" /><line stroke="rgb(0%,0%,0%)" x1="0.3768" x2="0.377" y1="1.2226" y2="1.2226" /><line stroke="rgb(0%,0%,0%)" x1="0.377" x2="0.3757" y1="1.2226" y2="1.2239" /><line stroke="rgb(0%,0%,0%)" x1="0.3757" x2="0.377" y1="1.2239" y2="1.2226" /><line stroke="rgb(0%,0%,0%)" x1="0.377" x2="0.3756" y1="1.2226" y2="1.2235" /><line stroke="rgb(0%,0%,0%)" x1="0.3756" x2="0.3757" y1="1.2235" y2="1.2239" /><line stroke="rgb(0%,0%,0%)" x1="0.3757" x2="0.3756" y1="1.2239" y2="1.2235" /><line stroke="rgb(0%,0%,0%)" x1="0.3756" x2="0.3756" y1="1.2235" y2="1.2237" /><line stroke="rgb(0%,0%,0%)" x1="0.3756" x2="0.3757" y1="1.2237" y2="1.2239" /><line stroke="rgb(0%,0%,0%)" x1="0.3757" x2="0.3756" y1="1.2239" y2="1.2237" /><line stroke="rgb(0%,0%,0%)" x1="0.3756" x2="0.3757" y1="1.2237" y2="1.2239" /><line stroke="rgb(0%,0%,0%)" x1="0.3757" x2="0.3757" y1="1.2239" y2="1.2239" /><line stroke="rgb(0%,0%,0%)" x1="0.3902" x2="0.3768" y1="1.2303" y2="1.2225" /><line stroke="rgb(0%,0%,0%)" x1="0.3768" x2="0.3918" y1="1.2225" y2="1.2266" /><line stroke="rgb(0%,0%,0%)" x1="0.3918" x2="0.3902" y1="1.2266" y2="1.2303" /><line stroke="rgb(0%,0%,0%)" x1="4.2684" x2="4.2581" y1="1.1226" y2="1.113" /><line stroke="rgb(0%,0%,0%)" x1="4.2581" x2="4.258" y1="1.113" y2="1.1128" /><line stroke="rgb(0%,0%,0%)" x1="4.258" x2="4.2684" y1="1.1128" y2="1.1226" /><line stroke="rgb(0%,0%,0%)" x1="4.2581" x2="4.2684" y1="1.113" y2="1.1226" /><line stroke="rgb(0%,0%,0%)" x1="4.2684" x2="4.2583" y1="1.1226" y2="1.113" /><line stroke="rgb(0%,0%,0%)" x1="4.2583" x2="4.2581" y1="1.113" y2="1.113" /><line stroke="rgb(0%,0%,0%)" x1="4.2583" x2="4.2684" y1="1.113" y2="1.1226" /><line stroke="rgb(0%,0%,0%)" x1="4.2684" x2="4.2585" y1="1.1226" y2="1.1152" /><line stroke="rgb(0%,0%,0%)" x1="4.2585" x2="4.2583" y1="1.1152" y2="1.113" /><line stroke="rgb(0%,0%,0%)" x1="4.2585" x2="4.2684" y1="1.1152" y2="1.1226" /><line stroke="rgb(0%,0%,0%)" x1="4.2684" x2="4.2592" y1="1.1226" y2="1.1158" /><line stroke="rgb(0%,0%,0%)" x1="4.2592" x2="4.2585" y1="1.1158" y2="1.1152" /><line stroke="rgb(0%,0%,0%)" x1="4.2592" x2="4.2684" y1="1.1158" y2="1.1226" /><line stroke="rgb(0%,0%,0%)" x1="4.2684" x2="4.2608" y1="1.1226" y2="1.1171" /><line stroke="rgb(0%,0%,0%)" x1="4.2608" x2="4.2592" y1="1.1171" y2="1.1158" /><line stroke="rgb(0%,0%,0%)" x1="4.2684" x2="4.2717" y1="1.1226" y2="1.1203" /><line stroke="rgb(0%,0%,0%)" x1="4.2717" x2="4.258" y1="1.1203" y2="1.1128" /><line stroke="rgb(0%,0%,0%)" x1="4.258" x2="4.2684" y1="1.1128" y2="1.1226" /><line stroke="rgb(0%,0%,0%)" x1="4.2717" x2="4.258" y1="1.1203" y2="1.1128" /><line stroke="rgb(0%,0%,0%)" x1="4.258" x2="4.2731" y1="1.1128" y2="1.1166" /><line stroke="rgb(0%,0%,0%)" x1="4.2731" x2="4.2717" y1="1.1166" y2="1.1203" /><line stroke="rgb(0%,0%,0%)" x1="4.257" x2="4.251" y1="1.1143" y2="1.1264" /><line stroke="rgb(0%,0%,0%)" x1="4.251" x2="4.2478" y1="1.1264" y2="1.1241" /><line stroke="rgb(0%,0%,0%)" x1="4.2478" x2="4.257" y1="1.1241" y2="1.1143" /><line stroke="rgb(0%,0%,0%)" x1="4.2478" x2="4.2453" y1="1.1241" y2="1.1209" /><line stroke="rgb(0%,0%,0%)" x1="4.2453" x2="4.257" y1="1.1209" y2="1.1143" /><line stroke="rgb(0%,0%,0%)" x1="4.257" x2="4.2478" y1="1.1143" y2="1.1241" /><line stroke="rgb(0%,0%,0%)" x1="4.2453" x2="4.2436" y1="1.1209" y2="1.1173" /><line stroke="rgb(0%,0%,0%)" x1="4.2436" x2="4.257" y1="1.1173" y2="1.1143" /><line stroke="rgb(0%,0%,0%)" x1="4.257" x2="4.2453" y1="1.1143" y2="1.1209" /><line stroke="rgb(0%,0%,0%)" x1="4.2436" x2="4.243" y1="1.1173" y2="1.1134" /><line stroke="rgb(0%,0%,0%)" x1="4.243" x2="4.257" y1="1.1134" y2="1.1143" /><line stroke="rgb(0%,0%,0%)" x1="4.257" x2="4.2436" y1="1.1143" y2="1.1173" /><line stroke="rgb(0%,0%,0%)" x1="4.257" x2="4.2587" y1="1.1143" y2="1.1283" /><line stroke="rgb(0%,0%,0%)" x1="4.2587" x2="4.2547" y1="1.1283" y2="1.1278" /><line stroke="rgb(0%,0%,0%)" x1="4.2547" x2="4.257" y1="1.1278" y2="1.1143" /><line stroke="rgb(0%,0%,0%)" x1="4.2587" x2="4.257" y1="1.1283" y2="1.1143" /><line stroke="rgb(0%,0%,0%)" x1="4.257" x2="4.2592" y1="1.1143" y2="1.1158" /><line stroke="rgb(0%,0%,0%)" x1="4.2592" x2="4.2587" y1="1.1158" y2="1.1283" /><line stroke="rgb(0%,0%,0%)" x1="4.257" x2="4.2547" y1="1.1143" y2="1.1278" /><line stroke="rgb(0%,0%,0%)" x1="4.2547" x2="4.251" y1="1.1278" y2="1.1264" /><line stroke="rgb(0%,0%,0%)" x1="4.251" x2="4.257" y1="1.1264" y2="1.1143" /><line stroke="rgb(0%,0%,0%)" x1="4.2608" x2="4.2695" y1="1.1171" y2="1.1234" /><line stroke="rgb(0%,0%,0%)" x1="4.2695" x2="4.2663" y1="1.1234" y2="1.126" /><line stroke="rgb(0%,0%,0%)" x1="4.2663" x2="4.2608" y1="1.126" y2="1.1171" /><line stroke="rgb(0%,0%,0%)" x1="4.2695" x2="4.2608" y1="1.1234" y2="1.1171" /><line stroke="rgb(0%,0%,0%)" x1="4.2608" x2="4.2684" y1="1.1171" y2="1.1226" /><line stroke="rgb(0%,0%,0%)" x1="4.2684" x2="4.2695" y1="1.1226" y2="1.1234" /><line stroke="rgb(0%,0%,0%)" x1="4.2684" x2="4.2608" y1="1.1226" y2="1.1171" /><line stroke="rgb(0%,0%,0%)" x1="4.2608" x2="4.258" y1="1.1171" y2="1.1128" /><line stroke="rgb(0%,0%,0%)" x1="4.258" x2="4.2684" y1="1.1128" y2="1.1226" /><line stroke="rgb(0%,0%,0%)" x1="4.2592" x2="4.2663" y1="1.1158" y2="1.126" /><line stroke="rgb(0%,0%,0%)" x1="4.2663" x2="4.2626" y1="1.126" y2="1.1276" /><line stroke="rgb(0%,0%,0%)" x1="4.2626" x2="4.2592" y1="1.1276" y2="1.1158" /><line stroke="rgb(0%,0%,0%)" x1="4.2663" x2="4.2592" y1="1.126" y2="1.1158" /><line stroke="rgb(0%,0%,0%)" x1="4.2592" x2="4.2608" y1="1.1158" y2="1.1171" /><line stroke="rgb(0%,0%,0%)" x1="4.2608" x2="4.2663" y1="1.1171" y2="1.126" /><line stroke="rgb(0%,0%,0%)" x1="4.2592" x2="4.2626" y1="1.1158" y2="1.1276" /><line stroke="rgb(0%,0%,0%)" x1="4.2626" x2="4.2587" y1="1.1276" y2="1.1283" /><line stroke="rgb(0%,0%,0%)" x1="4.2587" x2="4.2592" y1="1.1283" y2="1.1158" /><line stroke="rgb(0%,0%,0%)" x1="4.258" x2="4.2729" y1="1.1128" y2="1.1087" /><line stroke="rgb(0%,0%,0%)" x1="4.2729" x2="4.2736" y1="1.1087" y2="1.1126" /><line stroke="rgb(0%,0%,0%)" x1="4.2736" x2="4.258" y1="1.1126" y2="1.1128" /><line stroke="rgb(0%,0%,0%)" x1="4.258" x2="4.243" y1="1.1128" y2="1.1134" /><line stroke="rgb(0%,0%,0%)" x1="4.243" x2="4.2434" y1="1.1134" y2="1.1094" /><line stroke="rgb(0%,0%,0%)" x1="4.2434" x2="4.258" y1="1.1094" y2="1.1128" /><line stroke="rgb(0%,0%,0%)" x1="4.243" x2="4.258" y1="1.1134" y2="1.1128" /><line stroke="rgb(0%,0%,0%)" x1="4.258" x2="4.2569" y1="1.1128" y2="1.1139" /><line stroke="rgb(0%,0%,0%)" x1="4.2569" x2="4.243" y1="1.1139" y2="1.1134" /><line stroke="rgb(0%,0%,0%)" x1="4.243" x2="4.2569" y1="1.1134" y2="1.1139" /><line stroke="rgb(0%,0%,0%)" x1="4.2569" x2="4.2569" y1="1.1139" y2="1.1141" /><line stroke="rgb(0%,0%,0%)" x1="4.2569" x2="4.243" y1="1.1141" y2="1.1134" /><line stroke="rgb(0%,0%,0%)" x1="4.243" x2="4.2569" y1="1.1134" y2="1.1141" /><line stroke="rgb(0%,0%,0%)" x1="4.2569" x2="4.257" y1="1.1141" y2="1.1143" /><line stroke="rgb(0%,0%,0%)" x1="4.257" x2="4.243" y1="1.1143" y2="1.1134" /><line stroke="rgb(0%,0%,0%)" x1="4.258" x2="4.2434" y1="1.1128" y2="1.1094" /><line stroke="rgb(0%,0%,0%)" x1="4.2434" x2="4.2449" y1="1.1094" y2="1.1057" /><line stroke="rgb(0%,0%,0%)" x1="4.2449" x2="4.258" y1="1.1057" y2="1.1128" /><line stroke="rgb(0%,0%,0%)" x1="4.258" x2="4.2449" y1="1.1128" y2="1.1057" /><line stroke="rgb(0%,0%,0%)" x1="4.2449" x2="4.2472" y1="1.1057" y2="1.1025" /><line stroke="rgb(0%,0%,0%)" x1="4.2472" x2="4.258" y1="1.1025" y2="1.1128" /><line stroke="rgb(0%,0%,0%)" x1="4.258" x2="4.2472" y1="1.1128" y2="1.1025" /><line stroke="rgb(0%,0%,0%)" x1="4.2472" x2="4.2503" y1="1.1025" y2="1.0999" /><line stroke="rgb(0%,0%,0%)" x1="4.2503" x2="4.258" y1="1.0999" y2="1.1128" /><line stroke="rgb(0%,0%,0%)" x1="4.258" x2="4.2503" y1="1.1128" y2="1.0999" /><line stroke="rgb(0%,0%,0%)" x1="4.2503" x2="4.254" y1="1.0999" y2="1.0983" /><line stroke="rgb(0%,0%,0%)" x1="4.254" x2="4.258" y1="1.0983" y2="1.1128" /><line stroke="rgb(0%,0%,0%)" x1="4.258" x2="4.254" y1="1.1128" y2="1.0983" /><line stroke="rgb(0%,0%,0%)" x1="4.254" x2="4.2579" y1="1.0983" y2="1.0977" /><line stroke="rgb(0%,0%,0%)" x1="4.2579" x2="4.258" y1="1.0977" y2="1.1128" /><line stroke="rgb(0%,0%,0%)" x1="4.258" x2="4.2579" y1="1.1128" y2="1.0977" /><line stroke="rgb(0%,0%,0%)" x1="4.2579" x2="4.2619" y1="1.0977" y2="1.0981" /><line stroke="rgb(0%,0%,0%)" x1="4.2619" x2="4.258" y1="1.0981" y2="1.1128" /><line stroke="rgb(0%,0%,0%)" x1="4.258" x2="4.2619" y1="1.1128" y2="1.0981" /><line stroke="rgb(0%,0%,0%)" x1="4.2619" x2="4.2656" y1="1.0981" y2="1.0996" /><line stroke="rgb(0%,0%,0%)" x1="4.2656" x2="4.258" y1="1.0996" y2="1.1128" /><line stroke="rgb(0%,0%,0%)" x1="4.258" x2="4.2656" y1="1.1128" y2="1.0996" /><line stroke="rgb(0%,0%,0%)" x1="4.2656" x2="4.2688" y1="1.0996" y2="1.1019" /><line stroke="rgb(0%,0%,0%)" x1="4.2688" x2="4.258" y1="1.1019" y2="1.1128" /><line stroke="rgb(0%,0%,0%)" x1="4.258" x2="4.2688" y1="1.1128" y2="1.1019" /><line stroke="rgb(0%,0%,0%)" x1="4.2688" x2="4.2713" y1="1.1019" y2="1.105" /><line stroke="rgb(0%,0%,0%)" x1="4.2713" x2="4.258" y1="1.105" y2="1.1128" /><line stroke="rgb(0%,0%,0%)" x1="4.258" x2="4.2713" y1="1.1128" y2="1.105" /><line stroke="rgb(0%,0%,0%)" x1="4.2713" x2="4.2729" y1="1.105" y2="1.1087" /><line stroke="rgb(0%,0%,0%)" x1="4.2729" x2="4.258" y1="1.1087" y2="1.1128" /><line stroke="rgb(0%,0%,0%)" x1="4.2731" x2="4.258" y1="1.1166" y2="1.1128" /><line stroke="rgb(0%,0%,0%)" x1="4.258" x2="4.2736" y1="1.1128" y2="1.1126" /><line stroke="rgb(0%,0%,0%)" x1="4.2736" x2="4.2731" y1="1.1126" y2="1.1166" /><line stroke="rgb(0%,0%,0%)" x1="4.2581" x2="4.258" y1="1.113" y2="1.1128" /><line stroke="rgb(0%,0%,0%)" x1="4.258" x2="4.258" y1="1.1128" y2="1.1128" /><line stroke="rgb(0%,0%,0%)" x1="4.258" x2="4.2581" y1="1.1128" y2="1.113" /><line stroke="rgb(0%,0%,0%)" x1="4.258" x2="4.2581" y1="1.1128" y2="1.113" /><line stroke="rgb(0%,0%,0%)" x1="4.2581" x2="4.257" y1="1.113" y2="1.1143" /><line stroke="rgb(0%,0%,0%)" x1="4.257" x2="4.258" y1="1.1143" y2="1.1128" /><line stroke="rgb(0%,0%,0%)" x1="4.257" x2="4.2581" y1="1.1143" y2="1.113" /><line stroke="rgb(0%,0%,0%)" x1="4.2581" x2="4.2583" y1="1.113" y2="1.113" /><line stroke="rgb(0%,0%,0%)" x1="4.2583" x2="4.257" y1="1.113" y2="1.1143" /><line stroke="rgb(0%,0%,0%)" x1="4.257" x2="4.2583" y1="1.1143" y2="1.113" /><line stroke="rgb(0%,0%,0%)" x1="4.2583" x2="4.2569" y1="1.113" y2="1.1139" /><line stroke="rgb(0%,0%,0%)" x1="4.2569" x2="4.257" y1="1.1139" y2="1.1143" /><line stroke="rgb(0%,0%,0%)" x1="4.257" x2="4.2569" y1="1.1143" y2="1.1139" /><line stroke="rgb(0%,0%,0%)" x1="4.2569" x2="4.2569" y1="1.1139" y2="1.1141" /><line stroke="rgb(0%,0%,0%)" x1="4.2569" x2="4.257" y1="1.1141" y2="1.1143" /><line stroke="rgb(0%,0%,0%)" x1="4.257" x2="4.2569" y1="1.1143" y2="1.1141" /><line stroke="rgb(0%,0%,0%)" x1="4.2569" x2="4.257" y1="1.1141" y2="1.1143" /><line stroke="rgb(0%,0%,0%)" x1="4.257" x2="4.257" y1="1.1143" y2="1.1143" /></g></svg>