<?xml version="1.0" encoding="utf-8" ?>
<svg baseProfile="tiny" height="100%" version="1.2" width="100%" xmlns="http://www.w3.org/2000/svg" xmlns:ev="http://www.w3.org/2001/xml-events" xmlns:xlink="http://www.w3.org/1999/xlink"><defs /><g id="border"><line stroke="rgb(0%,0%,0%)" x1="0.3495" x2="0.3432" y1="1.2501" y2="1.242" /><line stroke="rgb(0%,0%,0%)" x1="0.3432" x2="0.3432" y1="1.242" y2="1.242" /><line stroke="rgb(0%,0%,0%)" x1="0.3432" x2="0.3495" y1="1.242" y2="1.2501" /><line stroke="rgb(0%,0%,0%)" x1="0.3432" x2="0.3495" y1="1.242" y2="1.2501" /><line stroke="rgb(0%,0%,0%)" x1="0.3495" x2="0.3495" y1="1.2501" y2="1.2501" /><line stroke="rgb(0%,0%,0%)" x1="0.3495" x2="0.3432" y1="1.2501" y2="1.242" /><line stroke="rgb(0%,0%,0%)" x1="0.3495" x2="0.3576" y1="1.2501" y2="1.2562" /><line stroke="rgb(0%,0%,0%)" x1="0.3576" x2="0.3495" y1="1.2562" y2="1.2501" /><line stroke="rgb(0%,0%,0%)" x1="0.3495" x2="0.3495" y1="1.2501" y2="1.2501" /><line stroke="rgb(0%,0%,0%)" x1="0.3576" x2="0.3495" y1="1.2562" y2="1.2501" /><line stroke="rgb(0%,0%,0%)" x1="0.3495" x2="0.3576" y1="1.2501" y2="1.2562" /><line stroke="rgb(0%,0%,0%)" x1="0.3576" x2="0.3576" y1="1.2562" y2="1.2562" /><line stroke="rgb(0%,0%,0%)" x1="0.367" x2="0.377" y1="1.26" y2="1.2613" /><line stroke="rgb(0%,0%,0%)" x1="0.377" x2="0.367" y1="1.2613" y2="1.26" /><line stroke="rgb(0%,0%,0%)" x1="0.367" x2="0.367" y1="1.26" y2="1.26" /><line stroke="rgb(0%,0%,0%)" x1="0.377" x2="0.367" y1="1.2613" y2="1.26" /><line stroke="rgb(0%,0%,0%)" x1="0.367" x2="0.377" y1="1.26" y2="1.2613" /><line stroke="rgb(0%,0%,0%)" x1="0.377" x2="0.377" y1="1.2613" y2="1.2613" /><line stroke="rgb(0%,0%,0%)" x1="0.3871" x2="0.3965" y1="1.2599" y2="1.256" /><line stroke="rgb(0%,0%,0%)" x1="0.3965" x2="0.3871" y1="1.256" y2="1.2599" /><line stroke="rgb(0%,0%,0%)" x1="0.3871" x2="0.3871" y1="1.2599" y2="1.2599" /><line stroke="rgb(0%,0%,0%)" x1="0.3965" x2="0.3871" y1="1.256" y2="1.2599" /><line stroke="rgb(0%,0%,0%)" x1="0.3871" x2="0.3965" y1="1.2599" y2="1.256" /><line stroke="rgb(0%,0%,0%)" x1="0.3965" x2="0.3965" y1="1.256" y2="1.256" /><line stroke="rgb(0%,0%,0%)" x1="0.3965" x2="0.4045" y1="1.256" y2="1.2497" /><line stroke="rgb(0%,0%,0%)" x1="0.4045" x2="0.3965" y1="1.2497" y2="1.256" /><line stroke="rgb(0%,0%,0%)" x1="0.3965" x2="0.3965" y1="1.256" y2="1.256" /><line stroke="rgb(0%,0%,0%)" x1="0.4045" x2="0.3965" y1="1.2497" y2="1.256" /><line stroke="rgb(0%,0%,0%)" x1="0.3965" x2="0.4045" y1="1.256" y2="1.2497" /><line stroke="rgb(0%,0%,0%)" x1="0.4045" x2="0.4045" y1="1.2497" y2="1.2497" /><line stroke="rgb(0%,0%,0%)" x1="0.4144" x2="0.4157" y1="1.2322" y2="1.2222" /><line stroke="rgb(0%,0%,0%)" x1="0.4157" x2="0.4157" y1="1.2222" y2="1.2222" /><line stroke="rgb(0%,0%,0%)" x1="0.4157" x2="0.4144" y1="1.2222" y2="1.2322" /><line stroke="rgb(0%,0%,0%)" x1="0.4157" x2="0.4144" y1="1.2222" y2="1.2322" /><line stroke="rgb(0%,0%,0%)" x1="0.4144" x2="0.4144" y1="1.2322" y2="1.2322" /><line stroke="rgb(0%,0%,0%)" x1="0.4144" x2="0.4157" y1="1.2322" y2="1.2222" /><line stroke="rgb(0%,0%,0%)" x1="0.3576" x2="0.367" y1="1.2562" y2="1.26" /><line stroke="rgb(0%,0%,0%)" x1="0.367" x2="0.3576" y1="1.26" y2="1.2562" /><line stroke="rgb(0%,0%,0%)" x1="0.3576" x2="0.3576" y1="1.2562" y2="1.2562" /><line stroke="rgb(0%,0%,0%)" x1="0.367" x2="0.3576" y1="1.26" y2="1.2562" /><line stroke="rgb(0%,0%,0%)" x1="0.3576" x2="0.367" y1="1.2562" y2="1.26" /><line stroke="rgb(0%,0%,0%)" x1="0.367" x2="0.367" y1="1.26" y2="1.26" /><line stroke="rgb(0%,0%,0%)" x1="0.4143" x2="0.4104" y1="1.2121" y2="1.2028" /><line stroke="rgb(0%,0%,0%)" x1="0.4104" x2="0.4104" y1="1.2028" y2="1.2028" /><line stroke="rgb(0%,0%,0%)" x1="0.4104" x2="0.4143" y1="1.2028" y2="1.2121" /><line stroke="rgb(0%,0%,0%)" x1="0.4104" x2="0.4143" y1="1.2028" y2="1.2121" /><line stroke="rgb(0%,0%,0%)" x1="0.4143" x2="0.4143" y1="1.2121" y2="1.2121" /><line stroke="rgb(0%,0%,0%)" x1="0.4143" x2="0.4104" y1="1.2121" y2="1.2028" /><line stroke="rgb(0%,0%,0%)" x1="0.3379" x2="0.3392" y1="1.2226" y2="1.2125" /><line stroke="rgb(0%,0%,0%)" x1="0.3392" x2="0.3392" y1="1.2125" y2="1.2125" /><line stroke="rgb(0%,0%,0%)" x1="0.3392" x2="0.3379" y1="1.2125" y2="1.2226" /><line stroke="rgb(0%,0%,0%)" x1="0.3392" x2="0.3379" y1="1.2125" y2="1.2226" /><line stroke="rgb(0%,0%,0%)" x1="0.3379" x2="0.3379" y1="1.2226" y2="1.2226" /><line stroke="rgb(0%,0%,0%)" x1="0.3379" x2="0.3392" y1="1.2226" y2="1.2125" /><line stroke="rgb(0%,0%,0%)" x1="0.3572" x2="0.3492" y1="1.1888" y2="1.195" /><line stroke="rgb(0%,0%,0%)" x1="0.3492" x2="0.3572" y1="1.195" y2="1.1888" /><line stroke="rgb(0%,0%,0%)" x1="0.3572" x2="0.3572" y1="1.1888" y2="1.1888" /><line stroke="rgb(0%,0%,0%)" x1="0.3492" x2="0.3572" y1="1.195" y2="1.1888" /><line stroke="rgb(0%,0%,0%)" x1="0.3572" x2="0.3488" y1="1.1888" y2="1.1956" /><line stroke="rgb(0%,0%,0%)" x1="0.3488" x2="0.3492" y1="1.1956" y2="1.195" /><line stroke="rgb(0%,0%,0%)" x1="0.3665" x2="0.3572" y1="1.1849" y2="1.1888" /><line stroke="rgb(0%,0%,0%)" x1="0.3572" x2="0.3665" y1="1.1888" y2="1.1849" /><line stroke="rgb(0%,0%,0%)" x1="0.3665" x2="0.3665" y1="1.1849" y2="1.1849" /><line stroke="rgb(0%,0%,0%)" x1="0.3572" x2="0.3665" y1="1.1888" y2="1.1849" /><line stroke="rgb(0%,0%,0%)" x1="0.3665" x2="0.3572" y1="1.1849" y2="1.1888" /><line stroke="rgb(0%,0%,0%)" x1="0.3572" x2="0.3572" y1="1.1888" y2="1.1888" /><line stroke="rgb(0%,0%,0%)" x1="0.3766" x2="0.3665" y1="1.1835" y2="1.1849" /><line stroke="rgb(0%,0%,0%)" x1="0.3665" x2="0.3766" y1="1.1849" y2="1.1835" /><line stroke="rgb(0%,0%,0%)" x1="0.3766" x2="0.3766" y1="1.1835" y2="1.1835" /><line stroke="rgb(0%,0%,0%)" x1="0.3665" x2="0.3766" y1="1.1849" y2="1.1835" /><line stroke="rgb(0%,0%,0%)" x1="0.3766" x2="0.3665" y1="1.1835" y2="1.1849" /><line stroke="rgb(0%,0%,0%)" x1="0.3665" x2="0.3665" y1="1.1849" y2="1.1849" /><line stroke="rgb(0%,0%,0%)" x1="0.3867" x2="0.3766" y1="1.1848" y2="1.1835" /><line stroke="rgb(0%,0%,0%)" x1="0.3766" x2="0.3867" y1="1.1835" y2="1.1848" /><line stroke="rgb(0%,0%,0%)" x1="0.3867" x2="0.3867" y1="1.1848" y2="1.1848" /><line stroke="rgb(0%,0%,0%)" x1="0.3766" x2="0.3867" y1="1.1835" y2="1.1848" /><line stroke="rgb(0%,0%,0%)" x1="0.3867" x2="0.3766" y1="1.1848" y2="1.1835" /><line stroke="rgb(0%,0%,0%)" x1="0.3766" x2="0.3766" y1="1.1835" y2="1.1835" /><line stroke="rgb(0%,0%,0%)" x1="0.3961" x2="0.3867" y1="1.1886" y2="1.1848" /><line stroke="rgb(0%,0%,0%)" x1="0.3867" x2="0.3961" y1="1.1848" y2="1.1886" /><line stroke="rgb(0%,0%,0%)" x1="0.3961" x2="0.3961" y1="1.1886" y2="1.1886" /><line stroke="rgb(0%,0%,0%)" x1="0.3867" x2="0.3961" y1="1.1848" y2="1.1886" /><line stroke="rgb(0%,0%,0%)" x1="0.3961" x2="0.3867" y1="1.1886" y2="1.1848" /><line stroke="rgb(0%,0%,0%)" x1="0.3867" x2="0.3867" y1="1.1848" y2="1.1848" /><line stroke="rgb(0%,0%,0%)" x1="0.4036" x2="0.3961" y1="1.1943" y2="1.1886" /><line stroke="rgb(0%,0%,0%)" x1="0.3961" x2="0.4042" y1="1.1886" y2="1.1947" /><line stroke="rgb(0%,0%,0%)" x1="0.4042" x2="0.4036" y1="1.1947" y2="1.1943" /><line stroke="rgb(0%,0%,0%)" x1="0.3961" x2="0.4036" y1="1.1886" y2="1.1943" /><line stroke="rgb(0%,0%,0%)" x1="0.4036" x2="0.3961" y1="1.1943" y2="1.1886" /><line stroke="rgb(0%,0%,0%)" x1="0.3961" x2="0.3961" y1="1.1886" y2="1.1886" /><line stroke="rgb(0%,0%,0%)" x1="0.4157" x2="0.4143" y1="1.2222" y2="1.2121" /><line stroke="rgb(0%,0%,0%)" x1="0.4143" x2="0.4143" y1="1.2121" y2="1.2121" /><line stroke="rgb(0%,0%,0%)" x1="0.4143" x2="0.4157" y1="1.2121" y2="1.2222" /><line stroke="rgb(0%,0%,0%)" x1="0.4143" x2="0.4157" y1="1.2121" y2="1.2222" /><line stroke="rgb(0%,0%,0%)" x1="0.4157" x2="0.4157" y1="1.2222" y2="1.2222" /><line stroke="rgb(0%,0%,0%)" x1="0.4157" x2="0.4143" y1="1.2222" y2="1.2121" /><line stroke="rgb(0%,0%,0%)" x1="0.4106" x2="0.4144" y1="1.2416" y2="1.2322" /><line stroke="rgb(0%,0%,0%)" x1="0.4144" x2="0.4144" y1="1.2322" y2="1.2322" /><line stroke="rgb(0%,0%,0%)" x1="0.4144" x2="0.4106" y1="1.2322" y2="1.2416" /><line stroke="rgb(0%,0%,0%)" x1="0.4144" x2="0.4106" y1="1.2322" y2="1.2416" /><line stroke="rgb(0%,0%,0%)" x1="0.4106" x2="0.4106" y1="1.2416" y2="1.2416" /><line stroke="rgb(0%,0%,0%)" x1="0.4106" x2="0.4144" y1="1.2416" y2="1.2322" /><line stroke="rgb(0%,0%,0%)" x1="0.4045" x2="0.4106" y1="1.2497" y2="1.2416" /><line stroke="rgb(0%,0%,0%)" x1="0.4106" x2="0.4106" y1="1.2416" y2="1.2416" /><line stroke="rgb(0%,0%,0%)" x1="0.4106" x2="0.4045" y1="1.2416" y2="1.2497" /><line stroke="rgb(0%,0%,0%)" x1="0.4106" x2="0.4045" y1="1.2416" y2="1.2497" /><line stroke="rgb(0%,0%,0%)" x1="0.4045" x2="0.4045" y1="1.2497" y2="1.2497" /><line stroke="rgb(0%,0%,0%)" x1="0.4045" x2="0.4106" y1="1.2497" y2="1.2416" /><line stroke="rgb(0%,0%,0%)" x1="0.3432" x2="0.3393" y1="1.242" y2="1.2327" /><line stroke="rgb(0%,0%,0%)" x1="0.3393" x2="0.3393" y1="1.2327" y2="1.2327" /><line stroke="rgb(0%,0%,0%)" x1="0.3393" x2="0.3432" y1="1.2327" y2="1.242" /><line stroke="rgb(0%,0%,0%)" x1="0.3393" x2="0.3432" y1="1.2327" y2="1.242" /><line stroke="rgb(0%,0%,0%)" x1="0.3432" x2="0.3432" y1="1.242" y2="1.242" /><line stroke="rgb(0%,0%,0%)" x1="0.3432" x2="0.3393" y1="1.242" y2="1.2327" /><line stroke="rgb(0%,0%,0%)" x1="0.3393" x2="0.3379" y1="1.2327" y2="1.2226" /><line stroke="rgb(0%,0%,0%)" x1="0.3379" x2="0.3379" y1="1.2226" y2="1.2226" /><line stroke="rgb(0%,0%,0%)" x1="0.3379" x2="0.3393" y1="1.2226" y2="1.2327" /><line stroke="rgb(0%,0%,0%)" x1="0.3379" x2="0.3393" y1="1.2226" y2="1.2327" /><line stroke="rgb(0%,0%,0%)" x1="0.3393" x2="0.3393" y1="1.2327" y2="1.2327" /><line stroke="rgb(0%,0%,0%)" x1="0.3393" x2="0.3379" y1="1.2327" y2="1.2226" /><line stroke="rgb(0%,0%,0%)" x1="0.3392" x2="0.343" y1="1.2125" y2="1.2031" /><line stroke="rgb(0%,0%,0%)" x1="0.343" x2="0.343" y1="1.2031" y2="1.2031" /><line stroke="rgb(0%,0%,0%)" x1="0.343" x2="0.3392" y1="1.2031" y2="1.2125" /><line stroke="rgb(0%,0%,0%)" x1="0.343" x2="0.3392" y1="1.2031" y2="1.2125" /><line stroke="rgb(0%,0%,0%)" x1="0.3392" x2="0.3392" y1="1.2125" y2="1.2125" /><line stroke="rgb(0%,0%,0%)" x1="0.3392" x2="0.343" y1="1.2125" y2="1.2031" /><line stroke="rgb(0%,0%,0%)" x1="0.377" x2="0.3871" y1="1.2613" y2="1.2599" /><line stroke="rgb(0%,0%,0%)" x1="0.3871" x2="0.377" y1="1.2599" y2="1.2613" /><line stroke="rgb(0%,0%,0%)" x1="0.377" x2="0.377" y1="1.2613" y2="1.2613" /><line stroke="rgb(0%,0%,0%)" x1="0.3871" x2="0.377" y1="1.2599" y2="1.2613" /><line stroke="rgb(0%,0%,0%)" x1="0.377" x2="0.3871" y1="1.2613" y2="1.2599" /><line stroke="rgb(0%,0%,0%)" x1="0.3871" x2="0.3871" y1="1.2599" y2="1.2599" /><line stroke="rgb(0%,0%,0%)" x1="0.4042" x2="0.4104" y1="1.1947" y2="1.2028" /><line stroke="rgb(0%,0%,0%)" x1="0.4104" x2="0.4036" y1="1.2028" y2="1.1943" /><line stroke="rgb(0%,0%,0%)" x1="0.4036" x2="0.4042" y1="1.1943" y2="1.1947" /><line stroke="rgb(0%,0%,0%)" x1="0.4104" x2="0.4042" y1="1.2028" y2="1.1947" /><line stroke="rgb(0%,0%,0%)" x1="0.4042" x2="0.4104" y1="1.1947" y2="1.2028" /><line stroke="rgb(0%,0%,0%)" x1="0.4104" x2="0.4104" y1="1.2028" y2="1.2028" /><line stroke="rgb(0%,0%,0%)" x1="0.3488" x2="0.343" y1="1.1956" y2="1.2031" /><line stroke="rgb(0%,0%,0%)" x1="0.343" x2="0.3492" y1="1.2031" y2="1.195" /><line stroke="rgb(0%,0%,0%)" x1="0.3492" x2="0.3488" y1="1.195" y2="1.1956" /><line stroke="rgb(0%,0%,0%)" x1="0.343" x2="0.3488" y1="1.2031" y2="1.1956" /><line stroke="rgb(0%,0%,0%)" x1="0.3488" x2="0.343" y1="1.1956" y2="1.2031" /><line stroke="rgb(0%,0%,0%)" x1="0.343" x2="0.343" y1="1.2031" y2="1.2031" /><line stroke="rgb(0%,0%,0%)" x1="4.2695" x2="4.2787" y1="1.15" y2="1.1458" /><line stroke="rgb(0%,0%,0%)" x1="4.2787" x2="4.2695" y1="1.1458" y2="1.15" /><line stroke="rgb(0%,0%,0%)" x1="4.2695" x2="4.2695" y1="1.15" y2="1.15" /><line stroke="rgb(0%,0%,0%)" x1="4.2787" x2="4.2695" y1="1.1458" y2="1.15" /><line stroke="rgb(0%,0%,0%)" x1="4.2695" x2="4.2787" y1="1.15" y2="1.1458" /><line stroke="rgb(0%,0%,0%)" x1="4.2787" x2="4.2787" y1="1.1458" y2="1.1458" /><line stroke="rgb(0%,0%,0%)" x1="4.2493" x2="4.2523" y1="1.1507" y2="1.1662" /><line stroke="rgb(0%,0%,0%)" x1="4.2523" x2="4.2386" y1="1.1662" y2="1.1629" /><line stroke="rgb(0%,0%,0%)" x1="4.2386" x2="4.2493" y1="1.1629" y2="1.1507" /><line stroke="rgb(0%,0%,0%)" x1="4.2316" x2="4.2418" y1="1.1412" y2="1.1302" /><line stroke="rgb(0%,0%,0%)" x1="4.2418" x2="4.2418" y1="1.1302" y2="1.1302" /><line stroke="rgb(0%,0%,0%)" x1="4.2418" x2="4.2316" y1="1.1302" y2="1.1412" /><line stroke="rgb(0%,0%,0%)" x1="4.2418" x2="4.2316" y1="1.1302" y2="1.1412" /><line stroke="rgb(0%,0%,0%)" x1="4.2316" x2="4.2316" y1="1.1412" y2="1.1412" /><line stroke="rgb(0%,0%,0%)" x1="4.2316" x2="4.2418" y1="1.1412" y2="1.1302" /><line stroke="rgb(0%,0%,0%)" x1="4.2316" x2="4.2316" y1="1.1412" y2="1.1412" /><line stroke="rgb(0%,0%,0%)" x1="4.2316" x2="4.2316" y1="1.1412" y2="1.1412" /><line stroke="rgb(0%,0%,0%)" x1="4.2316" x2="4.2316" y1="1.1412" y2="1.1412" /><line stroke="rgb(0%,0%,0%)" x1="4.2237" x2="4.2147" y1="1.0945" y2="1.081" /><line stroke="rgb(0%,0%,0%)" x1="4.2147" x2="4.2296" y1="1.081" y2="1.0863" /><line stroke="rgb(0%,0%,0%)" x1="4.2296" x2="4.2237" y1="1.0863" y2="1.0945" /><line stroke="rgb(0%,0%,0%)" x1="4.2237" x2="4.2079" y1="1.0945" y2="1.0933" /><line stroke="rgb(0%,0%,0%)" x1="4.2079" x2="4.2147" y1="1.0933" y2="1.081" /><line stroke="rgb(0%,0%,0%)" x1="4.2147" x2="4.2237" y1="1.081" y2="1.0945" /><line stroke="rgb(0%,0%,0%)" x1="4.2202" x2="4.2079" y1="1.104" y2="1.0933" /><line stroke="rgb(0%,0%,0%)" x1="4.2079" x2="4.2237" y1="1.0933" y2="1.0945" /><line stroke="rgb(0%,0%,0%)" x1="4.2237" x2="4.2202" y1="1.0945" y2="1.104" /><line stroke="rgb(0%,0%,0%)" x1="4.2046" x2="4.2079" y1="1.107" y2="1.0933" /><line stroke="rgb(0%,0%,0%)" x1="4.2079" x2="4.2202" y1="1.0933" y2="1.104" /><line stroke="rgb(0%,0%,0%)" x1="4.2202" x2="4.2046" y1="1.104" y2="1.107" /><line stroke="rgb(0%,0%,0%)" x1="4.2192" x2="4.2046" y1="1.1141" y2="1.107" /><line stroke="rgb(0%,0%,0%)" x1="4.2046" x2="4.2202" y1="1.107" y2="1.104" /><line stroke="rgb(0%,0%,0%)" x1="4.2202" x2="4.2192" y1="1.104" y2="1.1141" /><line stroke="rgb(0%,0%,0%)" x1="4.2089" x2="4.2209" y1="1.1345" y2="1.1242" /><line stroke="rgb(0%,0%,0%)" x1="4.2209" x2="4.2251" y1="1.1242" y2="1.1334" /><line stroke="rgb(0%,0%,0%)" x1="4.2251" x2="4.2089" y1="1.1334" y2="1.1345" /><line stroke="rgb(0%,0%,0%)" x1="4.2049" x2="4.2046" y1="1.121" y2="1.107" /><line stroke="rgb(0%,0%,0%)" x1="4.2046" x2="4.2192" y1="1.107" y2="1.1141" /><line stroke="rgb(0%,0%,0%)" x1="4.2192" x2="4.2049" y1="1.1141" y2="1.121" /><line stroke="rgb(0%,0%,0%)" x1="4.2162" x2="4.2089" y1="1.1465" y2="1.1345" /><line stroke="rgb(0%,0%,0%)" x1="4.2089" x2="4.2251" y1="1.1345" y2="1.1334" /><line stroke="rgb(0%,0%,0%)" x1="4.2251" x2="4.2162" y1="1.1334" y2="1.1465" /><line stroke="rgb(0%,0%,0%)" x1="4.2089" x2="4.2049" y1="1.1345" y2="1.121" /><line stroke="rgb(0%,0%,0%)" x1="4.2049" x2="4.2209" y1="1.121" y2="1.1242" /><line stroke="rgb(0%,0%,0%)" x1="4.2209" x2="4.2089" y1="1.1242" y2="1.1345" /><line stroke="rgb(0%,0%,0%)" x1="4.2162" x2="4.2251" y1="1.1465" y2="1.1334" /><line stroke="rgb(0%,0%,0%)" x1="4.2251" x2="4.2316" y1="1.1334" y2="1.1412" /><line stroke="rgb(0%,0%,0%)" x1="4.2316" x2="4.2162" y1="1.1412" y2="1.1465" /><line stroke="rgb(0%,0%,0%)" x1="4.2594" x2="4.2523" y1="1.1516" y2="1.1662" /><line stroke="rgb(0%,0%,0%)" x1="4.2523" x2="4.2493" y1="1.1662" y2="1.1507" /><line stroke="rgb(0%,0%,0%)" x1="4.2493" x2="4.2594" y1="1.1507" y2="1.1516" /><line stroke="rgb(0%,0%,0%)" x1="4.2209" x2="4.2049" y1="1.1242" y2="1.121" /><line stroke="rgb(0%,0%,0%)" x1="4.2049" x2="4.2192" y1="1.121" y2="1.1141" /><line stroke="rgb(0%,0%,0%)" x1="4.2192" x2="4.2209" y1="1.1141" y2="1.1242" /><line stroke="rgb(0%,0%,0%)" x1="4.2316" x2="4.2224" y1="1.1412" y2="1.1524" /><line stroke="rgb(0%,0%,0%)" x1="4.2224" x2="4.2162" y1="1.1524" y2="1.1465" /><line stroke="rgb(0%,0%,0%)" x1="4.2162" x2="4.2316" y1="1.1465" y2="1.1412" /><line stroke="rgb(0%,0%,0%)" x1="4.2224" x2="4.2316" y1="1.1524" y2="1.1412" /><line stroke="rgb(0%,0%,0%)" x1="4.2316" x2="4.2263" y1="1.1412" y2="1.1562" /><line stroke="rgb(0%,0%,0%)" x1="4.2263" x2="4.2224" y1="1.1562" y2="1.1524" /><line stroke="rgb(0%,0%,0%)" x1="4.2398" x2="4.2263" y1="1.1471" y2="1.1562" /><line stroke="rgb(0%,0%,0%)" x1="4.2263" x2="4.2316" y1="1.1562" y2="1.1412" /><line stroke="rgb(0%,0%,0%)" x1="4.2316" x2="4.2398" y1="1.1412" y2="1.1471" /><line stroke="rgb(0%,0%,0%)" x1="4.2695" x2="4.2523" y1="1.15" y2="1.1662" /><line stroke="rgb(0%,0%,0%)" x1="4.2523" x2="4.2594" y1="1.1662" y2="1.1516" /><line stroke="rgb(0%,0%,0%)" x1="4.2594" x2="4.2695" y1="1.1516" y2="1.15" /><line stroke="rgb(0%,0%,0%)" x1="4.2594" x2="4.2695" y1="1.1516" y2="1.15" /><line stroke="rgb(0%,0%,0%)" x1="4.2695" x2="4.2594" y1="1.15" y2="1.1516" /><line stroke="rgb(0%,0%,0%)" x1="4.2594" x2="4.2594" y1="1.1516" y2="1.1516" /><line stroke="rgb(0%,0%,0%)" x1="4.2695" x2="4.2594" y1="1.15" y2="1.1516" /><line stroke="rgb(0%,0%,0%)" x1="4.2594" x2="4.2695" y1="1.1516" y2="1.15" /><line stroke="rgb(0%,0%,0%)" x1="4.2695" x2="4.2695" y1="1.15" y2="1.15" /><line stroke="rgb(0%,0%,0%)" x1="4.2398" x2="4.2386" y1="1.1471" y2="1.1629" /><line stroke="rgb(0%,0%,0%)" x1="4.2386" x2="4.2263" y1="1.1629" y2="1.1562" /><line stroke="rgb(0%,0%,0%)" x1="4.2263" x2="4.2398" y1="1.1562" y2="1.1471" /><line stroke="rgb(0%,0%,0%)" x1="4.2493" x2="4.2386" y1="1.1507" y2="1.1629" /><line stroke="rgb(0%,0%,0%)" x1="4.2386" x2="4.2398" y1="1.1629" y2="1.1471" /><line stroke="rgb(0%,0%,0%)" x1="4.2398" x2="4.2493" y1="1.1471" y2="1.1507" /><line stroke="rgb(0%,0%,0%)" x1="4.2209" x2="4.2192" y1="1.1242" y2="1.1141" /><line stroke="rgb(0%,0%,0%)" x1="4.2192" x2="4.2192" y1="1.1141" y2="1.1141" /><line stroke="rgb(0%,0%,0%)" x1="4.2192" x2="4.2209" y1="1.1141" y2="1.1242" /><line stroke="rgb(0%,0%,0%)" x1="4.2192" x2="4.2209" y1="1.1141" y2="1.1242" /><line stroke="rgb(0%,0%,0%)" x1="4.2209" x2="4.2209" y1="1.1242" y2="1.1242" /><line stroke="rgb(0%,0%,0%)" x1="4.2209" x2="4.2192" y1="1.1242" y2="1.1141" /><line stroke="rgb(0%,0%,0%)" x1="4.2398" x2="4.2316" y1="1.1471" y2="1.1412" /><line stroke="rgb(0%,0%,0%)" x1="4.2316" x2="4.2398" y1="1.1412" y2="1.1471" /><line stroke="rgb(0%,0%,0%)" x1="4.2398" x2="4.2398" y1="1.1471" y2="1.1471" /><line stroke="rgb(0%,0%,0%)" x1="4.2398" x2="4.2316" y1="1.1471" y2="1.1412" /><line stroke="rgb(0%,0%,0%)" x1="4.2316" x2="4.2316" y1="1.1412" y2="1.1412" /><line stroke="rgb(0%,0%,0%)" x1="4.2316" x2="4.2398" y1="1.1412" y2="1.1471" /><line stroke="rgb(0%,0%,0%)" x1="4.2192" x2="4.2202" y1="1.1141" y2="1.104" /><line stroke="rgb(0%,0%,0%)" x1="4.2202" x2="4.2202" y1="1.104" y2="1.104" /><line stroke="rgb(0%,0%,0%)" x1="4.2202" x2="4.2192" y1="1.104" y2="1.1141" /><line stroke="rgb(0%,0%,0%)" x1="4.2202" x2="4.2192" y1="1.104" y2="1.1141" /><line stroke="rgb(0%,0%,0%)" x1="4.2192" x2="4.2192" y1="1.1141" y2="1.1141" /><line stroke="rgb(0%,0%,0%)" x1="4.2192" x2="4.2202" y1="1.1141" y2="1.104" /><line stroke="rgb(0%,0%,0%)" x1="4.2398" x2="4.2493" y1="1.1471" y2="1.1507" /><line stroke="rgb(0%,0%,0%)" x1="4.2493" x2="4.2398" y1="1.1507" y2="1.1471" /><line stroke="rgb(0%,0%,0%)" x1="4.2398" x2="4.2398" y1="1.1471" y2="1.1471" /><line stroke="rgb(0%,0%,0%)" x1="4.2493" x2="4.2398" y1="1.1507" y2="1.1471" /><line stroke="rgb(0%,0%,0%)" x1="4.2398" x2="4.2493" y1="1.1471" y2="1.1507" /><line stroke="rgb(0%,0%,0%)" x1="4.2493" x2="4.2493" y1="1.1507" y2="1.1507" /><line stroke="rgb(0%,0%,0%)" x1="4.2787" x2="4.2865" y1="1.1458" y2="1.1393" /><line stroke="rgb(0%,0%,0%)" x1="4.2865" x2="4.2787" y1="1.1393" y2="1.1458" /><line stroke="rgb(0%,0%,0%)" x1="4.2787" x2="4.2787" y1="1.1458" y2="1.1458" /><line stroke="rgb(0%,0%,0%)" x1="4.2865" x2="4.2787" y1="1.1393" y2="1.1458" /><line stroke="rgb(0%,0%,0%)" x1="4.2787" x2="4.2865" y1="1.1458" y2="1.1393" /><line stroke="rgb(0%,0%,0%)" x1="4.2865" x2="4.2865" y1="1.1393" y2="1.1393" /><line stroke="rgb(0%,0%,0%)" x1="4.291" x2="4.2846" y1="1.0922" y2="1.0843" /><line stroke="rgb(0%,0%,0%)" x1="4.2846" x2="4.3" y1="1.0843" y2="1.0791" /><line stroke="rgb(0%,0%,0%)" x1="4.3" x2="4.291" y1="1.0791" y2="1.0922" /><line stroke="rgb(0%,0%,0%)" x1="4.2846" x2="4.2938" y1="1.0843" y2="1.0732" /><line stroke="rgb(0%,0%,0%)" x1="4.2938" x2="4.3" y1="1.0732" y2="1.0791" /><line stroke="rgb(0%,0%,0%)" x1="4.3" x2="4.2846" y1="1.0791" y2="1.0843" /><line stroke="rgb(0%,0%,0%)" x1="4.2938" x2="4.2846" y1="1.0732" y2="1.0843" /><line stroke="rgb(0%,0%,0%)" x1="4.2846" x2="4.2898" y1="1.0843" y2="1.0694" /><line stroke="rgb(0%,0%,0%)" x1="4.2898" x2="4.2938" y1="1.0694" y2="1.0732" /><line stroke="rgb(0%,0%,0%)" x1="4.291" x2="4.3" y1="1.0922" y2="1.0791" /><line stroke="rgb(0%,0%,0%)" x1="4.3" x2="4.3073" y1="1.0791" y2="1.0911" /><line stroke="rgb(0%,0%,0%)" x1="4.3073" x2="4.291" y1="1.0911" y2="1.0922" /><line stroke="rgb(0%,0%,0%)" x1="4.2953" x2="4.291" y1="1.1014" y2="1.0922" /><line stroke="rgb(0%,0%,0%)" x1="4.291" x2="4.3073" y1="1.0922" y2="1.0911" /><line stroke="rgb(0%,0%,0%)" x1="4.3073" x2="4.2953" y1="1.0911" y2="1.1014" /><line stroke="rgb(0%,0%,0%)" x1="4.3112" x2="4.2953" y1="1.1046" y2="1.1014" /><line stroke="rgb(0%,0%,0%)" x1="4.2953" x2="4.3073" y1="1.1014" y2="1.0911" /><line stroke="rgb(0%,0%,0%)" x1="4.3073" x2="4.3112" y1="1.0911" y2="1.1046" /><line stroke="rgb(0%,0%,0%)" x1="4.2918" x2="4.2865" y1="1.1547" y2="1.1393" /><line stroke="rgb(0%,0%,0%)" x1="4.2865" x2="4.2924" y1="1.1393" y2="1.131" /><line stroke="rgb(0%,0%,0%)" x1="4.2924" x2="4.2918" y1="1.131" y2="1.1547" /><line stroke="rgb(0%,0%,0%)" x1="4.2953" x2="4.291" y1="1.1014" y2="1.0922" /><line stroke="rgb(0%,0%,0%)" x1="4.291" x2="4.291" y1="1.0922" y2="1.0922" /><line stroke="rgb(0%,0%,0%)" x1="4.291" x2="4.2953" y1="1.0922" y2="1.1014" /><line stroke="rgb(0%,0%,0%)" x1="4.291" x2="4.2953" y1="1.0922" y2="1.1014" /><line stroke="rgb(0%,0%,0%)" x1="4.2953" x2="4.2953" y1="1.1014" y2="1.1014" /><line stroke="rgb(0%,0%,0%)" x1="4.2953" x2="4.291" y1="1.1014" y2="1.0922" /><line stroke="rgb(0%,0%,0%)" x1="4.3015" x2="4.2918" y1="1.1445" y2="1.1547" /><line stroke="rgb(0%,0%,0%)" x1="4.2918" x2="4.2924" y1="1.1547" y2="1.131" /><line stroke="rgb(0%,0%,0%)" x1="4.2924" x2="4.3015" y1="1.131" y2="1.1445" /><line stroke="rgb(0%,0%,0%)" x1="4.2374" x2="4.2296" y1="1.0798" y2="1.0863" /><line stroke="rgb(0%,0%,0%)" x1="4.2296" x2="4.2374" y1="1.0863" y2="1.0798" /><line stroke="rgb(0%,0%,0%)" x1="4.2374" x2="4.2374" y1="1.0798" y2="1.0798" /><line stroke="rgb(0%,0%,0%)" x1="4.2296" x2="4.2374" y1="1.0863" y2="1.0798" /><line stroke="rgb(0%,0%,0%)" x1="4.2374" x2="4.2296" y1="1.0798" y2="1.0863" /><line stroke="rgb(0%,0%,0%)" x1="4.2296" x2="4.2296" y1="1.0863" y2="1.0863" /><line stroke="rgb(0%,0%,0%)" x1="4.2237" x2="4.2296" y1="1.0945" y2="1.0863" /><line stroke="rgb(0%,0%,0%)" x1="4.2296" x2="4.2296" y1="1.0863" y2="1.0863" /><line stroke="rgb(0%,0%,0%)" x1="4.2296" x2="4.2237" y1="1.0863" y2="1.0945" /><line stroke="rgb(0%,0%,0%)" x1="4.2296" x2="4.2237" y1="1.0863" y2="1.0945" /><line stroke="rgb(0%,0%,0%)" x1="4.2237" x2="4.2237" y1="1.0945" y2="1.0945" /><line stroke="rgb(0%,0%,0%)" x1="4.2237" x2="4.2296" y1="1.0945" y2="1.0863" /><line stroke="rgb(0%,0%,0%)" x1="4.2251" x2="4.2209" y1="1.1334" y2="1.1242" /><line stroke="rgb(0%,0%,0%)" x1="4.2209" x2="4.2209" y1="1.1242" y2="1.1242" /><line stroke="rgb(0%,0%,0%)" x1="4.2209" x2="4.2251" y1="1.1242" y2="1.1334" /><line stroke="rgb(0%,0%,0%)" x1="4.2209" x2="4.2251" y1="1.1242" y2="1.1334" /><line stroke="rgb(0%,0%,0%)" x1="4.2251" x2="4.2251" y1="1.1334" y2="1.1334" /><line stroke="rgb(0%,0%,0%)" x1="4.2251" x2="4.2209" y1="1.1334" y2="1.1242" /><line stroke="rgb(0%,0%,0%)" x1="4.2202" x2="4.2237" y1="1.104" y2="1.0945" /><line stroke="rgb(0%,0%,0%)" x1="4.2237" x2="4.2237" y1="1.0945" y2="1.0945" /><line stroke="rgb(0%,0%,0%)" x1="4.2237" x2="4.2202" y1="1.0945" y2="1.104" /><line stroke="rgb(0%,0%,0%)" x1="4.2237" x2="4.2202" y1="1.0945" y2="1.104" /><line stroke="rgb(0%,0%,0%)" x1="4.2202" x2="4.2202" y1="1.104" y2="1.104" /><line stroke="rgb(0%,0%,0%)" x1="4.2202" x2="4.2237" y1="1.104" y2="1.0945" /><line stroke="rgb(0%,0%,0%)" x1="4.2316" x2="4.2251" y1="1.1412" y2="1.1334" /><line stroke="rgb(0%,0%,0%)" x1="4.2251" x2="4.2251" y1="1.1334" y2="1.1334" /><line stroke="rgb(0%,0%,0%)" x1="4.2251" x2="4.2316" y1="1.1334" y2="1.1412" /><line stroke="rgb(0%,0%,0%)" x1="4.2251" x2="4.2316" y1="1.1334" y2="1.1412" /><line stroke="rgb(0%,0%,0%)" x1="4.2316" x2="4.2316" y1="1.1412" y2="1.1412" /><line stroke="rgb(0%,0%,0%)" x1="4.2316" x2="4.2251" y1="1.1412" y2="1.1334" /><line stroke="rgb(0%,0%,0%)" x1="4.3015" x2="4.2924" y1="1.1445" y2="1.131" /><line stroke="rgb(0%,0%,0%)" x1="4.2924" x2="4.296" y1="1.131" y2="1.1215" /><line stroke="rgb(0%,0%,0%)" x1="4.296" x2="4.3015" y1="1.1215" y2="1.1445" /><line stroke="rgb(0%,0%,0%)" x1="4.2695" x2="4.2663" y1="1.15" y2="1.1659" /><line stroke="rgb(0%,0%,0%)" x1="4.2663" x2="4.2523" y1="1.1659" y2="1.1662" /><line stroke="rgb(0%,0%,0%)" x1="4.2523" x2="4.2695" y1="1.1662" y2="1.15" /><line stroke="rgb(0%,0%,0%)" x1="4.2493" x2="4.2594" y1="1.1507" y2="1.1516" /><line stroke="rgb(0%,0%,0%)" x1="4.2594" x2="4.2493" y1="1.1516" y2="1.1507" /><line stroke="rgb(0%,0%,0%)" x1="4.2493" x2="4.2493" y1="1.1507" y2="1.1507" /><line stroke="rgb(0%,0%,0%)" x1="4.2594" x2="4.2493" y1="1.1516" y2="1.1507" /><line stroke="rgb(0%,0%,0%)" x1="4.2493" x2="4.2594" y1="1.1507" y2="1.1516" /><line stroke="rgb(0%,0%,0%)" x1="4.2594" x2="4.2594" y1="1.1516" y2="1.1516" /><line stroke="rgb(0%,0%,0%)" x1="4.2787" x2="4.2663" y1="1.1458" y2="1.1659" /><line stroke="rgb(0%,0%,0%)" x1="4.2663" x2="4.2695" y1="1.1659" y2="1.15" /><line stroke="rgb(0%,0%,0%)" x1="4.2695" x2="4.2787" y1="1.15" y2="1.1458" /><line stroke="rgb(0%,0%,0%)" x1="4.2787" x2="4.2798" y1="1.1458" y2="1.162" /><line stroke="rgb(0%,0%,0%)" x1="4.2798" x2="4.2663" y1="1.162" y2="1.1659" /><line stroke="rgb(0%,0%,0%)" x1="4.2663" x2="4.2787" y1="1.1659" y2="1.1458" /><line stroke="rgb(0%,0%,0%)" x1="4.296" x2="4.2969" y1="1.1215" y2="1.1114" /><line stroke="rgb(0%,0%,0%)" x1="4.2969" x2="4.2969" y1="1.1114" y2="1.1114" /><line stroke="rgb(0%,0%,0%)" x1="4.2969" x2="4.296" y1="1.1114" y2="1.1215" /><line stroke="rgb(0%,0%,0%)" x1="4.2969" x2="4.296" y1="1.1114" y2="1.1215" /><line stroke="rgb(0%,0%,0%)" x1="4.296" x2="4.296" y1="1.1215" y2="1.1215" /><line stroke="rgb(0%,0%,0%)" x1="4.296" x2="4.2969" y1="1.1215" y2="1.1114" /><line stroke="rgb(0%,0%,0%)" x1="4.2969" x2="4.2953" y1="1.1114" y2="1.1014" /><line stroke="rgb(0%,0%,0%)" x1="4.2953" x2="4.2953" y1="1.1014" y2="1.1014" /><line stroke="rgb(0%,0%,0%)" x1="4.2953" x2="4.2969" y1="1.1014" y2="1.1114" /><line stroke="rgb(0%,0%,0%)" x1="4.2953" x2="4.2969" y1="1.1014" y2="1.1114" /><line stroke="rgb(0%,0%,0%)" x1="4.2969" x2="4.2969" y1="1.1114" y2="1.1114" /><line stroke="rgb(0%,0%,0%)" x1="4.2969" x2="4.2953" y1="1.1114" y2="1.1014" /><line stroke="rgb(0%,0%,0%)" x1="4.2924" x2="4.296" y1="1.131" y2="1.1215" /><line stroke="rgb(0%,0%,0%)" x1="4.296" x2="4.296" y1="1.1215" y2="1.1215" /><line stroke="rgb(0%,0%,0%)" x1="4.296" x2="4.2924" y1="1.1215" y2="1.131" /><line stroke="rgb(0%,0%,0%)" x1="4.296" x2="4.2924" y1="1.1215" y2="1.131" /><line stroke="rgb(0%,0%,0%)" x1="4.2924" x2="4.2924" y1="1.131" y2="1.131" /><line stroke="rgb(0%,0%,0%)" x1="4.2924" x2="4.296" y1="1.131" y2="1.1215" /><line stroke="rgb(0%,0%,0%)" x1="4.2763" x2="4.2668" y1="1.0784" y2="1.0749" /><line stroke="rgb(0%,0%,0%)" x1="4.2668" x2="4.2763" y1="1.0749" y2="1.0784" /><line stroke="rgb(0%,0%,0%)" x1="4.2763" x2="4.2763" y1="1.0784" y2="1.0784" /><line stroke="rgb(0%,0%,0%)" x1="4.2668" x2="4.2763" y1="1.0749" y2="1.0784" /><line stroke="rgb(0%,0%,0%)" x1="4.2763" x2="4.2668" y1="1.0784" y2="1.0749" /><line stroke="rgb(0%,0%,0%)" x1="4.2668" x2="4.2668" y1="1.0749" y2="1.0749" /><line stroke="rgb(0%,0%,0%)" x1="4.2865" x2="4.2924" y1="1.1393" y2="1.131" /><line stroke="rgb(0%,0%,0%)" x1="4.2924" x2="4.2924" y1="1.131" y2="1.131" /><line stroke="rgb(0%,0%,0%)" x1="4.2924" x2="4.2865" y1="1.131" y2="1.1393" /><line stroke="rgb(0%,0%,0%)" x1="4.2924" x2="4.2865" y1="1.131" y2="1.1393" /><line stroke="rgb(0%,0%,0%)" x1="4.2865" x2="4.2865" y1="1.1393" y2="1.1393" /><line stroke="rgb(0%,0%,0%)" x1="4.2865" x2="4.2924" y1="1.1393" y2="1.131" /><line stroke="rgb(0%,0%,0%)" x1="4.291" x2="4.2846" y1="1.0922" y2="1.0843" /><line stroke="rgb(0%,0%,0%)" x1="4.2846" x2="4.2846" y1="1.0843" y2="1.0843" /><line stroke="rgb(0%,0%,0%)" x1="4.2846" x2="4.291" y1="1.0843" y2="1.0922" /><line stroke="rgb(0%,0%,0%)" x1="4.2846" x2="4.291" y1="1.0843" y2="1.0922" /><line stroke="rgb(0%,0%,0%)" x1="4.291" x2="4.291" y1="1.0922" y2="1.0922" /><line stroke="rgb(0%,0%,0%)" x1="4.291" x2="4.2846" y1="1.0922" y2="1.0843" /><line stroke="rgb(0%,0%,0%)" x1="4.2846" x2="4.2763" y1="1.0843" y2="1.0784" /><line stroke="rgb(0%,0%,0%)" x1="4.2763" x2="4.2846" y1="1.0784" y2="1.0843" /><line stroke="rgb(0%,0%,0%)" x1="4.2846" x2="4.2846" y1="1.0843" y2="1.0843" /><line stroke="rgb(0%,0%,0%)" x1="4.2763" x2="4.2846" y1="1.0784" y2="1.0843" /><line stroke="rgb(0%,0%,0%)" x1="4.2846" x2="4.2763" y1="1.0843" y2="1.0784" /><line stroke="rgb(0%,0%,0%)" x1="4.2763" x2="4.2763" y1="1.0784" y2="1.0784" /><line stroke="rgb(0%,0%,0%)" x1="4.2668" x2="4.2567" y1="1.0749" y2="1.0739" /><line stroke="rgb(0%,0%,0%)" x1="4.2567" x2="4.2668" y1="1.0739" y2="1.0749" /><line stroke="rgb(0%,0%,0%)" x1="4.2668" x2="4.2668" y1="1.0749" y2="1.0749" /><line stroke="rgb(0%,0%,0%)" x1="4.2567" x2="4.2668" y1="1.0739" y2="1.0749" /><line stroke="rgb(0%,0%,0%)" x1="4.2668" x2="4.2567" y1="1.0749" y2="1.0739" /><line stroke="rgb(0%,0%,0%)" x1="4.2567" x2="4.2567" y1="1.0739" y2="1.0739" /><line stroke="rgb(0%,0%,0%)" x1="4.2567" x2="4.2467" y1="1.0739" y2="1.0756" /><line stroke="rgb(0%,0%,0%)" x1="4.2467" x2="4.2567" y1="1.0756" y2="1.0739" /><line stroke="rgb(0%,0%,0%)" x1="4.2567" x2="4.2567" y1="1.0739" y2="1.0739" /><line stroke="rgb(0%,0%,0%)" x1="4.2467" x2="4.2567" y1="1.0756" y2="1.0739" /><line stroke="rgb(0%,0%,0%)" x1="4.2567" x2="4.2467" y1="1.0739" y2="1.0756" /><line stroke="rgb(0%,0%,0%)" x1="4.2467" x2="4.2467" y1="1.0756" y2="1.0756" /><line stroke="rgb(0%,0%,0%)" x1="4.2467" x2="4.2374" y1="1.0756" y2="1.0798" /><line stroke="rgb(0%,0%,0%)" x1="4.2374" x2="4.2467" y1="1.0798" y2="1.0756" /><line stroke="rgb(0%,0%,0%)" x1="4.2467" x2="4.2467" y1="1.0756" y2="1.0756" /><line stroke="rgb(0%,0%,0%)" x1="4.2374" x2="4.2467" y1="1.0798" y2="1.0756" /><line stroke="rgb(0%,0%,0%)" x1="4.2467" x2="4.2374" y1="1.0756" y2="1.0798" /><line stroke="rgb(0%,0%,0%)" x1="4.2374" x2="4.2374" y1="1.0798" y2="1.0798" /><line stroke="rgb(0%,0%,0%)" x1="4.3015" x2="4.296" y1="1.1445" y2="1.1215" /><line stroke="rgb(0%,0%,0%)" x1="4.296" x2="4.3082" y1="1.1215" y2="1.1322" /><line stroke="rgb(0%,0%,0%)" x1="4.3082" x2="4.3015" y1="1.1322" y2="1.1445" /><line stroke="rgb(0%,0%,0%)" x1="4.3082" x2="4.296" y1="1.1322" y2="1.1215" /><line stroke="rgb(0%,0%,0%)" x1="4.296" x2="4.2969" y1="1.1215" y2="1.1114" /><line stroke="rgb(0%,0%,0%)" x1="4.2969" x2="4.3082" y1="1.1114" y2="1.1322" /><line stroke="rgb(0%,0%,0%)" x1="4.3082" x2="4.2969" y1="1.1322" y2="1.1114" /><line stroke="rgb(0%,0%,0%)" x1="4.2969" x2="4.3115" y1="1.1114" y2="1.1186" /><line stroke="rgb(0%,0%,0%)" x1="4.3115" x2="4.3082" y1="1.1186" y2="1.1322" /><line stroke="rgb(0%,0%,0%)" x1="4.3115" x2="4.2969" y1="1.1186" y2="1.1114" /><line stroke="rgb(0%,0%,0%)" x1="4.2969" x2="4.2953" y1="1.1114" y2="1.1014" /><line stroke="rgb(0%,0%,0%)" x1="4.2953" x2="4.3115" y1="1.1014" y2="1.1186" /><line stroke="rgb(0%,0%,0%)" x1="4.3115" x2="4.2953" y1="1.1186" y2="1.1014" /><line stroke="rgb(0%,0%,0%)" x1="4.2953" x2="4.3112" y1="1.1014" y2="1.1046" /><line stroke="rgb(0%,0%,0%)" x1="4.3112" x2="4.3115" y1="1.1046" y2="1.1186" /><line stroke="rgb(0%,0%,0%)" x1="4.2787" x2="4.2918" y1="1.1458" y2="1.1547" /><line stroke="rgb(0%,0%,0%)" x1="4.2918" x2="4.2798" y1="1.1547" y2="1.162" /><line stroke="rgb(0%,0%,0%)" x1="4.2798" x2="4.2787" y1="1.162" y2="1.1458" /><line stroke="rgb(0%,0%,0%)" x1="4.2865" x2="4.2918" y1="1.1393" y2="1.1547" /><line stroke="rgb(0%,0%,0%)" x1="4.2918" x2="4.2787" y1="1.1547" y2="1.1458" /><line stroke="rgb(0%,0%,0%)" x1="4.2787" x2="4.2865" y1="1.1458" y2="1.1393" /><line stroke="rgb(0%,0%,0%)" x1="4.2296" x2="4.2184" y1="1.0863" y2="1.0771" /><line stroke="rgb(0%,0%,0%)" x1="4.2184" x2="4.2244" y1="1.0771" y2="1.0709" /><line stroke="rgb(0%,0%,0%)" x1="4.2244" x2="4.2296" y1="1.0709" y2="1.0863" /><line stroke="rgb(0%,0%,0%)" x1="4.2184" x2="4.2296" y1="1.0771" y2="1.0863" /><line stroke="rgb(0%,0%,0%)" x1="4.2296" x2="4.2147" y1="1.0863" y2="1.081" /><line stroke="rgb(0%,0%,0%)" x1="4.2147" x2="4.2184" y1="1.081" y2="1.0771" /><line stroke="rgb(0%,0%,0%)" x1="4.2296" x2="4.2244" y1="1.0863" y2="1.0709" /><line stroke="rgb(0%,0%,0%)" x1="4.2244" x2="4.2374" y1="1.0709" y2="1.0798" /><line stroke="rgb(0%,0%,0%)" x1="4.2374" x2="4.2296" y1="1.0798" y2="1.0863" /><line stroke="rgb(0%,0%,0%)" x1="4.2374" x2="4.2244" y1="1.0798" y2="1.0709" /><line stroke="rgb(0%,0%,0%)" x1="4.2244" x2="4.2364" y1="1.0709" y2="1.0636" /><line stroke="rgb(0%,0%,0%)" x1="4.2364" x2="4.2374" y1="1.0636" y2="1.0798" /><line stroke="rgb(0%,0%,0%)" x1="4.2374" x2="4.2364" y1="1.0798" y2="1.0636" /><line stroke="rgb(0%,0%,0%)" x1="4.2364" x2="4.2467" y1="1.0636" y2="1.0756" /><line stroke="rgb(0%,0%,0%)" x1="4.2467" x2="4.2374" y1="1.0756" y2="1.0798" /><line stroke="rgb(0%,0%,0%)" x1="4.2467" x2="4.2364" y1="1.0756" y2="1.0636" /><line stroke="rgb(0%,0%,0%)" x1="4.2364" x2="4.2498" y1="1.0636" y2="1.0596" /><line stroke="rgb(0%,0%,0%)" x1="4.2498" x2="4.2467" y1="1.0596" y2="1.0756" /><line stroke="rgb(0%,0%,0%)" x1="4.2467" x2="4.2498" y1="1.0756" y2="1.0596" /><line stroke="rgb(0%,0%,0%)" x1="4.2498" x2="4.2567" y1="1.0596" y2="1.0739" /><line stroke="rgb(0%,0%,0%)" x1="4.2567" x2="4.2467" y1="1.0739" y2="1.0756" /><line stroke="rgb(0%,0%,0%)" x1="4.2567" x2="4.2498" y1="1.0739" y2="1.0596" /><line stroke="rgb(0%,0%,0%)" x1="4.2498" x2="4.2639" y1="1.0596" y2="1.0593" /><line stroke="rgb(0%,0%,0%)" x1="4.2639" x2="4.2567" y1="1.0593" y2="1.0739" /><line stroke="rgb(0%,0%,0%)" x1="4.2567" x2="4.2639" y1="1.0739" y2="1.0593" /><line stroke="rgb(0%,0%,0%)" x1="4.2639" x2="4.2668" y1="1.0593" y2="1.0749" /><line stroke="rgb(0%,0%,0%)" x1="4.2668" x2="4.2567" y1="1.0749" y2="1.0739" /><line stroke="rgb(0%,0%,0%)" x1="4.2668" x2="4.2639" y1="1.0749" y2="1.0593" /><line stroke="rgb(0%,0%,0%)" x1="4.2639" x2="4.2775" y1="1.0593" y2="1.0627" /><line stroke="rgb(0%,0%,0%)" x1="4.2775" x2="4.2668" y1="1.0627" y2="1.0749" /><line stroke="rgb(0%,0%,0%)" x1="4.2668" x2="4.2775" y1="1.0749" y2="1.0627" /><line stroke="rgb(0%,0%,0%)" x1="4.2775" x2="4.2763" y1="1.0627" y2="1.0784" /><line stroke="rgb(0%,0%,0%)" x1="4.2763" x2="4.2668" y1="1.0784" y2="1.0749" /><line stroke="rgb(0%,0%,0%)" x1="4.2763" x2="4.2775" y1="1.0784" y2="1.0627" /><line stroke="rgb(0%,0%,0%)" x1="4.2775" x2="4.2898" y1="1.0627" y2="1.0694" /><line stroke="rgb(0%,0%,0%)" x1="4.2898" x2="4.2763" y1="1.0694" y2="1.0784" /><line stroke="rgb(0%,0%,0%)" x1="4.2763" x2="4.2898" y1="1.0784" y2="1.0694" /><line stroke="rgb(0%,0%,0%)" x1="4.2898" x2="4.2846" y1="1.0694" y2="1.0843" /><line stroke="rgb(0%,0%,0%)" x1="4.2846" x2="4.2763" y1="1.0843" y2="1.0784" /></g></svg>